0
SECTION
2
HEADER
9
$INSUNITS
70
4
9
$ACADVER
1
AC1014
9
$HANDSEED
5
FFFF
0
ENDSEC
0
SECTION
2
TABLES
0
TABLE
2
VPORT
5
8
100
AcDbSymbolTable
0
ENDTAB
0
TABLE
2
LTYPE
5
5
100
AcDbSymbolTable
0
LTYPE
5
14
100
AcDbSymbolTableRecord
100
AcDbLinetypeTableRecord
2
BYBLOCK
70
0
0
LTYPE
5
15
100
AcDbSymbolTableRecord
100
AcDbLinetypeTableRecord
2
BYLAYER
70
0
0
ENDTAB
0
TABLE
2
LAYER
5
2
100
AcDbSymbolTable
70
2
0
LAYER
5
50
100
AcDbSymbolTableRecord
100
AcDbLayerTableRecord
2
0
70
0
6
CONTINUOUS
0
ENDTAB
0
TABLE
2
STYLE
5
3
100
AcDbSymbolTable
70
1
0
STYLE
5
11
100
AcDbSymbolTableRecord
100
AcDbTextStyleTableRecord
2
STANDARD
70
0
0
ENDTAB
0
TABLE
2
VIEW
5
6
100
AcDbSymbolTable
70
0
0
ENDTAB
0
TABLE
2
UCS
5
7
100
AcDbSymbolTable
70
0
0
ENDTAB
0
TABLE
2
APPID
5
9
100
AcDbSymbolTable
70
2
0
APPID
5
12
100
AcDbSymbolTableRecord
100
AcDbRegAppTableRecord
2
ACAD
70
0
0
ENDTAB
0
TABLE
2
DIMSTYLE
5
A
100
AcDbSymbolTable
70
1
0
ENDTAB
0
TABLE
2
BLOCK_RECORD
5
1
100
AcDbSymbolTable
70
1
0
BLOCK_RECORD
5
1F
100
AcDbSymbolTableRecord
100
AcDbBlockTableRecord
2
*MODEL_SPACE
0
BLOCK_RECORD
5
1B
100
AcDbSymbolTableRecord
100
AcDbBlockTableRecord
2
*PAPER_SPACE
0
ENDTAB
0
ENDSEC
0
SECTION
2
BLOCKS
0
BLOCK
5
20
100
AcDbEntity
100
AcDbBlockBegin
2
*MODEL_SPACE
0
ENDBLK
5
21
100
AcDbEntity
100
AcDbBlockEnd
0
BLOCK
5
1C
100
AcDbEntity
100
AcDbBlockBegin
2
*PAPER_SPACE
0
ENDBLK
5
1D
100
AcDbEntity
100
AcDbBlockEnd
0
ENDSEC
0
SECTION
2
ENTITIES
0
ARC
5
100
100
AcDbEntity
8
0
100
AcDbCircle
10
-72.999999999999929
20
7.4999999999996518
30
0
40
17.499999999999989
210
0
220
0
230
1
100
AcDbArc
50
90.000000000000142
51
180
0
LINE
5
101
100
AcDbEntity
8
0
100
AcDbLine
10
82
20
25.000000000000078
30
0
11
-72.999999999999972
21
24.999999999999641
31
0
0
LINE
5
102
100
AcDbEntity
8
0
100
AcDbLine
10
-90.499999999999915
20
7.4999999999996572
30
0
11
-90.499999999999986
21
-43.499999999999801
31
0
0
ARC
5
103
100
AcDbEntity
8
0
100
AcDbCircle
10
-72.999999999999986
20
-43.499999999999815
30
0
40
17.500000000000007
210
0
220
0
230
1
100
AcDbArc
50
180
51
269.99999999999983
0
ARC
5
104
100
AcDbEntity
8
0
100
AcDbCircle
10
82
20
-43.499999999999986
30
0
40
17.5
210
0
220
0
230
1
100
AcDbArc
50
269.99999999999989
51
360
0
LINE
5
105
100
AcDbEntity
8
0
100
AcDbLine
10
99.5
20
-43.5
30
0
11
99.500000000000028
21
7.5000000000000711
31
0
0
ARC
5
106
100
AcDbEntity
8
0
100
AcDbCircle
10
82.000000000000028
20
7.5000000000000782
30
0
40
17.5
210
-0
220
0
230
1
100
AcDbArc
50
0
51
90.000000000000099
0
CIRCLE
5
107
100
AcDbEntity
8
0
100
AcDbCircle
10
-80.424621202458638
20
14.924621202458416
30
0
40
2.0000000000000018
210
0
220
0
230
1
0
CIRCLE
5
108
100
AcDbEntity
8
0
100
AcDbCircle
10
-80.424621202458724
20
-50.924621202458596
30
0
40
2.0000000000000018
210
0
220
0
230
1
0
CIRCLE
5
109
100
AcDbEntity
8
0
100
AcDbCircle
10
93.821577924916937
20
-30.500000000000014
30
0
40
1.9999999999999929
210
0
220
0
230
1
0
CIRCLE
5
110
100
AcDbEntity
8
0
100
AcDbCircle
10
93.821577924916951
20
-5.5000000000000169
30
0
40
1.9999999999999929
210
0
220
0
230
1
0
CIRCLE
5
111
100
AcDbEntity
8
0
100
AcDbCircle
10
-80.424621202458638
20
14.924621202458416
30
0
40
1.25
210
0
220
0
230
1
0
CIRCLE
5
112
100
AcDbEntity
8
0
100
AcDbCircle
10
-80.424621202458724
20
-50.924621202458596
30
0
40
1.25
210
0
220
0
230
1
0
CIRCLE
5
113
100
AcDbEntity
8
0
100
AcDbCircle
10
93.821577924916937
20
-30.500000000000014
30
0
40
1.25
210
0
220
0
230
1
0
CIRCLE
5
114
100
AcDbEntity
8
0
100
AcDbCircle
10
93.821577924916951
20
-5.5000000000000169
30
0
40
1.25
210
0
220
0
230
1
0
LINE
5
115
100
AcDbEntity
8
0
100
AcDbLine
10
5.4999999999999902
20
-60.999999999999908
30
0
11
81.999999999999972
21
-60.999999999999986
31
0
0
CIRCLE
5
116
100
AcDbEntity
8
0
100
AcDbCircle
10
10
20
17.999999999999872
30
0
40
1.2500000000000011
210
0
220
-0
230
1
0
CIRCLE
5
117
100
AcDbEntity
8
0
100
AcDbCircle
10
-12.000000000000002
20
-12.000000000000002
30
0
40
1.25
210
0
220
-0
230
1
0
LINE
5
118
100
AcDbEntity
8
0
100
AcDbLine
10
5.4999999999999902
20
-60.999999999999908
30
0
11
-5.5000000000000107
21
-60.999999999999908
31
0
0
LINE
5
119
100
AcDbEntity
8
0
100
AcDbLine
10
-66.500000000000028
20
1.0000000000000053
30
0
11
-66.5
21
20.000000000000007
31
0
0
LINE
5
120
100
AcDbEntity
8
0
100
AcDbLine
10
-66.5
20
20.000000000000007
30
0
11
82
21
20.000000000000078
31
0
0
LINE
5
121
100
AcDbEntity
8
0
100
AcDbLine
10
-85.5
20
1.0000000000000053
30
0
11
-66.500000000000028
21
1.0000000000000053
31
0
0
LINE
5
122
100
AcDbEntity
8
0
100
AcDbLine
10
-85.5
20
-37
30
0
11
-85.5
21
1.0000000000000053
31
0
0
LINE
5
123
100
AcDbEntity
8
0
100
AcDbLine
10
-66.5
20
-37
30
0
11
-85.5
21
-37
31
0
0
LINE
5
124
100
AcDbEntity
8
0
100
AcDbLine
10
-66.5
20
-56.000000000000007
30
0
11
-66.5
21
-37
31
0
0
LINE
5
125
100
AcDbEntity
8
0
100
AcDbLine
10
-5.5000000000000115
20
-56.000000000000014
30
0
11
-66.5
21
-56.000000000000007
31
0
0
LINE
5
126
100
AcDbEntity
8
0
100
AcDbLine
10
82
20
-55.999999999999986
30
0
11
5.4999999999999893
21
-56.000000000000014
31
0
0
ARC
5
127
100
AcDbEntity
8
0
100
AcDbCircle
10
82
20
-43.499999999999986
30
0
40
12.5
210
0
220
0
230
1
100
AcDbArc
50
-90
51
0
0
LINE
5
128
100
AcDbEntity
8
0
100
AcDbLine
10
94.5
20
-36.856844150166161
30
0
11
94.5
21
-43.499999999999986
31
0
0
ARC
5
129
100
AcDbEntity
8
0
100
AcDbCircle
10
94.500000000000014
20
-30.500000000000014
30
0
40
6.3568441501661432
210
0
220
-0
230
1
100
AcDbArc
50
90
51
269.99999999999989
0
LINE
5
130
100
AcDbEntity
8
0
100
AcDbLine
10
94.500000000000014
20
-11.856844150166179
30
0
11
94.500000000000014
21
-24.143155849833875
31
0
0
LINE
5
131
100
AcDbEntity
8
0
100
AcDbLine
10
94.500000000000028
20
7.5000000000000711
30
0
11
94.500000000000028
21
0.85684415016614501
31
0
0
ARC
5
132
100
AcDbEntity
8
0
100
AcDbCircle
10
94.500000000000028
20
-5.5000000000000178
30
0
40
6.3568441501661628
210
0
220
-0
230
1
100
AcDbArc
50
90
51
269.99999999999989
0
ARC
5
133
100
AcDbEntity
8
0
100
AcDbCircle
10
82.000000000000043
20
7.5000000000000959
30
0
40
12.499999999999982
210
0
220
0
230
1
100
AcDbArc
50
0
51
90.000000000000199
0
LINE
5
134
100
AcDbEntity
8
0
100
AcDbLine
10
-5.5000000000000115
20
-56.000000000000014
30
0
11
5.4999999999999893
21
-56.000000000000014
31
0
0
LWPOLYLINE
5
135
100
AcDbEntity
8
0
100
AcDbPolyline
90
16
70
1
43
0.0
10
-65.499999985098839
20
-54.999999985098846
10
-5.5000000000000115
20
-54.999999985098853
10
5.4999999999999893
20
-54.999999985098853
10
82
20
-54.999999985098825
42
0.41421356237309503
10
93.499999985098839
20
-43.499999999999986
10
93.499999985098839
20
-37.788563372797327
42
-0.87216695870292105
10
93.499999985098853
20
-23.211436627202705
10
93.499999985098853
20
-12.788563372797348
42
-0.87216695870292127
10
93.499999985098867
20
1.7885633727973138
10
93.499999985098867
20
7.5000000000000728
42
0.41421356237309698
10
82
20
18.999999985098917
10
-65.499999985098839
20
18.999999985098846
10
-65.499999985098867
20
-1.4901155864777138e-08
10
-84.499999985098839
20
-1.4901155864777138e-08
10
-84.499999985098839
20
-35.999999985098839
10
-65.499999985098839
20
-35.999999985098839
0
LINE
5
136
100
AcDbEntity
8
0
100
AcDbLine
10
-73
20
-60.999999999999829
30
0
11
-5.5000000000000071
21
-60.999999999999908
31
0
0
CIRCLE
5
137
100
AcDbEntity
8
0
100
AcDbCircle
10
-4.4408920985006262e-15
20
-24.730000000000004
30
0
40
0.75000000000000011
210
0
220
-0
230
1
0
ENDSEC
0
SECTION
2
OBJECTS
0
DICTIONARY
5
C
100
AcDbDictionary
3
ACAD_GROUP
350
D
3
ACAD_MLINESTYLE
350
17
0
DICTIONARY
5
D
100
AcDbDictionary
0
DICTIONARY
5
1A
330
C
100
AcDbDictionary
0
DICTIONARY
5
17
100
AcDbDictionary
0
ENDSEC
0
EOF
