<?xml version="1.0" encoding="UTF-8" standalone="no"?>
<!DOCTYPE svg PUBLIC "-//W3C//DTD SVG 1.1//EN" "http://www.w3.org/Graphics/SVG/1.1/DTD/svg11.dtd">
<svg width="842px" height="1191px" version="1.1" xmlns="http://www.w3.org/2000/svg" xmlns:xlink="http://www.w3.org/1999/xlink" xml:space="preserve" xmlns:serif="http://www.serif.com/" style="fill-rule:evenodd;clip-rule:evenodd;stroke-linecap:round;stroke-linejoin:round;stroke-miterlimit:10;">
    <path id="Left-Cutout" serif:id="Left Cutout" d="M148.139,793.875L94.259,793.875L94.259,686.115L148.139,686.115L148.139,632.235L309.779,632.235L309.779,686.115L202.019,686.115L202.019,847.755L148.139,847.755L148.139,793.875Z" style="fill:rgb(186,186,186);fill-rule:nonzero;stroke:black;stroke-width:1.44px;"/>
    <path d="M383.694,635.878L545.214,635.878L545.214,851.398L491.334,851.398L491.334,689.758L383.694,689.758L383.694,635.878Z" style="fill:rgb(183,183,183);fill-rule:nonzero;stroke:black;stroke-width:1.44px;"/>
    <g>
        <path d="M594.541,743.638L594.421,742.078L594.061,740.398L593.341,738.958L592.501,737.638L591.421,736.438L590.101,735.358L588.661,734.638L587.101,734.158L585.541,733.798L583.861,733.798L582.301,734.158L580.741,734.638L579.301,735.358L577.981,736.438L576.901,737.638L576.061,738.958L575.341,740.398L574.981,742.078L574.861,743.638L574.981,745.198L575.341,746.878L576.061,748.318L576.901,749.638L577.981,750.838L579.301,751.918L580.741,752.638L582.301,753.118L583.861,753.478L585.541,753.478L587.101,753.118L588.661,752.638L590.101,751.918L591.421,750.838L592.501,749.638L593.341,748.318L594.061,746.878L594.421,745.198L594.541,743.638Z" style="fill:rgb(60,60,60);fill-rule:nonzero;stroke:black;stroke-width:1.44px;stroke-linejoin:bevel;"/>
        <path d="M594.541,814.558L594.421,812.998L594.061,811.318L593.341,809.878L592.501,808.558L591.421,807.358L590.101,806.278L588.661,805.558L587.101,805.078L585.541,804.718L583.861,804.718L582.301,805.078L580.741,805.558L579.301,806.278L577.981,807.358L576.901,808.558L576.061,809.878L575.341,811.318L574.981,812.998L574.861,814.558L574.981,816.118L575.341,817.798L576.061,819.238L576.901,820.558L577.981,821.758L579.301,822.838L580.741,823.558L582.301,824.038L583.861,824.398L585.541,824.398L587.101,824.038L588.661,823.558L590.101,822.838L591.421,821.758L592.501,820.558L593.341,819.238L594.061,817.798L594.421,816.118L594.541,814.558Z" style="fill:rgb(60,60,60);fill-rule:nonzero;stroke:black;stroke-width:1.44px;stroke-linejoin:bevel;"/>
        <path d="M594.541,672.718L594.421,671.158L594.061,669.478L593.341,668.038L592.501,666.718L591.421,665.518L590.101,664.438L588.661,663.718L587.101,663.238L585.541,662.878L583.861,662.878L582.301,663.238L580.741,663.718L579.301,664.438L577.981,665.518L576.901,666.718L576.061,668.038L575.341,669.478L574.981,671.158L574.861,672.718L574.981,674.278L575.341,675.958L576.061,677.398L576.901,678.718L577.981,679.918L579.301,680.998L580.741,681.718L582.301,682.198L583.861,682.558L585.541,682.558L587.101,682.198L588.661,681.718L590.101,680.998L591.421,679.918L592.501,678.718L593.341,677.398L594.061,675.958L594.421,674.278L594.541,672.718Z" style="fill:rgb(60,60,60);fill-rule:nonzero;stroke:black;stroke-width:1.44px;stroke-linejoin:bevel;"/>
        <rect x="559.065" y="635.834" width="54.034" height="214.922" style="fill:none;stroke:black;stroke-width:0.42px;stroke-miterlimit:1.5;"/>
    </g>
    <g>
        <path d="M355.605,791.602L355.485,790.042L355.125,788.362L354.405,786.922L353.565,785.602L352.485,784.402L351.165,783.322L349.725,782.602L348.165,782.122L346.605,781.762L344.925,781.762L343.365,782.122L341.805,782.602L340.365,783.322L339.045,784.402L337.965,785.602L337.125,786.922L336.405,788.362L336.045,790.042L335.925,791.602L336.045,793.162L336.405,794.842L337.125,796.282L337.965,797.602L339.045,798.802L340.365,799.882L341.805,800.602L343.365,801.082L344.925,801.442L346.605,801.442L348.165,801.082L349.725,800.602L351.165,799.882L352.485,798.802L353.565,797.602L354.405,796.282L355.125,794.842L355.485,793.162L355.605,791.602Z" style="fill:rgb(103,103,103);fill-rule:nonzero;stroke:black;stroke-width:1.44px;stroke-linejoin:bevel;"/>
        <rect x="319.886" y="633.406" width="51.605" height="188.815" style="fill:none;stroke:black;stroke-width:0.42px;stroke-miterlimit:1.5;"/>
    </g>
    <g id="Top-Case" serif:id="Top Case">
        <g id="Top-Case1" serif:id="Top Case">
            <path d="M600.823,69.336C600.823,42.421 578.971,20.569 552.056,20.569L110.858,20.569C83.942,20.569 62.09,42.421 62.09,69.336L62.09,215.638C62.09,242.553 83.942,264.405 110.858,264.405L552.056,264.405C578.971,264.405 600.823,242.553 600.823,215.638L600.823,69.336Z" style="stroke:black;stroke-width:0.42px;stroke-miterlimit:1.5;"/>
            <path d="M220.334,264.414L222.014,264.414" style="fill:none;fill-rule:nonzero;stroke:black;stroke-width:1.44px;"/>
            <path d="M242.836,244.248C232.914,229.611 227.115,211.953 227.115,192.951C227.115,142.402 268.155,101.362 318.704,101.362C369.254,101.362 410.293,142.402 410.293,192.951C410.293,209.633 405.824,225.278 398.017,238.758C398.166,239.273 398.042,239.817 397.622,240.391C387.131,254.747 399.831,264.318 417.132,264.502C417.273,264.503 417.547,264.512 417.547,264.512L417.486,277.892L222.335,278.864L222.36,264.349C222.36,264.349 222.591,264.328 222.708,264.318C241.708,262.703 246.637,253.154 242.836,244.248Z" style="fill:rgb(203,203,203);stroke:black;stroke-width:0.42px;stroke-miterlimit:1.5;"/>
            <path id="Left-Cutout1" serif:id="Left Cutout" d="M130.214,196.374L76.334,196.374L76.334,88.614L130.214,88.614L130.214,34.734L291.854,34.734L291.854,88.614L184.094,88.614L184.094,250.254L130.214,250.254L130.214,196.374Z" style="fill:rgb(186,186,186);fill-rule:nonzero;stroke:black;stroke-width:1.44px;"/>
            <path d="M234.601,73.455L233.588,73.455L233.588,67.895L234.408,67.895C234.99,68.442 235.763,68.984 236.728,69.521C237.693,70.058 238.685,70.473 239.705,70.766C240.424,70.977 241.211,71.112 242.066,71.17L242.066,72.254C241.39,72.243 240.574,72.11 239.617,71.856C238.66,71.602 237.737,71.238 236.848,70.763C235.96,70.288 235.211,69.784 234.601,69.248L234.601,73.455Z" style="fill:rgb(0,54,255);fill-rule:nonzero;"/>
            <path d="M242.066,66.559L235.843,66.559L235.843,65.616L236.716,65.616C236.412,65.42 236.167,65.161 235.981,64.836C235.796,64.512 235.703,64.143 235.703,63.729C235.703,63.268 235.799,62.89 235.99,62.595C236.181,62.3 236.449,62.092 236.793,61.971C236.066,61.479 235.703,60.838 235.703,60.049C235.703,59.432 235.874,58.957 236.216,58.625C236.557,58.293 237.084,58.127 237.795,58.127L242.066,58.127L242.066,59.176L238.146,59.176C237.724,59.176 237.421,59.21 237.235,59.279C237.05,59.347 236.9,59.471 236.787,59.651C236.674,59.83 236.617,60.041 236.617,60.284C236.617,60.721 236.762,61.084 237.053,61.373C237.344,61.662 237.81,61.807 238.451,61.807L242.066,61.807L242.066,62.862L238.023,62.862C237.554,62.862 237.203,62.948 236.968,63.12C236.734,63.291 236.617,63.573 236.617,63.963C236.617,64.26 236.695,64.535 236.851,64.787C237.008,65.038 237.236,65.221 237.537,65.334C237.838,65.448 238.271,65.504 238.838,65.504L242.066,65.504L242.066,66.559Z" style="fill:rgb(0,54,255);fill-rule:nonzero;"/>
            <path d="M242.066,56.563L235.843,56.563L235.843,55.62L236.716,55.62C236.412,55.424 236.167,55.164 235.981,54.84C235.796,54.516 235.703,54.147 235.703,53.733C235.703,53.272 235.799,52.894 235.99,52.599C236.181,52.304 236.449,52.096 236.793,51.975C236.066,51.483 235.703,50.842 235.703,50.053C235.703,49.436 235.874,48.961 236.216,48.629C236.557,48.297 237.084,48.131 237.795,48.131L242.066,48.131L242.066,49.18L238.146,49.18C237.724,49.18 237.421,49.214 237.235,49.283C237.05,49.351 236.9,49.475 236.787,49.655C236.674,49.834 236.617,50.045 236.617,50.287C236.617,50.725 236.762,51.088 237.053,51.377C237.344,51.666 237.81,51.811 238.451,51.811L242.066,51.811L242.066,52.866L238.023,52.866C237.554,52.866 237.203,52.952 236.968,53.123C236.734,53.295 236.617,53.577 236.617,53.967C236.617,54.264 236.695,54.538 236.851,54.79C237.008,55.042 237.236,55.225 237.537,55.338C237.838,55.452 238.271,55.508 238.838,55.508L242.066,55.508L242.066,56.563Z" style="fill:rgb(0,54,255);fill-rule:nonzero;"/>
            <path d="M291.868,185.309L290.855,185.309L290.855,179.749L291.675,179.749C292.257,180.295 293.03,180.837 293.995,181.374C294.96,181.912 295.952,182.327 296.972,182.62C297.691,182.831 298.478,182.965 299.333,183.024L299.333,184.108C298.657,184.096 297.841,183.963 296.884,183.709C295.927,183.456 295.004,183.091 294.115,182.617C293.227,182.142 292.478,181.637 291.868,181.102L291.868,185.309Z" style="fill:rgb(0,54,255);fill-rule:nonzero;"/>
            <path d="M299.333,178.413L293.111,178.413L293.111,177.469L293.984,177.469C293.679,177.274 293.434,177.014 293.248,176.69C293.063,176.366 292.97,175.997 292.97,175.582C292.97,175.122 293.066,174.744 293.257,174.449C293.448,174.154 293.716,173.946 294.06,173.825C293.333,173.332 292.97,172.692 292.97,171.903C292.97,171.286 293.141,170.811 293.483,170.479C293.824,170.147 294.351,169.981 295.062,169.981L299.333,169.981L299.333,171.03L295.413,171.03C294.991,171.03 294.688,171.064 294.502,171.132C294.317,171.201 294.167,171.325 294.054,171.504C293.941,171.684 293.884,171.895 293.884,172.137C293.884,172.575 294.029,172.938 294.321,173.227C294.612,173.516 295.077,173.661 295.718,173.661L299.333,173.661L299.333,174.715L295.29,174.715C294.821,174.715 294.47,174.801 294.236,174.973C294.001,175.145 293.884,175.426 293.884,175.817C293.884,176.114 293.962,176.388 294.118,176.64C294.275,176.892 294.503,177.075 294.804,177.188C295.105,177.301 295.538,177.358 296.105,177.358L299.333,177.358L299.333,178.413Z" style="fill:rgb(0,54,255);fill-rule:nonzero;"/>
            <path d="M299.333,168.416L293.111,168.416L293.111,167.473L293.984,167.473C293.679,167.278 293.434,167.018 293.248,166.694C293.063,166.37 292.97,166 292.97,165.586C292.97,165.125 293.066,164.748 293.257,164.453C293.448,164.158 293.716,163.95 294.06,163.829C293.333,163.336 292.97,162.696 292.97,161.907C292.97,161.29 293.141,160.815 293.483,160.483C293.824,160.151 294.351,159.985 295.062,159.985L299.333,159.985L299.333,161.034L295.413,161.034C294.991,161.034 294.688,161.068 294.502,161.136C294.317,161.205 294.167,161.329 294.054,161.508C293.941,161.688 293.884,161.899 293.884,162.141C293.884,162.579 294.029,162.942 294.321,163.231C294.612,163.52 295.077,163.665 295.718,163.665L299.333,163.665L299.333,164.719L295.29,164.719C294.821,164.719 294.47,164.805 294.236,164.977C294.001,165.149 293.884,165.43 293.884,165.821C293.884,166.118 293.962,166.392 294.118,166.644C294.275,166.896 294.503,167.079 294.804,167.192C295.105,167.305 295.538,167.362 296.105,167.362L299.333,167.362L299.333,168.416Z" style="fill:rgb(0,54,255);fill-rule:nonzero;"/>
            <path d="M586.574,71.574L586.454,68.574L585.974,65.574L585.374,62.694L584.414,59.814L583.214,57.054L581.654,54.414L579.974,52.014L578.054,49.614L576.014,47.574L573.614,45.654L571.214,43.974L568.574,42.414L565.814,41.214L562.934,40.254L560.054,39.654L557.054,39.174L554.054,39.054L551.054,39.174L548.054,39.654L545.174,40.254L542.294,41.214L539.534,42.414L536.894,43.974L534.494,45.654L532.094,47.574L530.054,49.614L528.134,52.014L526.454,54.414L524.894,57.054L523.694,59.814L522.734,62.694L522.134,65.574L521.654,68.574L521.534,71.574L521.654,74.574L522.134,77.574L522.734,80.454L523.694,83.334L524.894,86.094L526.454,88.734L528.134,91.134L530.054,93.534L532.094,95.574L534.494,97.494L536.894,99.174L539.534,100.734L542.294,101.934L545.174,102.894L548.054,103.494L551.054,103.974L554.054,104.094L557.054,103.974L560.054,103.494L562.934,102.894L565.814,101.934L568.574,100.734L571.214,99.174L573.614,97.494L576.014,95.574L578.054,93.534L579.974,91.134L581.654,88.734L583.214,86.094L584.414,83.334L585.374,80.454L585.974,77.574L586.454,74.574L586.574,71.574Z" style="fill:rgb(159,159,159);fill-rule:nonzero;stroke:black;stroke-width:1.44px;stroke-linejoin:bevel;"/>
            <path d="M586.574,213.414L586.454,210.414L585.974,207.414L585.374,204.534L584.414,201.654L583.214,198.894L581.654,196.254L579.974,193.854L578.054,191.454L576.014,189.414L573.614,187.494L571.214,185.814L568.574,184.254L565.814,183.054L562.934,182.094L560.054,181.494L557.054,181.014L554.054,180.894L551.054,181.014L548.054,181.494L545.174,182.094L542.294,183.054L539.534,184.254L536.894,185.814L534.494,187.494L532.094,189.414L530.054,191.454L528.134,193.854L526.454,196.254L524.894,198.894L523.694,201.654L522.734,204.534L522.134,207.414L521.654,210.414L521.534,213.414L521.654,216.414L522.134,219.414L522.734,222.294L523.694,225.174L524.894,227.934L526.454,230.574L528.134,232.974L530.054,235.374L532.094,237.414L534.494,239.334L536.894,241.014L539.534,242.574L542.294,243.774L545.174,244.734L548.054,245.334L551.054,245.814L554.054,245.934L557.054,245.814L560.054,245.334L562.934,244.734L565.814,243.774L568.574,242.574L571.214,241.014L573.614,239.334L576.014,237.414L578.054,235.374L579.974,232.974L581.654,230.574L583.214,227.934L584.414,225.174L585.374,222.294L585.974,219.414L586.454,216.414L586.574,213.414Z" style="fill:rgb(159,159,159);fill-rule:nonzero;stroke:black;stroke-width:1.44px;stroke-linejoin:bevel;"/>
            <path d="M586.574,142.494L586.454,139.494L585.974,136.494L585.374,133.614L584.414,130.734L583.214,127.974L581.654,125.334L579.974,122.934L578.054,120.534L576.014,118.494L573.614,116.574L571.214,114.894L568.574,113.334L565.814,112.134L562.934,111.174L560.054,110.574L557.054,110.094L554.054,109.974L551.054,110.094L548.054,110.574L545.174,111.174L542.294,112.134L539.534,113.334L536.894,114.894L534.494,116.574L532.094,118.494L530.054,120.534L528.134,122.934L526.454,125.334L524.894,127.974L523.694,130.734L522.734,133.614L522.134,136.494L521.654,139.494L521.534,142.494L521.654,145.494L522.134,148.494L522.734,151.374L523.694,154.254L524.894,157.014L526.454,159.654L528.134,162.054L530.054,164.454L532.094,166.494L534.494,168.414L536.894,170.094L539.534,171.654L542.294,172.854L545.174,173.814L548.054,174.414L551.054,174.894L554.054,175.014L557.054,174.894L560.054,174.414L562.934,173.814L565.814,172.854L568.574,171.654L571.214,170.094L573.614,168.414L576.014,166.494L578.054,164.454L579.974,162.054L581.654,159.654L583.214,157.014L584.414,154.254L585.374,151.374L585.974,148.494L586.454,145.494L586.574,142.494Z" style="fill:rgb(159,159,159);fill-rule:nonzero;stroke:black;stroke-width:1.44px;stroke-linejoin:bevel;"/>
            <path d="M345.734,34.734L507.254,34.734L507.254,250.254L453.374,250.254L453.374,88.614L345.734,88.614L345.734,34.734Z" style="fill:rgb(183,183,183);fill-rule:nonzero;stroke:black;stroke-width:1.44px;"/>
            <path d="M379.454,226.134L379.334,225.174L378.974,224.214L378.374,223.374L377.654,222.654L376.694,222.174L375.734,221.934L374.774,221.934L373.814,222.174L372.854,222.654L372.134,223.374L371.534,224.214L371.174,225.174L371.054,226.134L371.174,227.094L371.534,228.054L372.134,228.894L372.854,229.614L373.814,230.094L374.774,230.334L375.734,230.334L376.694,230.094L377.654,229.614L378.374,228.894L378.974,228.054L379.334,227.094L379.454,226.134Z" style="fill:rgb(96,96,96);fill-rule:nonzero;stroke:black;stroke-width:1.44px;stroke-linejoin:bevel;"/>
            <path d="M266.534,226.134L266.414,225.174L266.054,224.214L265.454,223.374L264.734,222.654L263.774,222.174L262.814,221.934L261.854,221.934L260.894,222.174L259.934,222.654L259.214,223.374L258.614,224.214L258.254,225.174L258.134,226.134L258.254,227.094L258.614,228.054L259.214,228.894L259.934,229.614L260.894,230.094L261.854,230.334L262.814,230.334L263.774,230.094L264.734,229.614L265.454,228.894L266.054,228.054L266.414,227.094L266.534,226.134Z" style="fill:rgb(96,96,96);fill-rule:nonzero;stroke:black;stroke-width:1.44px;stroke-linejoin:bevel;"/>
            <path d="M322.934,128.334L322.814,127.374L322.454,126.414L321.854,125.574L321.134,124.854L320.174,124.374L319.214,124.134L318.254,124.134L317.294,124.374L316.334,124.854L315.614,125.574L315.014,126.414L314.654,127.374L314.534,128.334L314.654,129.294L315.014,130.254L315.614,131.094L316.334,131.814L317.294,132.294L318.254,132.534L319.214,132.534L320.174,132.294L321.134,131.814L321.854,131.094L322.454,130.254L322.814,129.294L322.934,128.334Z" style="fill:rgb(96,96,96);fill-rule:nonzero;stroke:black;stroke-width:1.44px;stroke-linejoin:bevel;"/>
            <path d="M563.894,142.494L563.774,140.934L563.414,139.254L562.694,137.814L561.854,136.494L560.774,135.294L559.454,134.214L558.014,133.494L556.454,133.014L554.894,132.654L553.214,132.654L551.654,133.014L550.094,133.494L548.654,134.214L547.334,135.294L546.254,136.494L545.414,137.814L544.694,139.254L544.334,140.934L544.214,142.494L544.334,144.054L544.694,145.734L545.414,147.174L546.254,148.494L547.334,149.694L548.654,150.774L550.094,151.494L551.654,151.974L553.214,152.334L554.894,152.334L556.454,151.974L558.014,151.494L559.454,150.774L560.774,149.694L561.854,148.494L562.694,147.174L563.414,145.734L563.774,144.054L563.894,142.494Z" style="fill:rgb(60,60,60);fill-rule:nonzero;stroke:black;stroke-width:1.44px;stroke-linejoin:bevel;"/>
            <path d="M563.894,213.414L563.774,211.854L563.414,210.174L562.694,208.734L561.854,207.414L560.774,206.214L559.454,205.134L558.014,204.414L556.454,203.934L554.894,203.574L553.214,203.574L551.654,203.934L550.094,204.414L548.654,205.134L547.334,206.214L546.254,207.414L545.414,208.734L544.694,210.174L544.334,211.854L544.214,213.414L544.334,214.974L544.694,216.654L545.414,218.094L546.254,219.414L547.334,220.614L548.654,221.694L550.094,222.414L551.654,222.894L553.214,223.254L554.894,223.254L556.454,222.894L558.014,222.414L559.454,221.694L560.774,220.614L561.854,219.414L562.694,218.094L563.414,216.654L563.774,214.974L563.894,213.414Z" style="fill:rgb(60,60,60);fill-rule:nonzero;stroke:black;stroke-width:1.44px;stroke-linejoin:bevel;"/>
            <path d="M563.894,71.574L563.774,70.014L563.414,68.334L562.694,66.894L561.854,65.574L560.774,64.374L559.454,63.294L558.014,62.574L556.454,62.094L554.894,61.734L553.214,61.734L551.654,62.094L550.094,62.574L548.654,63.294L547.334,64.374L546.254,65.574L545.414,66.894L544.694,68.334L544.334,70.014L544.214,71.574L544.334,73.134L544.694,74.814L545.414,76.254L546.254,77.574L547.334,78.774L548.654,79.854L550.094,80.574L551.654,81.054L553.214,81.414L554.894,81.414L556.454,81.054L558.014,80.574L559.454,79.854L560.774,78.774L561.854,77.574L562.694,76.254L563.414,74.814L563.774,73.134L563.894,71.574Z" style="fill:rgb(60,60,60);fill-rule:nonzero;stroke:black;stroke-width:1.44px;stroke-linejoin:bevel;"/>
            <path d="M328.574,193.494L328.454,191.934L328.094,190.254L327.374,188.814L326.534,187.494L325.454,186.294L324.134,185.214L322.694,184.494L321.134,184.014L319.574,183.654L317.894,183.654L316.334,184.014L314.774,184.494L313.334,185.214L312.014,186.294L310.934,187.494L310.094,188.814L309.374,190.254L309.014,191.934L308.894,193.494L309.014,195.054L309.374,196.734L310.094,198.174L310.934,199.494L312.014,200.694L313.334,201.774L314.774,202.494L316.334,202.974L317.894,203.334L319.574,203.334L321.134,202.974L322.694,202.494L324.134,201.774L325.454,200.694L326.534,199.494L327.374,198.174L328.094,196.734L328.454,195.054L328.574,193.494Z" style="fill:rgb(103,103,103);fill-rule:nonzero;stroke:black;stroke-width:1.44px;stroke-linejoin:bevel;"/>
            <rect x="245.054" y="41.814" width="39.72" height="39.72" style="fill:rgb(118,118,118);stroke:black;stroke-width:1.44px;"/>
            <path d="M177.014,149.574L177.014,189.294L137.294,189.294L137.294,149.574L177.014,149.574Z" style="fill:rgb(118,118,118);stroke:black;stroke-width:1.44px;"/>
            <rect x="137.294" y="95.694" width="39.72" height="39.72" style="fill:rgb(118,118,118);stroke:black;stroke-width:1.44px;"/>
            <rect x="83.414" y="149.574" width="39.72" height="39.72" style="fill:rgb(118,118,118);stroke:black;stroke-width:1.44px;"/>
            <path d="M177.014,41.814L177.014,81.534L137.294,81.534L137.294,41.814L177.014,41.814Z" style="fill:rgb(118,118,118);stroke:black;stroke-width:1.44px;"/>
            <path d="M177.014,203.454L177.014,243.174L137.294,243.174L137.294,203.454L177.014,203.454Z" style="fill:rgb(118,118,118);stroke:black;stroke-width:1.44px;"/>
            <path d="M230.894,41.814L230.894,81.534L191.174,81.534L191.174,41.814L230.894,41.814Z" style="fill:rgb(118,118,118);stroke:black;stroke-width:1.44px;"/>
            <path d="M123.134,95.694L123.134,135.414L83.414,135.414L83.414,95.694L123.134,95.694Z" style="fill:rgb(118,118,118);stroke:black;stroke-width:1.44px;"/>
            <path d="M266.191,68.232L258.615,68.232L258.615,71.062L257.602,71.062L257.602,64.253L258.615,64.253L258.615,67.095L266.191,67.095L266.191,68.232Z" style="fill:rgb(0,54,255);fill-rule:nonzero;"/>
            <path d="M266.191,63.222L257.602,63.222L257.602,62.167L260.684,62.167C260.113,61.675 259.828,61.054 259.828,60.304C259.828,59.843 259.919,59.443 260.101,59.103C260.282,58.763 260.533,58.52 260.854,58.374C261.174,58.227 261.639,58.154 262.248,58.154L266.191,58.154L266.191,59.208L262.248,59.208C261.721,59.208 261.337,59.323 261.097,59.551C260.856,59.78 260.736,60.103 260.736,60.521C260.736,60.833 260.817,61.127 260.979,61.403C261.142,61.678 261.361,61.874 261.639,61.992C261.916,62.109 262.299,62.167 262.787,62.167L266.191,62.167L266.191,63.222Z" style="fill:rgb(0,54,255);fill-rule:nonzero;"/>
            <path d="M266.191,56.56L259.969,56.56L259.969,55.611L260.912,55.611C260.471,55.369 260.18,55.145 260.039,54.94C259.898,54.735 259.828,54.509 259.828,54.263C259.828,53.908 259.941,53.546 260.168,53.179L261.146,53.542C260.994,53.8 260.918,54.058 260.918,54.316C260.918,54.546 260.987,54.753 261.126,54.937C261.265,55.121 261.457,55.251 261.703,55.33C262.078,55.447 262.488,55.505 262.934,55.505L266.191,55.505L266.191,56.56Z" style="fill:rgb(0,54,255);fill-rule:nonzero;"/>
            <path d="M170.665,69.694L163.089,69.694L163.089,72.524L162.075,72.524L162.075,65.716L163.089,65.716L163.089,68.557L170.665,68.557L170.665,69.694Z" style="fill:rgb(0,54,255);fill-rule:nonzero;"/>
            <path d="M170.665,64.684L162.075,64.684L162.075,63.63L165.157,63.63C164.587,63.137 164.302,62.516 164.302,61.766C164.302,61.305 164.393,60.905 164.574,60.565C164.756,60.225 165.007,59.982 165.327,59.836C165.647,59.689 166.112,59.616 166.722,59.616L170.665,59.616L170.665,60.671L166.722,60.671C166.194,60.671 165.811,60.785 165.57,61.013C165.33,61.242 165.21,61.565 165.21,61.983C165.21,62.296 165.291,62.59 165.453,62.865C165.615,63.14 165.835,63.337 166.112,63.454C166.39,63.571 166.772,63.63 167.261,63.63L170.665,63.63L170.665,64.684Z" style="fill:rgb(0,54,255);fill-rule:nonzero;"/>
            <path d="M170.665,58.022L164.442,58.022L164.442,57.073L165.386,57.073C164.944,56.831 164.653,56.607 164.513,56.402C164.372,56.197 164.302,55.971 164.302,55.725C164.302,55.37 164.415,55.008 164.642,54.641L165.62,55.005C165.468,55.262 165.392,55.52 165.392,55.778C165.392,56.008 165.461,56.216 165.6,56.399C165.738,56.583 165.931,56.714 166.177,56.792C166.552,56.909 166.962,56.967 167.407,56.967L170.665,56.967L170.665,58.022Z" style="fill:rgb(0,54,255);fill-rule:nonzero;"/>
            <path d="M164.816,121.844L157.24,121.844L157.24,124.674L156.227,124.674L156.227,117.865L157.24,117.865L157.24,120.707L164.816,120.707L164.816,121.844Z" style="fill:rgb(0,54,255);fill-rule:nonzero;"/>
            <path d="M164.816,116.834L156.227,116.834L156.227,115.779L159.309,115.779C158.738,115.287 158.453,114.666 158.453,113.916C158.453,113.455 158.544,113.055 158.726,112.715C158.907,112.375 159.158,112.132 159.479,111.985C159.799,111.839 160.264,111.766 160.873,111.766L164.816,111.766L164.816,112.82L160.873,112.82C160.346,112.82 159.962,112.934 159.722,113.163C159.481,113.392 159.361,113.715 159.361,114.133C159.361,114.445 159.442,114.739 159.605,115.015C159.767,115.29 159.986,115.486 160.264,115.603C160.541,115.721 160.924,115.779 161.412,115.779L164.816,115.779L164.816,116.834Z" style="fill:rgb(0,54,255);fill-rule:nonzero;"/>
            <path d="M164.816,110.172L158.594,110.172L158.594,109.223L159.537,109.223C159.096,108.98 158.805,108.757 158.664,108.552C158.523,108.347 158.453,108.121 158.453,107.875C158.453,107.519 158.566,107.158 158.793,106.791L159.772,107.154C159.619,107.412 159.543,107.67 159.543,107.928C159.543,108.158 159.612,108.365 159.751,108.549C159.89,108.732 160.082,108.863 160.328,108.941C160.703,109.058 161.113,109.117 161.559,109.117L164.816,109.117L164.816,110.172Z" style="fill:rgb(0,54,255);fill-rule:nonzero;"/>
            <path d="M109.986,123.793L102.41,123.793L102.41,126.623L101.396,126.623L101.396,119.815L102.41,119.815L102.41,122.656L109.986,122.656L109.986,123.793Z" style="fill:rgb(0,54,255);fill-rule:nonzero;"/>
            <path d="M109.986,118.783L101.396,118.783L101.396,117.729L104.478,117.729C103.908,117.237 103.623,116.615 103.623,115.865C103.623,115.404 103.714,115.004 103.895,114.664C104.077,114.324 104.328,114.081 104.648,113.935C104.969,113.788 105.434,113.715 106.043,113.715L109.986,113.715L109.986,114.77L106.043,114.77C105.516,114.77 105.132,114.884 104.892,115.113C104.651,115.341 104.531,115.664 104.531,116.082C104.531,116.395 104.612,116.689 104.774,116.964C104.936,117.239 105.156,117.436 105.434,117.553C105.711,117.67 106.094,117.729 106.582,117.729L109.986,117.729L109.986,118.783Z" style="fill:rgb(0,54,255);fill-rule:nonzero;"/>
            <path d="M109.986,112.121L103.764,112.121L103.764,111.172L104.707,111.172C104.266,110.93 103.975,110.706 103.834,110.501C103.693,110.296 103.623,110.071 103.623,109.824C103.623,109.469 103.736,109.108 103.963,108.74L104.941,109.104C104.789,109.362 104.713,109.619 104.713,109.877C104.713,110.108 104.782,110.315 104.921,110.498C105.059,110.682 105.252,110.813 105.498,110.891C105.873,111.008 106.283,111.067 106.728,111.067L109.986,111.067L109.986,112.121Z" style="fill:rgb(0,54,255);fill-rule:nonzero;"/>
            <path d="M160.917,173.993L153.341,173.993L153.341,176.823L152.328,176.823L152.328,170.015L153.341,170.015L153.341,172.857L160.917,172.857L160.917,173.993Z" style="fill:rgb(0,54,255);fill-rule:nonzero;"/>
            <path d="M160.917,168.983L152.328,168.983L152.328,167.929L155.41,167.929C154.839,167.437 154.554,166.816 154.554,166.066C154.554,165.605 154.645,165.204 154.827,164.864C155.008,164.525 155.259,164.281 155.58,164.135C155.9,163.988 156.365,163.915 156.974,163.915L160.917,163.915L160.917,164.97L156.974,164.97C156.447,164.97 156.063,165.084 155.823,165.313C155.582,165.541 155.462,165.864 155.462,166.282C155.462,166.595 155.543,166.889 155.706,167.164C155.868,167.44 156.087,167.636 156.365,167.753C156.642,167.87 157.025,167.929 157.513,167.929L160.917,167.929L160.917,168.983Z" style="fill:rgb(0,54,255);fill-rule:nonzero;"/>
            <path d="M160.917,162.321L154.695,162.321L154.695,161.372L155.638,161.372C155.197,161.13 154.906,160.906 154.765,160.701C154.624,160.496 154.554,160.271 154.554,160.025C154.554,159.669 154.667,159.308 154.894,158.941L155.872,159.304C155.72,159.562 155.644,159.819 155.644,160.077C155.644,160.308 155.713,160.515 155.852,160.698C155.991,160.882 156.183,161.013 156.429,161.091C156.804,161.208 157.214,161.267 157.66,161.267L160.917,161.267L160.917,162.321Z" style="fill:rgb(0,54,255);fill-rule:nonzero;"/>
            <path d="M103.407,173.75L95.83,173.75L95.83,176.58L94.817,176.58L94.817,169.771L95.83,169.771L95.83,172.613L103.407,172.613L103.407,173.75Z" style="fill:rgb(0,54,255);fill-rule:nonzero;"/>
            <path d="M103.407,168.74L94.817,168.74L94.817,167.685L97.899,167.685C97.329,167.193 97.043,166.572 97.043,165.822C97.043,165.361 97.134,164.961 97.316,164.621C97.497,164.281 97.748,164.038 98.069,163.891C98.389,163.745 98.854,163.671 99.463,163.671L103.407,163.671L103.407,164.726L99.463,164.726C98.936,164.726 98.552,164.84 98.312,165.069C98.072,165.297 97.952,165.621 97.952,166.039C97.952,166.351 98.033,166.645 98.195,166.92C98.357,167.196 98.577,167.392 98.854,167.509C99.131,167.627 99.514,167.685 100.002,167.685L103.407,167.685L103.407,168.74Z" style="fill:rgb(0,54,255);fill-rule:nonzero;"/>
            <path d="M103.407,162.078L97.184,162.078L97.184,161.128L98.127,161.128C97.686,160.886 97.395,160.663 97.254,160.458C97.114,160.253 97.043,160.027 97.043,159.781C97.043,159.425 97.157,159.064 97.383,158.697L98.362,159.06C98.209,159.318 98.133,159.576 98.133,159.834C98.133,160.064 98.203,160.271 98.341,160.455C98.48,160.638 98.672,160.769 98.918,160.847C99.293,160.964 99.704,161.023 100.149,161.023L103.407,161.023L103.407,162.078Z" style="fill:rgb(0,54,255);fill-rule:nonzero;"/>
            <path d="M160.917,230.783L153.341,230.783L153.341,233.613L152.328,233.613L152.328,226.804L153.341,226.804L153.341,229.646L160.917,229.646L160.917,230.783Z" style="fill:rgb(0,54,255);fill-rule:nonzero;"/>
            <path d="M160.917,225.773L152.328,225.773L152.328,224.718L155.41,224.718C154.839,224.226 154.554,223.605 154.554,222.855C154.554,222.394 154.645,221.994 154.827,221.654C155.008,221.314 155.259,221.071 155.58,220.924C155.9,220.778 156.365,220.705 156.974,220.705L160.917,220.705L160.917,221.759L156.974,221.759C156.447,221.759 156.063,221.874 155.823,222.102C155.582,222.331 155.462,222.654 155.462,223.072C155.462,223.384 155.543,223.678 155.706,223.954C155.868,224.229 156.087,224.425 156.365,224.542C156.642,224.66 157.025,224.718 157.513,224.718L160.917,224.718L160.917,225.773Z" style="fill:rgb(0,54,255);fill-rule:nonzero;"/>
            <path d="M160.917,219.111L154.695,219.111L154.695,218.162L155.638,218.162C155.197,217.919 154.906,217.696 154.765,217.491C154.624,217.286 154.554,217.06 154.554,216.814C154.554,216.459 154.667,216.097 154.894,215.73L155.872,216.093C155.72,216.351 155.644,216.609 155.644,216.867C155.644,217.097 155.713,217.304 155.852,217.488C155.991,217.671 156.183,217.802 156.429,217.88C156.804,217.998 157.214,218.056 157.66,218.056L160.917,218.056L160.917,219.111Z" style="fill:rgb(0,54,255);fill-rule:nonzero;"/>
            <path d="M500.174,189.294L500.174,149.574L460.454,149.574L460.454,189.294L500.174,189.294Z" style="fill:rgb(108,108,108);stroke:black;stroke-width:1.44px;"/>
            <path d="M500.174,203.454L500.174,243.174L460.454,243.174L460.454,203.454L500.174,203.454Z" style="fill:rgb(108,108,108);stroke:black;stroke-width:1.44px;"/>
            <rect x="460.454" y="95.694" width="39.72" height="39.72" style="fill:rgb(108,108,108);stroke:black;stroke-width:1.44px;"/>
            <rect x="406.694" y="41.814" width="39.6" height="39.72" style="fill:rgb(108,108,108);stroke:black;stroke-width:1.44px;"/>
            <rect x="352.814" y="41.814" width="39.6" height="39.72" style="fill:rgb(108,108,108);stroke:black;stroke-width:1.44px;"/>
            <path d="M500.174,81.534L500.174,41.814L460.454,41.814L460.454,81.534L500.174,81.534Z" style="fill:rgb(108,108,108);stroke:black;stroke-width:1.44px;"/>
            <path d="M324.592,2.575L323.379,2.575L323.379,-5.154C323.087,-4.876 322.705,-4.597 322.231,-4.319C321.757,-4.04 321.331,-3.831 320.954,-3.692L320.954,-4.865C321.632,-5.183 322.225,-5.57 322.733,-6.023C323.24,-6.477 323.6,-6.917 323.811,-7.344L324.592,-7.344L324.592,2.575Z" style="fill:rgb(0,45,255);fill-rule:nonzero;"/>
            <path d="M327.865,0.29L329.03,0.182C329.129,0.73 329.318,1.128 329.596,1.375C329.875,1.622 330.232,1.746 330.668,1.746C331.041,1.746 331.367,1.66 331.648,1.49C331.929,1.319 332.159,1.091 332.339,0.806C332.519,0.52 332.669,0.135 332.79,-0.35C332.912,-0.835 332.972,-1.329 332.972,-1.832C332.972,-1.886 332.97,-1.967 332.966,-2.075C332.723,-1.689 332.392,-1.375 331.972,-1.135C331.552,-0.895 331.097,-0.774 330.607,-0.774C329.79,-0.774 329.098,-1.071 328.532,-1.664C327.966,-2.257 327.683,-3.038 327.683,-4.009C327.683,-5.011 327.978,-5.817 328.569,-6.428C329.16,-7.039 329.9,-7.344 330.789,-7.344C331.431,-7.344 332.019,-7.171 332.551,-6.825C333.083,-6.479 333.488,-5.986 333.764,-5.346C334.04,-4.706 334.178,-3.78 334.178,-2.567C334.178,-1.304 334.041,-0.299 333.767,0.449C333.493,1.197 333.086,1.766 332.544,2.157C332.003,2.548 331.369,2.743 330.641,2.743C329.868,2.743 329.237,2.528 328.747,2.099C328.258,1.67 327.964,1.067 327.865,0.29ZM332.831,-4.069C332.831,-4.766 332.645,-5.318 332.275,-5.727C331.904,-6.136 331.458,-6.34 330.937,-6.34C330.398,-6.34 329.929,-6.12 329.529,-5.68C329.129,-5.24 328.929,-4.669 328.929,-3.968C328.929,-3.339 329.119,-2.828 329.499,-2.435C329.878,-2.042 330.347,-1.846 330.904,-1.846C331.465,-1.846 331.927,-2.042 332.288,-2.435C332.65,-2.828 332.831,-3.373 332.831,-4.069Z" style="fill:rgb(0,45,255);fill-rule:nonzero;"/>
            <path d="M335.342,-2.297C335.342,-3.465 335.462,-4.405 335.702,-5.117C335.943,-5.829 336.3,-6.378 336.774,-6.765C337.248,-7.151 337.844,-7.344 338.563,-7.344C339.093,-7.344 339.558,-7.237 339.957,-7.024C340.357,-6.811 340.687,-6.503 340.948,-6.101C341.208,-5.699 341.413,-5.209 341.561,-4.632C341.709,-4.055 341.783,-3.277 341.783,-2.297C341.783,-1.138 341.664,-0.203 341.426,0.509C341.188,1.221 340.832,1.772 340.358,2.16C339.884,2.549 339.286,2.743 338.563,2.743C337.61,2.743 336.862,2.402 336.319,1.719C335.667,0.897 335.342,-0.442 335.342,-2.297ZM336.588,-2.297C336.588,-0.676 336.778,0.404 337.158,0.94C337.537,1.477 338.006,1.746 338.563,1.746C339.12,1.746 339.588,1.476 339.968,0.937C340.347,0.398 340.537,-0.68 340.537,-2.297C340.537,-3.923 340.347,-5.004 339.968,-5.538C339.588,-6.073 339.115,-6.34 338.549,-6.34C337.992,-6.34 337.547,-6.104 337.215,-5.633C336.797,-5.031 336.588,-3.919 336.588,-2.297Z" style="fill:rgb(0,45,255);fill-rule:nonzero;"/>
            <path d="M655.493,147.736C655.309,148.24 655.046,148.612 654.705,148.855C654.363,149.098 653.954,149.219 653.478,149.219C652.76,149.219 652.155,148.961 651.666,148.444C651.176,147.927 650.931,147.24 650.931,146.382C650.931,145.52 651.182,144.825 651.683,144.3C652.183,143.774 652.793,143.512 653.512,143.512C653.97,143.512 654.369,143.632 654.708,143.872C655.047,144.112 655.309,144.477 655.493,144.967C655.691,144.361 656.01,143.899 656.45,143.582C656.89,143.266 657.416,143.107 658.027,143.107C658.871,143.107 659.581,143.406 660.156,144.003C660.731,144.601 661.018,145.387 661.018,146.362C661.018,147.337 660.73,148.123 660.152,148.72C659.575,149.318 658.855,149.616 657.993,149.616C657.351,149.616 656.813,149.454 656.379,149.128C655.946,148.802 655.65,148.338 655.493,147.736ZM653.438,147.979C653.905,147.979 654.287,147.828 654.583,147.528C654.88,147.227 655.028,146.836 655.028,146.355C655.028,145.888 654.881,145.505 654.587,145.206C654.292,144.907 653.932,144.758 653.505,144.758C653.061,144.758 652.687,144.912 652.383,145.22C652.08,145.527 651.928,145.91 651.928,146.369C651.928,146.831 652.077,147.215 652.373,147.521C652.67,147.826 653.025,147.979 653.438,147.979ZM658,148.37C658.346,148.37 658.68,148.288 659.004,148.124C659.327,147.96 659.578,147.716 659.755,147.393C659.932,147.069 660.021,146.721 660.021,146.348C660.021,145.769 659.835,145.29 659.462,144.913C659.089,144.536 658.615,144.347 658.04,144.347C657.456,144.347 656.973,144.541 656.591,144.93C656.21,145.318 656.019,145.805 656.019,146.389C656.019,146.959 656.207,147.432 656.585,147.807C656.962,148.182 657.434,148.37 658,148.37Z" style="fill:rgb(0,21,255);fill-rule:nonzero;"/>
            <path d="M653.391,135.581L653.485,136.788C653.009,136.895 652.663,137.048 652.447,137.246C652.101,137.574 651.928,137.978 651.928,138.459C651.928,138.845 652.036,139.184 652.252,139.476C652.53,139.858 652.937,140.159 653.472,140.379C654.006,140.599 654.768,140.714 655.756,140.723C655.311,140.431 654.981,140.074 654.765,139.651C654.55,139.229 654.442,138.787 654.442,138.324C654.442,137.515 654.739,136.827 655.335,136.259C655.93,135.69 656.699,135.406 657.643,135.406C658.262,135.406 658.839,135.54 659.371,135.807C659.903,136.074 660.311,136.442 660.594,136.909C660.877,137.376 661.018,137.906 661.018,138.499C661.018,139.51 660.647,140.334 659.903,140.972C659.16,141.61 657.934,141.929 656.227,141.929C654.318,141.929 652.93,141.576 652.063,140.871C651.309,140.256 650.931,139.427 650.931,138.385C650.931,137.607 651.149,136.971 651.585,136.474C652.021,135.978 652.623,135.68 653.391,135.581ZM657.649,140.534C658.067,140.534 658.467,140.445 658.849,140.268C659.23,140.09 659.521,139.842 659.721,139.523C659.921,139.204 660.021,138.87 660.021,138.519C660.021,138.007 659.814,137.567 659.401,137.199C658.988,136.83 658.426,136.646 657.717,136.646C657.034,136.646 656.496,136.828 656.103,137.192C655.71,137.556 655.513,138.014 655.513,138.566C655.513,139.115 655.71,139.579 656.103,139.961C656.496,140.343 657.011,140.534 657.649,140.534Z" style="fill:rgb(0,21,255);fill-rule:nonzero;"/>
            <path d="M397.061,74.793L396.047,74.793L396.047,69.232L396.868,69.232C397.45,69.779 398.223,70.321 399.188,70.858C400.153,71.395 401.145,71.81 402.165,72.103C402.883,72.314 403.67,72.449 404.526,72.507L404.526,73.591C403.85,73.58 403.034,73.447 402.077,73.193C401.12,72.939 400.197,72.575 399.308,72.1C398.419,71.626 397.67,71.121 397.061,70.586L397.061,74.793Z" style="fill:rgb(0,54,255);fill-rule:nonzero;"/>
            <path d="M404.526,67.896L398.303,67.896L398.303,66.953L399.176,66.953C398.872,66.757 398.627,66.498 398.441,66.173C398.255,65.849 398.163,65.48 398.163,65.066C398.163,64.605 398.258,64.227 398.45,63.932C398.641,63.637 398.909,63.429 399.252,63.308C398.526,62.816 398.163,62.175 398.163,61.386C398.163,60.769 398.334,60.295 398.675,59.962C399.017,59.63 399.544,59.464 400.254,59.464L404.526,59.464L404.526,60.513L400.606,60.513C400.184,60.513 399.88,60.547 399.695,60.616C399.509,60.684 399.36,60.808 399.247,60.988C399.133,61.168 399.077,61.379 399.077,61.621C399.077,62.058 399.222,62.421 399.513,62.711C399.804,63 400.27,63.144 400.911,63.144L404.526,63.144L404.526,64.199L400.483,64.199C400.014,64.199 399.663,64.285 399.428,64.457C399.194,64.629 399.077,64.91 399.077,65.3C399.077,65.597 399.155,65.872 399.311,66.124C399.467,66.376 399.696,66.558 399.997,66.671C400.297,66.785 400.731,66.841 401.297,66.841L404.526,66.841L404.526,67.896Z" style="fill:rgb(0,54,255);fill-rule:nonzero;"/>
            <path d="M404.526,57.9L398.303,57.9L398.303,56.957L399.176,56.957C398.872,56.761 398.627,56.502 398.441,56.177C398.255,55.853 398.163,55.484 398.163,55.07C398.163,54.609 398.258,54.231 398.45,53.936C398.641,53.641 398.909,53.433 399.252,53.312C398.526,52.82 398.163,52.179 398.163,51.39C398.163,50.773 398.334,50.298 398.675,49.966C399.017,49.634 399.544,49.468 400.254,49.468L404.526,49.468L404.526,50.517L400.606,50.517C400.184,50.517 399.88,50.551 399.695,50.62C399.509,50.688 399.36,50.812 399.247,50.992C399.133,51.171 399.077,51.382 399.077,51.625C399.077,52.062 399.222,52.425 399.513,52.714C399.804,53.004 400.27,53.148 400.911,53.148L404.526,53.148L404.526,54.203L400.483,54.203C400.014,54.203 399.663,54.289 399.428,54.461C399.194,54.632 399.077,54.914 399.077,55.304C399.077,55.601 399.155,55.876 399.311,56.128C399.467,56.379 399.696,56.562 399.997,56.675C400.297,56.789 400.731,56.845 401.297,56.845L404.526,56.845L404.526,57.9Z" style="fill:rgb(0,54,255);fill-rule:nonzero;"/>
            <path d="M569.215,83.818L568.201,83.818L568.201,78.258L569.022,78.258C569.604,78.804 570.377,79.346 571.342,79.884C572.307,80.421 573.299,80.836 574.319,81.129C575.037,81.34 575.824,81.474 576.68,81.533L576.68,82.617C576.004,82.605 575.188,82.472 574.231,82.219C573.274,81.965 572.351,81.6 571.462,81.126C570.573,80.651 569.824,80.146 569.215,79.611L569.215,83.818Z" style="fill:rgb(0,54,255);fill-rule:nonzero;"/>
            <path d="M576.68,76.922L570.457,76.922L570.457,75.978L571.33,75.978C571.026,75.783 570.78,75.523 570.595,75.199C570.409,74.875 570.317,74.506 570.317,74.092C570.317,73.631 570.412,73.253 570.604,72.958C570.795,72.663 571.063,72.455 571.406,72.334C570.68,71.842 570.317,71.201 570.317,70.412C570.317,69.795 570.487,69.32 570.829,68.988C571.171,68.656 571.697,68.49 572.408,68.49L576.68,68.49L576.68,69.539L572.76,69.539C572.338,69.539 572.034,69.573 571.849,69.641C571.663,69.71 571.514,69.834 571.401,70.013C571.287,70.193 571.231,70.404 571.231,70.646C571.231,71.084 571.376,71.447 571.667,71.736C571.958,72.025 572.424,72.17 573.065,72.17L576.68,72.17L576.68,73.224L572.637,73.224C572.168,73.224 571.817,73.31 571.582,73.482C571.348,73.654 571.231,73.935 571.231,74.326C571.231,74.623 571.309,74.897 571.465,75.149C571.621,75.401 571.85,75.584 572.151,75.697C572.451,75.81 572.885,75.867 573.451,75.867L576.68,75.867L576.68,76.922Z" style="fill:rgb(0,54,255);fill-rule:nonzero;"/>
            <path d="M576.68,66.926L570.457,66.926L570.457,65.982L571.33,65.982C571.026,65.787 570.78,65.527 570.595,65.203C570.409,64.879 570.317,64.51 570.317,64.095C570.317,63.635 570.412,63.257 570.604,62.962C570.795,62.667 571.063,62.459 571.406,62.338C570.68,61.845 570.317,61.205 570.317,60.416C570.317,59.799 570.487,59.324 570.829,58.992C571.171,58.66 571.697,58.494 572.408,58.494L576.68,58.494L576.68,59.543L572.76,59.543C572.338,59.543 572.034,59.577 571.849,59.645C571.663,59.714 571.514,59.838 571.401,60.017C571.287,60.197 571.231,60.408 571.231,60.65C571.231,61.088 571.376,61.451 571.667,61.74C571.958,62.029 572.424,62.174 573.065,62.174L576.68,62.174L576.68,63.228L572.637,63.228C572.168,63.228 571.817,63.314 571.582,63.486C571.348,63.658 571.231,63.939 571.231,64.33C571.231,64.627 571.309,64.901 571.465,65.153C571.621,65.405 571.85,65.588 572.151,65.701C572.451,65.814 572.885,65.871 573.451,65.871L576.68,65.871L576.68,66.926Z" style="fill:rgb(0,54,255);fill-rule:nonzero;"/>
            <path d="M217.21,70.181L209.634,70.181L209.634,73.011L208.62,73.011L208.62,66.203L209.634,66.203L209.634,69.045L217.21,69.045L217.21,70.181Z" style="fill:rgb(0,54,255);fill-rule:nonzero;"/>
            <path d="M217.21,65.172L208.62,65.172L208.62,64.117L211.702,64.117C211.132,63.625 210.846,63.004 210.846,62.254C210.846,61.793 210.937,61.392 211.119,61.053C211.301,60.713 211.552,60.47 211.872,60.323C212.192,60.177 212.657,60.103 213.266,60.103L217.21,60.103L217.21,61.158L213.266,61.158C212.739,61.158 212.355,61.272 212.115,61.501C211.875,61.729 211.755,62.053 211.755,62.47C211.755,62.783 211.836,63.077 211.998,63.352C212.16,63.628 212.38,63.824 212.657,63.941C212.934,64.058 213.317,64.117 213.805,64.117L217.21,64.117L217.21,65.172Z" style="fill:rgb(0,54,255);fill-rule:nonzero;"/>
            <path d="M217.21,58.51L210.987,58.51L210.987,57.56L211.93,57.56C211.489,57.318 211.198,57.095 211.057,56.889C210.917,56.684 210.846,56.459 210.846,56.213C210.846,55.857 210.96,55.496 211.186,55.129L212.165,55.492C212.012,55.75 211.936,56.008 211.936,56.265C211.936,56.496 212.006,56.703 212.144,56.886C212.283,57.07 212.475,57.201 212.721,57.279C213.096,57.396 213.507,57.455 213.952,57.455L217.21,57.455L217.21,58.51Z" style="fill:rgb(0,54,255);fill-rule:nonzero;"/>
            <path d="M378.667,67.173L371.091,67.173L371.091,70.003L370.077,70.003L370.077,63.194L371.091,63.194L371.091,66.036L378.667,66.036L378.667,67.173Z" style="fill:rgb(0,54,255);fill-rule:nonzero;"/>
            <path d="M378.667,62.163L370.077,62.163L370.077,61.108L373.159,61.108C372.589,60.616 372.303,59.995 372.303,59.245C372.303,58.784 372.394,58.384 372.576,58.044C372.758,57.704 373.009,57.461 373.329,57.315C373.649,57.168 374.114,57.095 374.723,57.095L378.667,57.095L378.667,58.149L374.723,58.149C374.196,58.149 373.812,58.264 373.572,58.492C373.332,58.721 373.212,59.044 373.212,59.462C373.212,59.774 373.293,60.068 373.455,60.344C373.617,60.619 373.837,60.815 374.114,60.933C374.391,61.05 374.774,61.108 375.262,61.108L378.667,61.108L378.667,62.163Z" style="fill:rgb(0,54,255);fill-rule:nonzero;"/>
            <path d="M378.667,55.501L372.444,55.501L372.444,54.552L373.387,54.552C372.946,54.31 372.655,54.086 372.514,53.881C372.374,53.676 372.303,53.45 372.303,53.204C372.303,52.849 372.417,52.487 372.643,52.12L373.622,52.483C373.469,52.741 373.393,52.999 373.393,53.257C373.393,53.487 373.463,53.694 373.601,53.878C373.74,54.062 373.932,54.192 374.178,54.271C374.553,54.388 374.964,54.446 375.409,54.446L378.667,54.446L378.667,55.501Z" style="fill:rgb(0,54,255);fill-rule:nonzero;"/>
            <path d="M378.667,67.173L371.091,67.173L371.091,70.003L370.077,70.003L370.077,63.194L371.091,63.194L371.091,66.036L378.667,66.036L378.667,67.173Z" style="fill:rgb(0,54,255);fill-rule:nonzero;"/>
            <path d="M378.667,62.163L370.077,62.163L370.077,61.108L373.159,61.108C372.589,60.616 372.303,59.995 372.303,59.245C372.303,58.784 372.394,58.384 372.576,58.044C372.758,57.704 373.009,57.461 373.329,57.315C373.649,57.168 374.114,57.095 374.723,57.095L378.667,57.095L378.667,58.149L374.723,58.149C374.196,58.149 373.812,58.264 373.572,58.492C373.332,58.721 373.212,59.044 373.212,59.462C373.212,59.774 373.293,60.068 373.455,60.344C373.617,60.619 373.837,60.815 374.114,60.933C374.391,61.05 374.774,61.108 375.262,61.108L378.667,61.108L378.667,62.163Z" style="fill:rgb(0,54,255);fill-rule:nonzero;"/>
            <path d="M378.667,55.501L372.444,55.501L372.444,54.552L373.387,54.552C372.946,54.31 372.655,54.086 372.514,53.881C372.374,53.676 372.303,53.45 372.303,53.204C372.303,52.849 372.417,52.487 372.643,52.12L373.622,52.483C373.469,52.741 373.393,52.999 373.393,53.257C373.393,53.487 373.463,53.694 373.601,53.878C373.74,54.062 373.932,54.192 374.178,54.271C374.553,54.388 374.964,54.446 375.409,54.446L378.667,54.446L378.667,55.501Z" style="fill:rgb(0,54,255);fill-rule:nonzero;"/>
            <path d="M431.817,67.173L424.241,67.173L424.241,70.003L423.227,70.003L423.227,63.194L424.241,63.194L424.241,66.036L431.817,66.036L431.817,67.173Z" style="fill:rgb(0,54,255);fill-rule:nonzero;"/>
            <path d="M431.817,62.163L423.227,62.163L423.227,61.108L426.309,61.108C425.739,60.616 425.454,59.995 425.454,59.245C425.454,58.784 425.545,58.384 425.726,58.044C425.908,57.704 426.159,57.461 426.479,57.315C426.8,57.168 427.264,57.095 427.874,57.095L431.817,57.095L431.817,58.149L427.874,58.149C427.346,58.149 426.963,58.264 426.722,58.492C426.482,58.721 426.362,59.044 426.362,59.462C426.362,59.774 426.443,60.068 426.605,60.344C426.767,60.619 426.987,60.815 427.264,60.933C427.542,61.05 427.925,61.108 428.413,61.108L431.817,61.108L431.817,62.163Z" style="fill:rgb(0,54,255);fill-rule:nonzero;"/>
            <path d="M431.817,55.501L425.595,55.501L425.595,54.552L426.538,54.552C426.096,54.31 425.805,54.086 425.665,53.881C425.524,53.676 425.454,53.45 425.454,53.204C425.454,52.849 425.567,52.487 425.794,52.12L426.772,52.483C426.62,52.741 426.544,52.999 426.544,53.257C426.544,53.487 426.613,53.694 426.752,53.878C426.89,54.062 427.083,54.192 427.329,54.271C427.704,54.388 428.114,54.446 428.559,54.446L431.817,54.446L431.817,55.501Z" style="fill:rgb(0,54,255);fill-rule:nonzero;"/>
            <path d="M478.951,69.513L471.374,69.513L471.374,72.343L470.361,72.343L470.361,65.534L471.374,65.534L471.374,68.376L478.951,68.376L478.951,69.513Z" style="fill:rgb(0,54,255);fill-rule:nonzero;"/>
            <path d="M478.951,64.503L470.361,64.503L470.361,63.448L473.443,63.448C472.872,62.956 472.587,62.335 472.587,61.585C472.587,61.124 472.678,60.724 472.86,60.384C473.041,60.044 473.292,59.801 473.613,59.654C473.933,59.508 474.398,59.435 475.007,59.435L478.951,59.435L478.951,60.489L475.007,60.489C474.48,60.489 474.096,60.604 473.856,60.832C473.616,61.061 473.496,61.384 473.496,61.802C473.496,62.114 473.577,62.408 473.739,62.684C473.901,62.959 474.121,63.155 474.398,63.273C474.675,63.39 475.058,63.448 475.546,63.448L478.951,63.448L478.951,64.503Z" style="fill:rgb(0,54,255);fill-rule:nonzero;"/>
            <path d="M478.951,57.841L472.728,57.841L472.728,56.892L473.671,56.892C473.23,56.65 472.939,56.426 472.798,56.221C472.658,56.016 472.587,55.79 472.587,55.544C472.587,55.189 472.701,54.827 472.927,54.46L473.906,54.823C473.753,55.081 473.677,55.339 473.677,55.597C473.677,55.827 473.746,56.034 473.885,56.218C474.024,56.402 474.216,56.532 474.462,56.611C474.837,56.728 475.247,56.786 475.693,56.786L478.951,56.786L478.951,57.841Z" style="fill:rgb(0,54,255);fill-rule:nonzero;"/>
            <path d="M487.642,124.335L480.066,124.335L480.066,127.165L479.052,127.165L479.052,120.356L480.066,120.356L480.066,123.198L487.642,123.198L487.642,124.335Z" style="fill:rgb(0,54,255);fill-rule:nonzero;"/>
            <path d="M487.642,119.325L479.052,119.325L479.052,118.27L482.134,118.27C481.564,117.778 481.279,117.157 481.279,116.407C481.279,115.946 481.369,115.546 481.551,115.206C481.733,114.866 481.984,114.623 482.304,114.476C482.624,114.33 483.089,114.257 483.698,114.257L487.642,114.257L487.642,115.311L483.698,115.311C483.171,115.311 482.787,115.426 482.547,115.654C482.307,115.883 482.187,116.206 482.187,116.624C482.187,116.936 482.268,117.23 482.43,117.506C482.592,117.781 482.812,117.977 483.089,118.094C483.366,118.212 483.749,118.27 484.238,118.27L487.642,118.27L487.642,119.325Z" style="fill:rgb(0,54,255);fill-rule:nonzero;"/>
            <path d="M487.642,112.663L481.419,112.663L481.419,111.714L482.363,111.714C481.921,111.471 481.63,111.248 481.49,111.043C481.349,110.838 481.279,110.612 481.279,110.366C481.279,110.01 481.392,109.649 481.618,109.282L482.597,109.645C482.445,109.903 482.368,110.161 482.368,110.419C482.368,110.649 482.438,110.856 482.576,111.04C482.715,111.223 482.907,111.354 483.154,111.432C483.529,111.55 483.939,111.608 484.384,111.608L487.642,111.608L487.642,112.663Z" style="fill:rgb(0,54,255);fill-rule:nonzero;"/>
            <path d="M486.305,176.148L478.729,176.148L478.729,178.978L477.715,178.978L477.715,172.169L478.729,172.169L478.729,175.011L486.305,175.011L486.305,176.148Z" style="fill:rgb(0,54,255);fill-rule:nonzero;"/>
            <path d="M486.305,171.138L477.715,171.138L477.715,170.084L480.797,170.084C480.227,169.591 479.941,168.97 479.941,168.22C479.941,167.759 480.032,167.359 480.214,167.019C480.396,166.679 480.647,166.436 480.967,166.29C481.287,166.143 481.752,166.07 482.361,166.07L486.305,166.07L486.305,167.125L482.361,167.125C481.834,167.125 481.45,167.239 481.21,167.467C480.97,167.696 480.85,168.019 480.85,168.437C480.85,168.75 480.931,169.044 481.093,169.319C481.255,169.594 481.475,169.791 481.752,169.908C482.029,170.025 482.412,170.084 482.9,170.084L486.305,170.084L486.305,171.138Z" style="fill:rgb(0,54,255);fill-rule:nonzero;"/>
            <path d="M486.305,164.476L480.082,164.476L480.082,163.527L481.025,163.527C480.584,163.285 480.293,163.061 480.152,162.856C480.012,162.651 479.941,162.425 479.941,162.179C479.941,161.824 480.055,161.462 480.281,161.095L481.26,161.459C481.107,161.716 481.031,161.974 481.031,162.232C481.031,162.462 481.101,162.669 481.239,162.853C481.378,163.037 481.57,163.168 481.816,163.246C482.191,163.363 482.602,163.421 483.047,163.421L486.305,163.421L486.305,164.476Z" style="fill:rgb(0,54,255);fill-rule:nonzero;"/>
            <path d="M484.299,229.967L476.723,229.967L476.723,232.797L475.709,232.797L475.709,225.988L476.723,225.988L476.723,228.83L484.299,228.83L484.299,229.967Z" style="fill:rgb(0,54,255);fill-rule:nonzero;"/>
            <path d="M484.299,224.957L475.709,224.957L475.709,223.903L478.791,223.903C478.221,223.41 477.936,222.789 477.936,222.039C477.936,221.578 478.027,221.178 478.208,220.838C478.39,220.498 478.641,220.255 478.961,220.109C479.281,219.962 479.746,219.889 480.356,219.889L484.299,219.889L484.299,220.944L480.356,220.944C479.828,220.944 479.445,221.058 479.204,221.286C478.964,221.515 478.844,221.838 478.844,222.256C478.844,222.569 478.925,222.863 479.087,223.138C479.249,223.413 479.469,223.61 479.746,223.727C480.024,223.844 480.406,223.903 480.895,223.903L484.299,223.903L484.299,224.957Z" style="fill:rgb(0,54,255);fill-rule:nonzero;"/>
            <path d="M484.299,218.295L478.076,218.295L478.076,217.346L479.02,217.346C478.578,217.104 478.287,216.88 478.147,216.675C478.006,216.47 477.936,216.244 477.936,215.998C477.936,215.643 478.049,215.281 478.276,214.914L479.254,215.278C479.102,215.535 479.026,215.793 479.026,216.051C479.026,216.281 479.095,216.488 479.234,216.672C479.372,216.856 479.565,216.987 479.811,217.065C480.186,217.182 480.596,217.24 481.041,217.24L484.299,217.24L484.299,218.295Z" style="fill:rgb(0,54,255);fill-rule:nonzero;"/>
        </g>
        <path id="alignment" d="M62.104,273.449L62.104,20.487L623.915,20.487" style="fill:none;stroke:rgb(0,4,255);stroke-width:0.42px;stroke-miterlimit:1.5;"/>
        <circle cx="62.068" cy="20.417" r="2.921" style="fill:none;stroke:black;stroke-width:0.42px;stroke-miterlimit:1.5;"/>
    </g>
</svg>
