<?xml version="1.0" encoding="UTF-8" standalone="no"?>
<!DOCTYPE svg PUBLIC "-//W3C//DTD SVG 1.1//EN" "http://www.w3.org/Graphics/SVG/1.1/DTD/svg11.dtd">
<svg width="842px" height="1191px" version="1.1" xmlns="http://www.w3.org/2000/svg" xmlns:xlink="http://www.w3.org/1999/xlink" xml:space="preserve" xmlns:serif="http://www.serif.com/" style="fill-rule:evenodd;clip-rule:evenodd;stroke-linecap:round;stroke-linejoin:round;stroke-miterlimit:1.5;">
    <g id="Cover">
        <g id="Bottom-Case" serif:id="Bottom Case">
            <path d="M581.096,69.336C581.096,42.421 559.244,20.569 532.329,20.569L91.131,20.569C64.215,20.569 42.363,42.421 42.363,69.336L42.363,215.638C42.363,242.553 64.215,264.405 91.131,264.405L532.329,264.405C559.244,264.405 581.096,242.553 581.096,215.638L581.096,69.336Z" style="stroke:black;stroke-width:0.42px;"/>
            <path d="M82.919,249.198C86.146,250.13 89.556,250.629 93.082,250.629L530.401,250.629C550.618,250.629 567.031,234.215 567.031,213.998L567.031,195.469C566.906,195.472 566.779,195.474 566.652,195.474C557.011,195.474 549.184,187.646 549.184,178.005C549.184,168.364 557.011,160.537 566.652,160.537C566.779,160.537 566.906,160.539 567.031,160.541L567.031,124.887C566.984,124.888 566.937,124.888 566.889,124.888C557.249,124.888 549.421,117.061 549.421,107.42C549.421,97.779 557.249,89.951 566.889,89.951C566.937,89.951 566.984,89.952 567.031,89.952L567.031,71.786C567.031,51.569 550.618,35.155 530.401,35.155L93.082,35.155C89.594,35.155 86.22,35.644 83.023,36.556C86.641,39.758 88.923,44.435 88.923,49.641C88.923,59.282 81.096,67.109 71.455,67.109C66.1,67.109 61.305,64.695 58.1,60.896C57.028,64.338 56.451,67.995 56.451,71.786L56.451,213.998C56.451,217.722 57.008,221.317 58.043,224.704C61.236,221.244 65.808,219.076 70.882,219.076C80.523,219.076 88.35,226.903 88.35,236.544C88.35,241.522 86.263,246.016 82.919,249.198ZM192.851,206.426C183.21,206.426 175.382,214.253 175.382,223.894C175.382,233.535 183.21,241.363 192.851,241.363C202.491,241.363 210.319,233.535 210.319,223.894C210.319,214.253 202.491,206.426 192.851,206.426ZM409.462,205.16C399.821,205.16 391.994,212.987 391.994,222.628C391.994,232.269 399.821,240.096 409.462,240.096C419.103,240.096 426.93,232.269 426.93,222.628C426.93,212.987 419.103,205.16 409.462,205.16ZM265.073,144.298C256.636,144.298 249.786,151.148 249.786,159.585C249.786,168.023 256.636,174.873 265.073,174.873C273.51,174.873 280.36,168.023 280.36,159.585C280.36,151.148 273.51,144.298 265.073,144.298ZM411.228,95.558C402.562,95.558 395.526,102.594 395.526,111.261C395.526,119.927 402.562,126.963 411.228,126.963C419.894,126.963 426.93,119.927 426.93,111.261C426.93,102.594 419.894,95.558 411.228,95.558ZM192.686,95.558C184.02,95.558 176.984,102.594 176.984,111.261C176.984,119.927 184.02,126.963 192.686,126.963C201.352,126.963 208.388,119.927 208.388,111.261C208.388,102.594 201.352,95.558 192.686,95.558Z" style="fill:rgb(171,171,171);stroke:black;stroke-width:0.42px;"/>
            <path d="M259.323,159.74L259.443,158.54L259.923,157.34L260.523,156.26L261.483,155.3L262.563,154.7L263.763,154.22L264.963,154.1L266.163,154.22L267.363,154.7L268.443,155.3L269.403,156.26L270.003,157.34L270.483,158.54L270.603,159.74L270.483,160.94L270.003,162.14L269.403,163.22L268.443,164.18L267.363,164.78L266.163,165.26L264.963,165.38L263.763,165.26L262.563,164.78L261.483,164.18L260.523,163.22L259.923,162.14L259.443,160.94L259.323,159.74Z" style="fill:none;fill-rule:nonzero;stroke:black;stroke-width:1.44px;stroke-linejoin:bevel;stroke-miterlimit:10;"/>
            <circle cx="264.963" cy="159.74" r="14.16" style="fill:none;stroke:black;stroke-width:1.44px;stroke-linejoin:bevel;stroke-miterlimit:10;"/>
            <path d="M65.283,236.18L65.403,234.98L65.883,233.78L66.483,232.7L67.443,231.74L68.523,231.14L69.723,230.66L70.923,230.54L72.123,230.66L73.323,231.14L74.403,231.74L75.363,232.7L75.963,233.78L76.443,234.98L76.563,236.18L76.443,237.38L75.963,238.58L75.363,239.66L74.403,240.62L73.323,241.22L72.123,241.7L70.923,241.82L69.723,241.7L68.523,241.22L67.443,240.62L66.483,239.66L65.883,238.58L65.403,237.38L65.283,236.18Z" style="fill:none;fill-rule:nonzero;stroke:black;stroke-width:1.44px;stroke-linejoin:bevel;stroke-miterlimit:10;"/>
            <path d="M65.283,49.34L65.403,48.14L65.883,46.94L66.483,45.86L67.443,44.9L68.523,44.3L69.723,43.82L70.923,43.7L72.123,43.82L73.323,44.3L74.403,44.9L75.363,45.86L75.963,46.94L76.443,48.14L76.563,49.34L76.443,50.54L75.963,51.74L75.363,52.82L74.403,53.78L73.323,54.38L72.123,54.86L70.923,54.98L69.723,54.86L68.523,54.38L67.443,53.78L66.483,52.82L65.883,51.74L65.403,50.54L65.283,49.34Z" style="fill:none;fill-rule:nonzero;stroke:black;stroke-width:1.44px;stroke-linejoin:bevel;stroke-miterlimit:10;"/>
            <path d="M559.323,178.22L559.443,177.02L559.923,175.82L560.523,174.74L561.483,173.78L562.563,173.18L563.763,172.7L564.963,172.58L566.163,172.7L567.363,173.18L568.443,173.78L569.403,174.74L570.003,175.82L570.483,177.02L570.603,178.22L570.483,179.42L570.003,180.62L569.403,181.7L568.443,182.66L567.363,183.26L566.163,183.74L564.963,183.86L563.763,183.74L562.563,183.26L561.483,182.66L560.523,181.7L559.923,180.62L559.443,179.42L559.323,178.22Z" style="fill:none;fill-rule:nonzero;stroke:black;stroke-width:1.44px;stroke-linejoin:bevel;stroke-miterlimit:10;"/>
            <path d="M559.323,107.3L559.443,106.1L559.923,104.9L560.523,103.82L561.483,102.86L562.563,102.26L563.763,101.78L564.963,101.66L566.163,101.78L567.363,102.26L568.443,102.86L569.403,103.82L570.003,104.9L570.483,106.1L570.603,107.3L570.483,108.5L570.003,109.7L569.403,110.78L568.443,111.74L567.363,112.34L566.163,112.82L564.963,112.94L563.763,112.82L562.563,112.34L561.483,111.74L560.523,110.78L559.923,109.7L559.443,108.5L559.323,107.3Z" style="fill:none;fill-rule:nonzero;stroke:black;stroke-width:1.44px;stroke-linejoin:bevel;stroke-miterlimit:10;"/>
            <path d="M211.991,152.367L211.991,151.312L205.27,151.312C205.512,151.058 205.755,150.725 205.997,150.313C206.239,149.901 206.421,149.531 206.542,149.203L205.522,149.203C205.245,149.793 204.909,150.308 204.514,150.75C204.12,151.191 203.737,151.504 203.366,151.687L203.366,152.367L211.991,152.367Z" style="fill:rgb(0,54,255);fill-rule:nonzero;"/>
            <path d="M207.755,155.068C206.739,155.068 205.922,155.172 205.302,155.381C204.683,155.59 204.206,155.901 203.87,156.313C203.534,156.725 203.366,157.244 203.366,157.869C203.366,158.33 203.459,158.734 203.644,159.082C203.83,159.429 204.097,159.716 204.447,159.943C204.797,160.17 205.222,160.347 205.724,160.476C206.226,160.605 206.903,160.67 207.755,160.67C208.762,160.67 209.576,160.566 210.195,160.359C210.814,160.152 211.293,159.842 211.631,159.43C211.968,159.018 212.137,158.498 212.137,157.869C212.137,157.041 211.84,156.39 211.247,155.918C210.532,155.351 209.368,155.068 207.755,155.068ZM207.755,156.152C209.165,156.152 210.103,156.317 210.57,156.647C211.037,156.977 211.27,157.384 211.27,157.869C211.27,158.353 211.036,158.76 210.567,159.09C210.098,159.42 209.161,159.586 207.755,159.586C206.34,159.586 205.401,159.42 204.936,159.09C204.471,158.76 204.239,158.349 204.239,157.857C204.239,157.373 204.444,156.986 204.854,156.697C205.378,156.334 206.344,156.152 207.755,156.152Z" style="fill:rgb(0,54,255);fill-rule:nonzero;"/>
            <path d="M211.991,162.035L205.768,162.035L205.768,162.978L206.641,162.978C206.337,163.173 206.091,163.433 205.906,163.757C205.72,164.082 205.628,164.451 205.628,164.865C205.628,165.326 205.723,165.704 205.915,165.999C206.106,166.294 206.374,166.502 206.717,166.623C205.991,167.115 205.628,167.755 205.628,168.545C205.628,169.162 205.798,169.636 206.14,169.968C206.482,170.3 207.008,170.466 207.719,170.466L211.991,170.466L211.991,169.418L208.071,169.418C207.649,169.418 207.345,169.383 207.16,169.315C206.974,169.247 206.825,169.123 206.712,168.943C206.598,168.763 206.542,168.552 206.542,168.31C206.542,167.873 206.687,167.509 206.978,167.22C207.269,166.931 207.735,166.787 208.376,166.787L211.991,166.787L211.991,165.732L207.948,165.732C207.479,165.732 207.128,165.646 206.893,165.474C206.659,165.302 206.542,165.021 206.542,164.63C206.542,164.334 206.62,164.059 206.776,163.807C206.932,163.555 207.161,163.373 207.462,163.259C207.762,163.146 208.196,163.089 208.762,163.089L211.991,163.089L211.991,162.035Z" style="fill:rgb(0,54,255);fill-rule:nonzero;"/>
            <path d="M211.991,172.031L205.768,172.031L205.768,172.974L206.641,172.974C206.337,173.17 206.091,173.429 205.906,173.754C205.72,174.078 205.628,174.447 205.628,174.861C205.628,175.322 205.723,175.7 205.915,175.995C206.106,176.29 206.374,176.498 206.717,176.619C205.991,177.111 205.628,177.752 205.628,178.541C205.628,179.158 205.798,179.632 206.14,179.964C206.482,180.296 207.008,180.462 207.719,180.462L211.991,180.462L211.991,179.414L208.071,179.414C207.649,179.414 207.345,179.379 207.16,179.311C206.974,179.243 206.825,179.119 206.712,178.939C206.598,178.759 206.542,178.548 206.542,178.306C206.542,177.869 206.687,177.505 206.978,177.216C207.269,176.927 207.735,176.783 208.376,176.783L211.991,176.783L211.991,175.728L207.948,175.728C207.479,175.728 207.128,175.642 206.893,175.47C206.659,175.298 206.542,175.017 206.542,174.627C206.542,174.33 206.62,174.055 206.776,173.803C206.932,173.551 207.161,173.369 207.462,173.255C207.762,173.142 208.196,173.086 208.762,173.086L211.991,173.086L211.991,172.031Z" style="fill:rgb(0,54,255);fill-rule:nonzero;"/>
            <circle cx="409.828" cy="111.003" r="5.66" style="fill:none;stroke:black;stroke-width:0.42px;"/>
            <circle cx="192.432" cy="223.756" r="5.66" style="fill:none;stroke:black;stroke-width:0.42px;"/>
            <circle cx="409.828" cy="223.756" r="5.66" style="fill:none;stroke:black;stroke-width:0.42px;"/>
            <circle cx="192.432" cy="111.003" r="5.66" style="fill:none;stroke:black;stroke-width:0.42px;"/>
        </g>
        <circle cx="42.144" cy="20.772" r="2.921" style="fill:none;stroke:black;stroke-width:0.42px;"/>
        <path id="alignment" d="M42.152,273.746L42.152,20.784L603.963,20.784" style="fill:none;stroke:rgb(0,4,255);stroke-width:0.42px;"/>
    </g>
</svg>
