<?xml version="1.0" encoding="UTF-8" standalone="no"?>
<!DOCTYPE svg PUBLIC "-//W3C//DTD SVG 1.1//EN" "http://www.w3.org/Graphics/SVG/1.1/DTD/svg11.dtd">
<svg width="842px" height="1191px" version="1.1" xmlns="http://www.w3.org/2000/svg" xmlns:xlink="http://www.w3.org/1999/xlink" xml:space="preserve" xmlns:serif="http://www.serif.com/" style="fill-rule:evenodd;clip-rule:evenodd;stroke-linecap:round;stroke-linejoin:round;stroke-miterlimit:1.5;">
    <g id="Bottom-Case" serif:id="Bottom Case">
        <g id="Bottom-Case1" serif:id="Bottom Case">
            <path d="M62.09,69.336C62.09,42.421 83.942,20.569 110.858,20.569L552.056,20.569C578.971,20.569 600.823,42.421 600.823,69.336L600.823,215.638C600.823,242.553 578.971,264.405 552.056,264.405L110.858,264.405C83.942,264.405 62.09,242.553 62.09,215.638L62.09,69.336Z" style="stroke:black;stroke-width:0.42px;"/>
            <path d="M560.267,249.198C557.041,250.13 553.631,250.629 550.105,250.629L112.786,250.629C92.569,250.629 76.155,234.215 76.155,213.998L76.155,195.469C76.28,195.472 76.407,195.474 76.535,195.474C86.176,195.474 94.003,187.646 94.003,178.005C94.003,168.364 86.176,160.537 76.535,160.537C76.407,160.537 76.28,160.539 76.155,160.541L76.155,124.887C76.203,124.888 76.25,124.888 76.297,124.888C85.938,124.888 93.765,117.061 93.765,107.42C93.765,97.779 85.938,89.951 76.297,89.951C76.25,89.951 76.203,89.952 76.155,89.952L76.155,71.786C76.155,51.569 92.569,35.155 112.786,35.155L550.105,35.155C553.592,35.155 556.967,35.644 560.164,36.556C556.546,39.758 554.263,44.435 554.263,49.641C554.263,59.282 562.091,67.109 571.732,67.109C577.086,67.109 581.881,64.695 585.087,60.896C586.158,64.338 586.735,67.995 586.735,71.786L586.735,213.998C586.735,217.722 586.178,221.317 585.143,224.704C581.95,221.244 577.379,219.076 572.305,219.076C562.664,219.076 554.836,226.903 554.836,236.544C554.836,241.522 556.923,246.016 560.267,249.198ZM450.336,206.426C459.977,206.426 467.804,214.253 467.804,223.894C467.804,233.535 459.977,241.363 450.336,241.363C440.695,241.363 432.868,233.535 432.868,223.894C432.868,214.253 440.695,206.426 450.336,206.426ZM233.725,205.16C243.366,205.16 251.193,212.987 251.193,222.628C251.193,232.269 243.366,240.096 233.725,240.096C224.084,240.096 216.256,232.269 216.256,222.628C216.256,212.987 224.084,205.16 233.725,205.16ZM378.113,144.298C386.551,144.298 393.4,151.148 393.4,159.585C393.4,168.023 386.551,174.873 378.113,174.873C369.676,174.873 362.826,168.023 362.826,159.585C362.826,151.148 369.676,144.298 378.113,144.298ZM231.958,95.558C240.625,95.558 247.661,102.594 247.661,111.261C247.661,119.927 240.625,126.963 231.958,126.963C223.292,126.963 216.256,119.927 216.256,111.261C216.256,102.594 223.292,95.558 231.958,95.558ZM450.501,95.558C459.167,95.558 466.203,102.594 466.203,111.261C466.203,119.927 459.167,126.963 450.501,126.963C441.834,126.963 434.798,119.927 434.798,111.261C434.798,102.594 441.834,95.558 450.501,95.558Z" style="fill:rgb(171,171,171);stroke:black;stroke-width:0.42px;"/>
            <path d="M118.784,213.62L118.664,212.06L118.304,210.38L117.584,208.94L116.744,207.62L115.664,206.42L114.344,205.34L112.904,204.62L111.344,204.14L109.784,203.78L108.104,203.78L106.544,204.14L104.984,204.62L103.544,205.34L102.224,206.42L101.144,207.62L100.304,208.94L99.584,210.38L99.224,212.06L99.104,213.62L99.224,215.18L99.584,216.86L100.304,218.3L101.144,219.62L102.224,220.82L103.544,221.9L104.984,222.62L106.544,223.1L108.104,223.46L109.784,223.46L111.344,223.1L112.904,222.62L114.344,221.9L115.664,220.82L116.744,219.62L117.584,218.3L118.304,216.86L118.664,215.18L118.784,213.62Z" style="fill:none;fill-rule:nonzero;stroke:rgb(0,45,255);stroke-width:1.44px;stroke-linejoin:bevel;stroke-miterlimit:10;"/>
            <path d="M118.784,71.9L118.664,70.34L118.304,68.66L117.584,67.22L116.744,65.9L115.664,64.7L114.344,63.62L112.904,62.9L111.344,62.42L109.784,62.06L108.104,62.06L106.544,62.42L104.984,62.9L103.544,63.62L102.224,64.7L101.144,65.9L100.304,67.22L99.584,68.66L99.224,70.34L99.104,71.9L99.224,73.46L99.584,75.14L100.304,76.58L101.144,77.9L102.224,79.1L103.544,80.18L104.984,80.9L106.544,81.38L108.104,81.74L109.784,81.74L111.344,81.38L112.904,80.9L114.344,80.18L115.664,79.1L116.744,77.9L117.584,76.58L118.304,75.14L118.664,73.46L118.784,71.9Z" style="fill:none;fill-rule:nonzero;stroke:rgb(0,45,255);stroke-width:1.44px;stroke-linejoin:bevel;stroke-miterlimit:10;"/>
            <path d="M118.784,142.7L118.664,141.14L118.304,139.46L117.584,138.02L116.744,136.7L115.664,135.5L114.344,134.42L112.904,133.7L111.344,133.22L109.784,132.86L108.104,132.86L106.544,133.22L104.984,133.7L103.544,134.42L102.224,135.5L101.144,136.7L100.304,138.02L99.584,139.46L99.224,141.14L99.104,142.7L99.224,144.26L99.584,145.94L100.304,147.38L101.144,148.7L102.224,149.9L103.544,150.98L104.984,151.7L106.544,152.18L108.104,152.54L109.784,152.54L111.344,152.18L112.904,151.7L114.344,150.98L115.664,149.9L116.744,148.7L117.584,147.38L118.304,145.94L118.664,144.26L118.784,142.7Z" style="fill:none;fill-rule:nonzero;stroke:rgb(0,45,255);stroke-width:1.44px;stroke-linejoin:bevel;stroke-miterlimit:10;"/>
            <path d="M354.104,193.82L353.984,192.26L353.624,190.58L352.904,189.14L352.064,187.82L350.984,186.62L349.664,185.54L348.224,184.82L346.664,184.34L345.104,183.98L343.424,183.98L341.864,184.34L340.304,184.82L338.864,185.54L337.544,186.62L336.464,187.82L335.624,189.14L334.904,190.58L334.544,192.26L334.424,193.82L334.544,195.38L334.904,197.06L335.624,198.5L336.464,199.82L337.544,201.02L338.864,202.1L340.304,202.82L341.864,203.3L343.424,203.66L345.104,203.66L346.664,203.3L348.224,202.82L349.664,202.1L350.984,201.02L352.064,199.82L352.904,198.5L353.624,197.06L353.984,195.38L354.104,193.82Z" style="fill:none;fill-rule:nonzero;stroke:rgb(0,45,255);stroke-width:1.44px;stroke-linejoin:bevel;stroke-miterlimit:10;"/>
            <rect x="378.224" y="42.14" width="39.72" height="39.6" style="fill:none;stroke:rgb(0,54,255);stroke-width:1.44px;stroke-miterlimit:10;"/>
            <path d="M432.104,81.74L432.104,42.14L471.824,42.14L471.824,81.74L432.104,81.74Z" style="fill:none;stroke:rgb(0,54,255);stroke-width:1.44px;stroke-miterlimit:10;"/>
            <rect x="485.984" y="96.02" width="39.72" height="39.6" style="fill:none;stroke:rgb(0,54,255);stroke-width:1.44px;stroke-miterlimit:10;"/>
            <path d="M485.984,189.5L485.984,149.9L525.704,149.9L525.704,189.5L485.984,189.5Z" style="fill:none;stroke:rgb(0,54,255);stroke-width:1.44px;stroke-miterlimit:10;"/>
            <path d="M485.984,243.38L485.984,203.78L525.704,203.78L525.704,243.38L485.984,243.38Z" style="fill:none;stroke:rgb(0,54,255);stroke-width:1.44px;stroke-miterlimit:10;"/>
            <rect x="162.824" y="149.9" width="39.72" height="39.6" style="fill:none;stroke:rgb(0,54,255);stroke-width:1.44px;stroke-miterlimit:10;"/>
            <rect x="162.824" y="203.78" width="39.72" height="39.6" style="fill:none;stroke:rgb(0,54,255);stroke-width:1.44px;stroke-miterlimit:10;"/>
            <path d="M162.824,135.62L162.824,96.02L202.544,96.02L202.544,135.62L162.824,135.62Z" style="fill:none;stroke:rgb(0,54,255);stroke-width:1.44px;stroke-miterlimit:10;"/>
            <path d="M216.704,81.74L216.704,42.14L256.304,42.14L256.304,81.74L216.704,81.74Z" style="fill:none;stroke:rgb(0,54,255);stroke-width:1.44px;stroke-miterlimit:10;"/>
            <path d="M270.584,42.14L270.584,81.74L310.184,81.74L310.184,42.14L270.584,42.14Z" style="fill:none;stroke:rgb(0,54,255);stroke-width:1.44px;stroke-miterlimit:10;"/>
            <rect x="539.864" y="149.9" width="39.72" height="39.6" style="fill:none;stroke:rgb(0,54,255);stroke-width:1.44px;stroke-miterlimit:10;"/>
            <rect x="162.824" y="42.14" width="39.72" height="39.6" style="fill:none;stroke:rgb(0,54,255);stroke-width:1.44px;stroke-miterlimit:10;"/>
            <path d="M485.984,81.74L485.984,42.14L525.704,42.14L525.704,81.74L485.984,81.74Z" style="fill:none;stroke:rgb(0,54,255);stroke-width:1.44px;stroke-miterlimit:10;"/>
            <path d="M539.864,135.62L539.864,96.02L579.584,96.02L579.584,135.62L539.864,135.62Z" style="fill:none;stroke:rgb(0,54,255);stroke-width:1.44px;stroke-miterlimit:10;"/>
            <path d="M383.864,159.74L383.744,158.54L383.264,157.34L382.664,156.26L381.704,155.3L380.624,154.7L379.424,154.22L378.224,154.1L377.024,154.22L375.824,154.7L374.744,155.3L373.784,156.26L373.184,157.34L372.704,158.54L372.584,159.74L372.704,160.94L373.184,162.14L373.784,163.22L374.744,164.18L375.824,164.78L377.024,165.26L378.224,165.38L379.424,165.26L380.624,164.78L381.704,164.18L382.664,163.22L383.264,162.14L383.744,160.94L383.864,159.74Z" style="fill:none;fill-rule:nonzero;stroke:black;stroke-width:1.44px;stroke-linejoin:bevel;stroke-miterlimit:10;"/>
            <circle cx="378.224" cy="159.74" r="14.16" style="fill:none;stroke:black;stroke-width:1.44px;stroke-linejoin:bevel;stroke-miterlimit:10;"/>
            <path d="M577.904,236.18L577.784,234.98L577.304,233.78L576.704,232.7L575.744,231.74L574.664,231.14L573.464,230.66L572.264,230.54L571.064,230.66L569.864,231.14L568.784,231.74L567.824,232.7L567.224,233.78L566.744,234.98L566.624,236.18L566.744,237.38L567.224,238.58L567.824,239.66L568.784,240.62L569.864,241.22L571.064,241.7L572.264,241.82L573.464,241.7L574.664,241.22L575.744,240.62L576.704,239.66L577.304,238.58L577.784,237.38L577.904,236.18Z" style="fill:none;fill-rule:nonzero;stroke:black;stroke-width:1.44px;stroke-linejoin:bevel;stroke-miterlimit:10;"/>
            <path d="M577.904,49.34L577.784,48.14L577.304,46.94L576.704,45.86L575.744,44.9L574.664,44.3L573.464,43.82L572.264,43.7L571.064,43.82L569.864,44.3L568.784,44.9L567.824,45.86L567.224,46.94L566.744,48.14L566.624,49.34L566.744,50.54L567.224,51.74L567.824,52.82L568.784,53.78L569.864,54.38L571.064,54.86L572.264,54.98L573.464,54.86L574.664,54.38L575.744,53.78L576.704,52.82L577.304,51.74L577.784,50.54L577.904,49.34Z" style="fill:none;fill-rule:nonzero;stroke:black;stroke-width:1.44px;stroke-linejoin:bevel;stroke-miterlimit:10;"/>
            <path d="M83.864,178.22L83.744,177.02L83.264,175.82L82.664,174.74L81.704,173.78L80.624,173.18L79.424,172.7L78.224,172.58L77.024,172.7L75.824,173.18L74.744,173.78L73.784,174.74L73.184,175.82L72.704,177.02L72.584,178.22L72.704,179.42L73.184,180.62L73.784,181.7L74.744,182.66L75.824,183.26L77.024,183.74L78.224,183.86L79.424,183.74L80.624,183.26L81.704,182.66L82.664,181.7L83.264,180.62L83.744,179.42L83.864,178.22Z" style="fill:none;fill-rule:nonzero;stroke:black;stroke-width:1.44px;stroke-linejoin:bevel;stroke-miterlimit:10;"/>
            <path d="M83.864,107.3L83.744,106.1L83.264,104.9L82.664,103.82L81.704,102.86L80.624,102.26L79.424,101.78L78.224,101.66L77.024,101.78L75.824,102.26L74.744,102.86L73.784,103.82L73.184,104.9L72.704,106.1L72.584,107.3L72.704,108.5L73.184,109.7L73.784,110.78L74.744,111.74L75.824,112.34L77.024,112.82L78.224,112.94L79.424,112.82L80.624,112.34L81.704,111.74L82.664,110.78L83.264,109.7L83.744,108.5L83.864,107.3Z" style="fill:none;fill-rule:nonzero;stroke:black;stroke-width:1.44px;stroke-linejoin:bevel;stroke-miterlimit:10;"/>
            <path d="M431.196,152.367L431.196,151.312L437.916,151.312C437.674,151.058 437.432,150.725 437.19,150.313C436.948,149.901 436.766,149.531 436.645,149.203L437.664,149.203C437.942,149.793 438.278,150.308 438.672,150.75C439.067,151.191 439.449,151.504 439.821,151.687L439.821,152.367L431.196,152.367Z" style="fill:rgb(0,54,255);fill-rule:nonzero;"/>
            <path d="M435.432,155.068C436.448,155.068 437.265,155.172 437.884,155.381C438.503,155.59 438.981,155.901 439.317,156.313C439.653,156.725 439.821,157.244 439.821,157.869C439.821,158.33 439.728,158.734 439.542,159.082C439.357,159.429 439.089,159.716 438.74,159.943C438.39,160.17 437.964,160.347 437.462,160.476C436.96,160.605 436.283,160.67 435.432,160.67C434.424,160.67 433.611,160.566 432.991,160.359C432.372,160.152 431.894,159.842 431.556,159.43C431.218,159.018 431.049,158.498 431.049,157.869C431.049,157.041 431.346,156.39 431.94,155.918C432.655,155.351 433.819,155.068 435.432,155.068ZM435.432,156.152C434.022,156.152 433.083,156.317 432.616,156.647C432.15,156.977 431.916,157.384 431.916,157.869C431.916,158.353 432.151,158.76 432.619,159.09C433.088,159.42 434.026,159.586 435.432,159.586C436.846,159.586 437.785,159.42 438.25,159.09C438.715,158.76 438.948,158.349 438.948,157.857C438.948,157.373 438.742,156.986 438.332,156.697C437.809,156.334 436.842,156.152 435.432,156.152Z" style="fill:rgb(0,54,255);fill-rule:nonzero;"/>
            <path d="M431.196,162.035L437.418,162.035L437.418,162.978L436.545,162.978C436.85,163.173 437.095,163.433 437.281,163.757C437.466,164.082 437.559,164.451 437.559,164.865C437.559,165.326 437.463,165.704 437.272,165.999C437.08,166.294 436.813,166.502 436.469,166.623C437.196,167.115 437.559,167.755 437.559,168.545C437.559,169.162 437.388,169.636 437.046,169.968C436.704,170.3 436.178,170.466 435.467,170.466L431.196,170.466L431.196,169.418L435.115,169.418C435.537,169.418 435.841,169.383 436.027,169.315C436.212,169.247 436.362,169.123 436.475,168.943C436.588,168.763 436.645,168.552 436.645,168.31C436.645,167.873 436.499,167.509 436.208,167.22C435.917,166.931 435.451,166.787 434.811,166.787L431.196,166.787L431.196,165.732L435.239,165.732C435.707,165.732 436.059,165.646 436.293,165.474C436.528,165.302 436.645,165.021 436.645,164.63C436.645,164.334 436.567,164.059 436.41,163.807C436.254,163.555 436.026,163.373 435.725,163.259C435.424,163.146 434.99,163.089 434.424,163.089L431.196,163.089L431.196,162.035Z" style="fill:rgb(0,54,255);fill-rule:nonzero;"/>
            <path d="M431.196,172.031L437.418,172.031L437.418,172.974L436.545,172.974C436.85,173.17 437.095,173.429 437.281,173.754C437.466,174.078 437.559,174.447 437.559,174.861C437.559,175.322 437.463,175.7 437.272,175.995C437.08,176.29 436.813,176.498 436.469,176.619C437.196,177.111 437.559,177.752 437.559,178.541C437.559,179.158 437.388,179.632 437.046,179.964C436.704,180.296 436.178,180.462 435.467,180.462L431.196,180.462L431.196,179.414L435.115,179.414C435.537,179.414 435.841,179.379 436.027,179.311C436.212,179.243 436.362,179.119 436.475,178.939C436.588,178.759 436.645,178.548 436.645,178.306C436.645,177.869 436.499,177.505 436.208,177.216C435.917,176.927 435.451,176.783 434.811,176.783L431.196,176.783L431.196,175.728L435.239,175.728C435.707,175.728 436.059,175.642 436.293,175.47C436.528,175.298 436.645,175.017 436.645,174.627C436.645,174.33 436.567,174.055 436.41,173.803C436.254,173.551 436.026,173.369 435.725,173.255C435.424,173.142 434.99,173.086 434.424,173.086L431.196,173.086L431.196,172.031Z" style="fill:rgb(0,54,255);fill-rule:nonzero;"/>
            <circle cx="233.358" cy="111.003" r="5.66" style="fill:none;stroke:black;stroke-width:0.42px;"/>
            <circle cx="450.755" cy="223.756" r="5.66" style="fill:none;stroke:black;stroke-width:0.42px;"/>
            <circle cx="233.358" cy="223.756" r="5.66" style="fill:none;stroke:black;stroke-width:0.42px;"/>
            <circle cx="450.755" cy="111.003" r="5.66" style="fill:none;stroke:black;stroke-width:0.42px;"/>
        </g>
        <circle cx="601.042" cy="20.772" r="2.921" style="fill:none;stroke:black;stroke-width:0.42px;"/>
        <path id="alignment" d="M601.035,273.746L601.035,20.784L39.223,20.784" style="fill:none;stroke:rgb(0,4,255);stroke-width:0.42px;"/>
    </g>
</svg>
