<?xml version="1.0" encoding="UTF-8" standalone="no"?>
<!DOCTYPE svg PUBLIC "-//W3C//DTD SVG 1.1//EN" "http://www.w3.org/Graphics/SVG/1.1/DTD/svg11.dtd">
<svg width="842px" height="1191px" version="1.1" xmlns="http://www.w3.org/2000/svg" xmlns:xlink="http://www.w3.org/1999/xlink" xml:space="preserve" xmlns:serif="http://www.serif.com/" style="fill-rule:evenodd;clip-rule:evenodd;stroke-linecap:round;stroke-linejoin:bevel;stroke-miterlimit:10;">
    <g id="Bottom-Wheel" serif:id="Bottom Wheel">
        <path d="M180.355,143.355C180.355,148.388 176.269,152.475 171.235,152.475C166.202,152.475 162.115,148.388 162.115,143.355C162.115,138.321 166.202,134.235 171.235,134.235C176.269,134.235 180.355,138.321 180.355,143.355Z" style="fill:none;stroke:black;stroke-width:1.44px;"/>
        <path d="M171.235,51.195L166.075,51.315L160.915,51.795L155.755,52.515L150.715,53.475L145.675,54.795L140.755,56.355L135.955,58.155L131.275,60.315L126.715,62.715L122.155,65.355L117.955,68.235L113.755,71.355L109.795,74.595L106.075,78.195L102.475,81.915L99.235,85.875L96.115,90.075L93.235,94.275L90.595,98.835L88.195,103.395L86.035,108.075L84.235,112.875L82.675,117.795L81.355,122.835L80.395,127.875L79.675,133.035L79.195,138.195L79.075,143.355L79.195,148.515L79.675,153.675L80.395,158.835L81.355,163.875L82.675,168.915L84.235,173.835L86.035,178.635L88.195,183.315L90.595,187.875L93.235,192.435L96.115,196.635L99.235,200.835L102.475,204.795L106.075,208.515L109.795,212.115L113.755,215.355L117.955,218.475L122.155,221.355L126.715,223.995L131.275,226.395L135.955,228.555L140.755,230.355L145.675,231.915L150.715,233.235L155.755,234.195L160.915,234.915L166.075,235.395L171.235,235.515L176.395,235.395L181.555,234.915L186.715,234.195L191.755,233.235L196.795,231.915L201.715,230.355L206.515,228.555L211.195,226.395L215.755,223.995L220.315,221.355L224.515,218.475L228.715,215.355L232.675,212.115L236.395,208.515L239.995,204.795L243.235,200.835L246.355,196.635L249.235,192.435L251.875,187.875L254.275,183.315L256.435,178.635L258.235,173.835L259.795,168.915L261.115,163.875L262.075,158.835L262.795,153.675L263.275,148.515L263.395,143.355L263.275,138.195L262.795,133.035L262.075,127.875L261.115,122.835L259.795,117.795L258.235,112.875L256.435,108.075L254.275,103.395L251.875,98.835L249.235,94.275L246.355,90.075L243.235,85.875L239.995,81.915L236.395,78.195L232.675,74.595L228.715,71.355L224.515,68.235L220.315,65.355L215.755,62.715L211.195,60.315L206.515,58.155L201.715,56.355L196.795,54.795L191.755,53.475L186.715,52.515L181.555,51.795L176.395,51.315L171.235,51.195Z" style="fill:none;fill-rule:nonzero;stroke:black;stroke-width:1.44px;"/>
    </g>
</svg>
