<?xml version="1.0" encoding="UTF-8" standalone="no"?>
<!DOCTYPE svg PUBLIC "-//W3C//DTD SVG 1.1//EN" "http://www.w3.org/Graphics/SVG/1.1/DTD/svg11.dtd">
<svg width="842px" height="1191px" version="1.1" xmlns="http://www.w3.org/2000/svg" xmlns:xlink="http://www.w3.org/1999/xlink" xml:space="preserve" xmlns:serif="http://www.serif.com/" style="fill-rule:evenodd;clip-rule:evenodd;stroke-linecap:round;stroke-linejoin:bevel;stroke-miterlimit:10;">
    <g id="Top-Wheel" serif:id="Top Wheel">
        <path d="M171.239,235.757L176.399,235.637L181.559,235.157L186.719,234.437L191.759,233.477L196.799,232.157L201.719,230.597L206.519,228.797L211.199,226.637L215.759,224.237L220.319,221.597L224.519,218.717L228.719,215.597L232.679,212.357L236.399,208.757L239.999,205.037L243.239,201.077L246.359,196.877L249.239,192.677L251.879,188.117L254.279,183.557L256.439,178.877L258.239,174.077L259.799,169.157L261.119,164.117L262.079,159.077L262.799,153.917L263.279,148.757L263.399,143.597L263.279,138.437L262.799,133.277L262.079,128.117L261.119,123.077L259.799,118.037L258.239,113.117L256.439,108.317L254.279,103.637L251.879,99.077L249.239,94.517L246.359,90.317L243.239,86.117L239.999,82.157L236.399,78.437L232.679,74.837L228.719,71.597L224.519,68.477L220.319,65.597L215.759,62.957L211.199,60.557L206.519,58.397L201.719,56.597L196.799,55.037L191.759,53.717L186.719,52.757L181.559,52.037L176.399,51.557L171.239,51.437L166.079,51.557L160.919,52.037L155.759,52.757L150.719,53.717L145.679,55.037L140.759,56.597L135.959,58.397L131.279,60.557L126.719,62.957L122.159,65.597L117.959,68.477L113.759,71.597L109.799,74.837L106.079,78.437L102.479,82.157L99.239,86.117L96.119,90.317L93.239,94.517L90.599,99.077L88.199,103.637L86.039,108.317L84.239,113.117L82.679,118.037L81.359,123.077L80.399,128.117L79.679,133.277L79.199,138.437L79.079,143.597L79.199,148.757L79.679,153.917L80.399,159.077L81.359,164.117L82.679,169.157L84.239,174.077L86.039,178.877L88.199,183.557L90.599,188.117L93.239,192.677L96.119,196.877L99.239,201.077L102.479,205.037L106.079,208.757L109.799,212.357L113.759,215.597L117.959,218.717L122.159,221.597L126.719,224.237L131.279,226.637L135.959,228.797L140.759,230.597L145.679,232.157L150.719,233.477L155.759,234.437L160.919,235.157L166.079,235.637L171.239,235.757Z" style="fill:none;fill-rule:nonzero;stroke:black;stroke-width:1.44px;"/>
        <path d="M254.401,143.652C254.401,131.384 244.441,121.424 232.173,121.424L213.879,121.424C201.611,121.424 191.651,131.384 191.651,143.652C191.651,155.92 201.611,165.88 213.879,165.88L232.173,165.88C244.441,165.88 254.401,155.92 254.401,143.652Z" style="fill:none;stroke:black;stroke-width:0.42px;stroke-linejoin:round;stroke-miterlimit:1.5;"/>
        <path d="M264.479,410.117L204.959,239.957M137.759,47.357L134.399,37.997" style="fill-rule:nonzero;stroke:rgb(0,4,255);stroke-width:0.72px;stroke-linejoin:round;"/>
        <path d="M270.097,385.7L271.666,386.349L271.353,387.166L269.702,386.488C269.287,387.042 268.898,387.454 268.536,387.724C268.061,388.081 267.493,388.375 266.832,388.606C265.878,388.94 264.96,389.045 264.079,388.921C263.198,388.796 262.445,388.452 261.819,387.888C261.193,387.325 260.743,386.651 260.468,385.867C260.263,385.282 260.16,384.723 260.16,384.19C260.159,383.781 260.254,383.27 260.443,382.656L258.874,382.006L259.187,381.19L260.832,381.87C261.318,381.233 261.76,380.767 262.158,380.47C262.557,380.174 263.07,379.916 263.697,379.696C264.655,379.361 265.575,379.253 266.457,379.372C267.339,379.492 268.093,379.828 268.72,380.382C269.347,380.936 269.808,381.634 270.104,382.478C270.302,383.046 270.401,383.569 270.4,384.048C270.399,384.527 270.298,385.077 270.097,385.7ZM268.971,385.237C269.145,384.729 269.237,384.305 269.247,383.966C269.257,383.627 269.191,383.257 269.05,382.854C268.725,381.926 268.142,381.269 267.3,380.883C266.458,380.497 265.412,380.523 264.161,380.961C263.67,381.133 263.249,381.333 262.9,381.56C262.64,381.727 262.34,381.991 262,382.353L268.971,385.237ZM268.499,385.988L261.554,383.116C261.401,383.536 261.32,383.903 261.311,384.215C261.297,384.625 261.363,385.039 261.51,385.459C261.834,386.383 262.428,387.032 263.291,387.405C264.155,387.778 265.176,387.759 266.354,387.346C267.236,387.037 267.951,386.584 268.499,385.988Z" style="fill:rgb(0,35,255);fill-rule:nonzero;"/>
        <path d="M271.713,394.9L271.225,393.793C271.639,393.534 271.915,393.276 272.053,393.018C272.271,392.594 272.301,392.156 272.142,391.702C272.014,391.338 271.8,391.053 271.5,390.849C271.111,390.581 270.628,390.431 270.051,390.4C269.474,390.369 268.717,390.512 267.782,390.83C268.298,390.959 268.728,391.187 269.071,391.514C269.414,391.841 269.662,392.223 269.815,392.66C270.082,393.423 270.028,394.171 269.655,394.904C269.281,395.637 268.649,396.159 267.758,396.471C267.173,396.676 266.586,396.74 265.995,396.664C265.404,396.587 264.898,396.376 264.477,396.028C264.055,395.681 263.747,395.228 263.551,394.668C263.217,393.714 263.295,392.813 263.786,391.966C264.276,391.118 265.327,390.412 266.938,389.848C268.74,389.217 270.166,389.091 271.217,389.47C272.133,389.802 272.763,390.459 273.107,391.442C273.364,392.176 273.369,392.849 273.122,393.461C272.875,394.074 272.405,394.553 271.713,394.9ZM266.057,391.634C265.663,391.772 265.315,391.988 265.014,392.282C264.712,392.575 264.519,392.906 264.436,393.273C264.353,393.64 264.369,393.989 264.485,394.319C264.654,394.803 264.995,395.15 265.506,395.361C266.018,395.572 266.609,395.56 267.279,395.325C267.923,395.1 268.371,394.75 268.621,394.277C268.872,393.804 268.906,393.306 268.723,392.785C268.542,392.268 268.203,391.894 267.706,391.664C267.209,391.433 266.659,391.423 266.057,391.634Z" style="fill:rgb(0,35,255);fill-rule:nonzero;"/>
        <path d="M267.586,397.853L268.108,399.019C267.554,399.313 267.187,399.674 267.006,400.101C266.825,400.529 266.815,400.972 266.975,401.429C267.168,401.98 267.539,402.374 268.088,402.61C268.637,402.846 269.255,402.844 269.942,402.603C270.594,402.375 271.045,402.011 271.294,401.512C271.543,401.013 271.564,400.467 271.356,399.874C271.227,399.505 271.026,399.201 270.755,398.963C270.484,398.725 270.185,398.568 269.858,398.492L269.622,397.369L274.726,396.595L276.349,401.23L275.256,401.613L273.953,397.893L271.272,398.268C271.858,398.691 272.258,399.21 272.474,399.825C272.759,400.639 272.717,401.424 272.349,402.181C271.982,402.938 271.355,403.472 270.469,403.782C269.625,404.078 268.81,404.087 268.023,403.811C267.059,403.477 266.396,402.793 266.034,401.759C265.737,400.911 265.732,400.136 266.019,399.433C266.306,398.731 266.828,398.204 267.586,397.853Z" style="fill:rgb(0,35,255);fill-rule:nonzero;"/>
        <path d="M140.999,56.717L201.719,230.597" style="fill:none;fill-rule:nonzero;stroke:rgb(0,37,255);stroke-width:0.72px;stroke-linejoin:round;"/>
        <path id="arow" d="M139.319,46.757L136.199,47.837L140.999,56.717L139.319,46.757Z" style="fill:rgb(0,37,255);"/>
        <path id="aarow" d="M206.519,239.477L203.399,240.557L201.719,230.597L206.519,239.477Z" style="fill:rgb(0,37,255);"/>
    </g>
</svg>
