M48
; DRILL file {KiCad (6.0.5)} date Fri Jun  3 20:06:06 2022
; FORMAT={2:4/ absolute / inch / suppress leading zeros}
; #@! TF.CreationDate,2022-06-03T20:06:06-07:00
; #@! TF.GenerationSoftware,Kicad,Pcbnew,(6.0.5)
; #@! TF.FileFunction,Plated,1,2,PTH
FMAT,2
INCH,TZ
; #@! TA.AperFunction,Plated,PTH,ViaDrill
T1C0.0157
; #@! TA.AperFunction,Plated,PTH,ComponentDrill
T2C0.0394
; #@! TA.AperFunction,Plated,PTH,ComponentDrill
T3C0.0433
; #@! TA.AperFunction,Plated,PTH,ComponentDrill
T4C0.0591
; #@! TA.AperFunction,Plated,PTH,ComponentDrill
T5C0.1181
%
G90
G05
T1
X69685Y-35039
X69908Y-38346
X70262Y-53031
X70341Y-48268
X70381Y-22480
X70420Y-30315
X70538Y-19449
X70709Y-16811
X70709Y-25787
X70984Y-44173
X74173Y-44488
X74252Y-53031
X74291Y-38346
X74331Y-48268
X74370Y-22480
X74370Y-25827
X74409Y-30315
X74488Y-35039
X74528Y-19449
X74698Y-16811
X77887Y-38346
X77966Y-35039
X78005Y-42717
X78228Y-23150
X78241Y-53031
X78320Y-48268
X78360Y-25827
X78399Y-30315
X78517Y-19449
X78688Y-16811
X79094Y-40551
X81732Y-35512
X81877Y-38346
X81995Y-42717
X82231Y-53031
X82310Y-48268
X82349Y-23031
X82349Y-25827
X82388Y-30315
X82507Y-19449
X82677Y-16811
X85866Y-38346
X85906Y-35472
X86220Y-53031
X86299Y-48268
X86339Y-25827
X86378Y-30315
X86457Y-42717
X86496Y-22480
X86667Y-16811
X89843Y-19488
X89934Y-35039
X89974Y-42717
X90118Y-17441
X90210Y-53031
X90289Y-48268
X90328Y-22480
X90328Y-25827
X90367Y-30315
X90709Y-38622
X91969Y-48583
X92598Y-31850
X92717Y-28701
X92756Y-47283
X92874Y-26575
X93845Y-38346
X93924Y-35039
X93963Y-42717
X94199Y-53031
X94278Y-48268
X94318Y-22480
X94318Y-25827
X94961Y-33858
X95551Y-16535
X95787Y-18661
X96350Y-19994
X97638Y-20827
X97835Y-38346
X97953Y-42717
X98110Y-20079
X98189Y-53031
X98228Y-25394
X98268Y-48268
X98307Y-22480
X98307Y-35118
X98346Y-30315
X98661Y-16378
X101824Y-38346
X101903Y-35039
X101942Y-42717
X102178Y-53031
X102257Y-48268
X102297Y-22480
X102297Y-25827
X102336Y-30315
X102454Y-19803
X102598Y-17402
X105551Y-48110
X105814Y-38346
X106168Y-53031
X106286Y-22480
X106325Y-30315
X106339Y-25236
X106444Y-19449
X106457Y-42638
X106614Y-16811
X106969Y-35157
T2
X70866Y-15492
X70866Y-21201
X71850Y-21201
X72835Y-15492
X72835Y-21201
X80591Y-15453
X80591Y-21161
X81575Y-21161
X82559Y-15453
X82559Y-21161
X85886Y-50039
X85886Y-51024
X85886Y-52008
X91594Y-50039
X91594Y-52008
X94949Y-15492
X94949Y-21201
X95934Y-21201
X96918Y-15492
X96918Y-21201
X104606Y-15492
X104606Y-21201
X105591Y-21201
X106575Y-15492
X106575Y-21201
T3
X70008Y-23715
X70008Y-32211
X70008Y-39705
X70008Y-47198
X74008Y-23715
X74008Y-32211
X74008Y-39705
X74008Y-47198
X75791Y-15756
X75791Y-19756
X77244Y-20598
X77244Y-24598
X78551Y-32211
X79220Y-23661
X82551Y-32211
X83220Y-23661
X85701Y-15482
X85701Y-16482
X85701Y-17482
X85701Y-18482
X85701Y-19482
X85701Y-20482
X85701Y-21482
X85701Y-22482
X85701Y-23482
X85701Y-24482
X85701Y-25482
X85701Y-26482
X85701Y-27482
X85701Y-28482
X86661Y-32211
X86701Y-28482
X87701Y-28482
X87801Y-15552
X88581Y-15552
X88701Y-28482
X89701Y-28482
X90661Y-32211
X90701Y-16482
X90701Y-18482
X90701Y-19482
X90701Y-20482
X90701Y-28482
X91701Y-15482
X91701Y-16482
X91701Y-17482
X91701Y-18482
X91701Y-19482
X91701Y-20482
X91701Y-21482
X91701Y-22482
X91701Y-23482
X91701Y-24482
X91701Y-25482
X91701Y-26482
X91701Y-27482
X91701Y-28482
X92874Y-34024
X92874Y-38024
X94850Y-23715
X94850Y-32211
X98850Y-23715
X98850Y-32211
X99874Y-16150
X99874Y-20150
X101650Y-16150
X101650Y-20150
X103000Y-23715
X103000Y-32211
X103000Y-39705
X103000Y-47198
X107000Y-23715
X107000Y-32211
X107000Y-39705
X107000Y-47198
T4
X70665Y-27465
X70665Y-34958
X70665Y-42451
X70665Y-49945
X71181Y-26890
X71181Y-34383
X71181Y-41877
X71181Y-49370
X78943Y-27465
X78943Y-34958
X79459Y-26890
X79459Y-34383
X87220Y-34958
X87736Y-34383
X95498Y-27465
X95498Y-34958
X96014Y-26890
X96014Y-34383
X103776Y-27465
X103776Y-34958
X103776Y-42451
X103776Y-49945
X104291Y-26890
X104291Y-34383
X104291Y-41877
X104291Y-49370
T5
X76417Y-32165
X79803Y-51811
X100354Y-46339
X101102Y-24843
T4
G00X69646Y-18504
M15
G01X69646Y-17992
M16
G05
G00X73149Y-26693
M15
G01X73165Y-26465
M16
G05
G00X73149Y-34186
M15
G01X73165Y-33958
M16
G05
G00X73149Y-41680
M15
G01X73165Y-41451
M16
G05
G00X73149Y-49173
M15
G01X73165Y-48945
M16
G05
G00X74055Y-18504
M15
G01X74055Y-17992
M16
G05
G00X79370Y-18465
M15
G01X79370Y-17953
M16
G05
G00X81427Y-26693
M15
G01X81443Y-26465
M16
G05
G00X81427Y-34186
M15
G01X81443Y-33958
M16
G05
G00X83780Y-18465
M15
G01X83780Y-17953
M16
G05
G00X88583Y-48819
M15
G01X89094Y-48819
M16
G05
G00X88583Y-53228
M15
G01X89094Y-53228
M16
G05
G00X89705Y-34186
M15
G01X89721Y-33958
M16
G05
G00X93729Y-18504
M15
G01X93729Y-17992
M16
G05
G00X97982Y-26693
M15
G01X97998Y-26465
M16
G05
G00X97982Y-34186
M15
G01X97998Y-33958
M16
G05
G00X98138Y-18504
M15
G01X98138Y-17992
M16
G05
G00X103386Y-18504
M15
G01X103386Y-17992
M16
G05
G00X106260Y-26693
M15
G01X106276Y-26465
M16
G05
G00X106260Y-34186
M15
G01X106276Y-33958
M16
G05
G00X106260Y-41680
M15
G01X106276Y-41451
M16
G05
G00X106260Y-49173
M15
G01X106276Y-48945
M16
G05
G00X107795Y-18504
M15
G01X107795Y-17992
M16
G05
T0
M30
