%TF.GenerationSoftware,KiCad,Pcbnew,(6.0.5)*%
%TF.CreationDate,2022-06-03T20:05:36-07:00*%
%TF.ProjectId,big Wheel circuitboard,62696720-5768-4656-956c-206369726375,01*%
%TF.SameCoordinates,Original*%
%TF.FileFunction,Legend,Top*%
%TF.FilePolarity,Positive*%
%FSLAX46Y46*%
G04 Gerber Fmt 4.6, Leading zero omitted, Abs format (unit mm)*
G04 Created by KiCad (PCBNEW (6.0.5)) date 2022-06-03 20:05:36*
%MOMM*%
%LPD*%
G01*
G04 APERTURE LIST*
%ADD10C,0.150000*%
%ADD11C,0.300000*%
%ADD12C,0.120000*%
%ADD13C,0.100000*%
G04 APERTURE END LIST*
D10*
%TO.C,SW18*%
X266490476Y-56704761D02*
X266633333Y-56752380D01*
X266871428Y-56752380D01*
X266966666Y-56704761D01*
X267014285Y-56657142D01*
X267061904Y-56561904D01*
X267061904Y-56466666D01*
X267014285Y-56371428D01*
X266966666Y-56323809D01*
X266871428Y-56276190D01*
X266680952Y-56228571D01*
X266585714Y-56180952D01*
X266538095Y-56133333D01*
X266490476Y-56038095D01*
X266490476Y-55942857D01*
X266538095Y-55847619D01*
X266585714Y-55800000D01*
X266680952Y-55752380D01*
X266919047Y-55752380D01*
X267061904Y-55800000D01*
X267395238Y-55752380D02*
X267633333Y-56752380D01*
X267823809Y-56038095D01*
X268014285Y-56752380D01*
X268252380Y-55752380D01*
X269157142Y-56752380D02*
X268585714Y-56752380D01*
X268871428Y-56752380D02*
X268871428Y-55752380D01*
X268776190Y-55895238D01*
X268680952Y-55990476D01*
X268585714Y-56038095D01*
X269728571Y-56180952D02*
X269633333Y-56133333D01*
X269585714Y-56085714D01*
X269538095Y-55990476D01*
X269538095Y-55942857D01*
X269585714Y-55847619D01*
X269633333Y-55800000D01*
X269728571Y-55752380D01*
X269919047Y-55752380D01*
X270014285Y-55800000D01*
X270061904Y-55847619D01*
X270109523Y-55942857D01*
X270109523Y-55990476D01*
X270061904Y-56085714D01*
X270014285Y-56133333D01*
X269919047Y-56180952D01*
X269728571Y-56180952D01*
X269633333Y-56228571D01*
X269585714Y-56276190D01*
X269538095Y-56371428D01*
X269538095Y-56561904D01*
X269585714Y-56657142D01*
X269633333Y-56704761D01*
X269728571Y-56752380D01*
X269919047Y-56752380D01*
X270014285Y-56704761D01*
X270061904Y-56657142D01*
X270109523Y-56561904D01*
X270109523Y-56371428D01*
X270061904Y-56276190D01*
X270014285Y-56228571D01*
X269919047Y-56180952D01*
%TO.C,D9*%
X233161904Y-82269046D02*
X233161904Y-81269046D01*
X233400000Y-81269046D01*
X233542857Y-81316666D01*
X233638095Y-81411904D01*
X233685714Y-81507142D01*
X233733333Y-81697618D01*
X233733333Y-81840475D01*
X233685714Y-82030951D01*
X233638095Y-82126189D01*
X233542857Y-82221427D01*
X233400000Y-82269046D01*
X233161904Y-82269046D01*
X234209523Y-82269046D02*
X234400000Y-82269046D01*
X234495238Y-82221427D01*
X234542857Y-82173808D01*
X234638095Y-82030951D01*
X234685714Y-81840475D01*
X234685714Y-81459523D01*
X234638095Y-81364285D01*
X234590476Y-81316666D01*
X234495238Y-81269046D01*
X234304761Y-81269046D01*
X234209523Y-81316666D01*
X234161904Y-81364285D01*
X234114285Y-81459523D01*
X234114285Y-81697618D01*
X234161904Y-81792856D01*
X234209523Y-81840475D01*
X234304761Y-81888094D01*
X234495238Y-81888094D01*
X234590476Y-81840475D01*
X234638095Y-81792856D01*
X234685714Y-81697618D01*
X217838095Y-82269046D02*
X217838095Y-81269046D01*
X218409523Y-82269046D02*
X217980952Y-81697618D01*
X218409523Y-81269046D02*
X217838095Y-81840475D01*
%TO.C,D18*%
X258742796Y-55614285D02*
X257742796Y-55614285D01*
X257742796Y-55376190D01*
X257790416Y-55233333D01*
X257885654Y-55138095D01*
X257980892Y-55090476D01*
X258171368Y-55042857D01*
X258314225Y-55042857D01*
X258504701Y-55090476D01*
X258599939Y-55138095D01*
X258695177Y-55233333D01*
X258742796Y-55376190D01*
X258742796Y-55614285D01*
X258742796Y-54090476D02*
X258742796Y-54661904D01*
X258742796Y-54376190D02*
X257742796Y-54376190D01*
X257885654Y-54471428D01*
X257980892Y-54566666D01*
X258028511Y-54661904D01*
X258171368Y-53519047D02*
X258123749Y-53614285D01*
X258076130Y-53661904D01*
X257980892Y-53709523D01*
X257933273Y-53709523D01*
X257838035Y-53661904D01*
X257790416Y-53614285D01*
X257742796Y-53519047D01*
X257742796Y-53328571D01*
X257790416Y-53233333D01*
X257838035Y-53185714D01*
X257933273Y-53138095D01*
X257980892Y-53138095D01*
X258076130Y-53185714D01*
X258123749Y-53233333D01*
X258171368Y-53328571D01*
X258171368Y-53519047D01*
X258218987Y-53614285D01*
X258266606Y-53661904D01*
X258361844Y-53709523D01*
X258552320Y-53709523D01*
X258647558Y-53661904D01*
X258695177Y-53614285D01*
X258742796Y-53519047D01*
X258742796Y-53328571D01*
X258695177Y-53233333D01*
X258647558Y-53185714D01*
X258552320Y-53138095D01*
X258361844Y-53138095D01*
X258266606Y-53185714D01*
X258218987Y-53233333D01*
X258171368Y-53328571D01*
X258642796Y-39461904D02*
X257642796Y-39461904D01*
X258642796Y-38890476D02*
X258071368Y-39319047D01*
X257642796Y-38890476D02*
X258214225Y-39461904D01*
%TO.C,U1*%
X225102380Y-56596904D02*
X225911904Y-56596904D01*
X226007142Y-56549285D01*
X226054761Y-56501666D01*
X226102380Y-56406428D01*
X226102380Y-56215952D01*
X226054761Y-56120714D01*
X226007142Y-56073095D01*
X225911904Y-56025476D01*
X225102380Y-56025476D01*
X226102380Y-55025476D02*
X226102380Y-55596904D01*
X226102380Y-55311190D02*
X225102380Y-55311190D01*
X225245238Y-55406428D01*
X225340476Y-55501666D01*
X225388095Y-55596904D01*
X225556666Y-66568333D02*
X224856666Y-66568333D01*
X225356666Y-66335000D01*
X224856666Y-66101666D01*
X225556666Y-66101666D01*
X225556666Y-65768333D02*
X224856666Y-65768333D01*
X225556666Y-65368333D02*
X225156666Y-65668333D01*
X224856666Y-65368333D02*
X225256666Y-65768333D01*
X225556666Y-64735000D02*
X225556666Y-65068333D01*
X224856666Y-65068333D01*
X224923333Y-64535000D02*
X224890000Y-64501666D01*
X224856666Y-64435000D01*
X224856666Y-64268333D01*
X224890000Y-64201666D01*
X224923333Y-64168333D01*
X224990000Y-64135000D01*
X225056666Y-64135000D01*
X225156666Y-64168333D01*
X225556666Y-64568333D01*
X225556666Y-64135000D01*
X224856666Y-63535000D02*
X224856666Y-63668333D01*
X224890000Y-63735000D01*
X224923333Y-63768333D01*
X225023333Y-63835000D01*
X225156666Y-63868333D01*
X225423333Y-63868333D01*
X225490000Y-63835000D01*
X225523333Y-63801666D01*
X225556666Y-63735000D01*
X225556666Y-63601666D01*
X225523333Y-63535000D01*
X225490000Y-63501666D01*
X225423333Y-63468333D01*
X225256666Y-63468333D01*
X225190000Y-63501666D01*
X225156666Y-63535000D01*
X225123333Y-63601666D01*
X225123333Y-63735000D01*
X225156666Y-63801666D01*
X225190000Y-63835000D01*
X225256666Y-63868333D01*
X224856666Y-63235000D02*
X224856666Y-62768333D01*
X225556666Y-63235000D01*
X225556666Y-62768333D01*
X224856666Y-62201666D02*
X224856666Y-62335000D01*
X224890000Y-62401666D01*
X224923333Y-62435000D01*
X225023333Y-62501666D01*
X225156666Y-62535000D01*
X225423333Y-62535000D01*
X225490000Y-62501666D01*
X225523333Y-62468333D01*
X225556666Y-62401666D01*
X225556666Y-62268333D01*
X225523333Y-62201666D01*
X225490000Y-62168333D01*
X225423333Y-62135000D01*
X225256666Y-62135000D01*
X225190000Y-62168333D01*
X225156666Y-62201666D01*
X225123333Y-62268333D01*
X225123333Y-62401666D01*
X225156666Y-62468333D01*
X225190000Y-62501666D01*
X225256666Y-62535000D01*
X225090000Y-61535000D02*
X225556666Y-61535000D01*
X224823333Y-61701666D02*
X225323333Y-61868333D01*
X225323333Y-61435000D01*
X224856666Y-61268333D02*
X225556666Y-61035000D01*
X224856666Y-60801666D01*
X225190000Y-60335000D02*
X225190000Y-60568333D01*
X225556666Y-60568333D02*
X224856666Y-60568333D01*
X224856666Y-60235000D01*
X224856666Y-60068333D02*
X224856666Y-59668333D01*
X225556666Y-59868333D02*
X224856666Y-59868333D01*
X225090000Y-59135000D02*
X225556666Y-59135000D01*
X224823333Y-59301666D02*
X225323333Y-59468333D01*
X225323333Y-59035000D01*
%TO.C,SW8*%
X191166666Y-122504761D02*
X191309523Y-122552380D01*
X191547619Y-122552380D01*
X191642857Y-122504761D01*
X191690476Y-122457142D01*
X191738095Y-122361904D01*
X191738095Y-122266666D01*
X191690476Y-122171428D01*
X191642857Y-122123809D01*
X191547619Y-122076190D01*
X191357142Y-122028571D01*
X191261904Y-121980952D01*
X191214285Y-121933333D01*
X191166666Y-121838095D01*
X191166666Y-121742857D01*
X191214285Y-121647619D01*
X191261904Y-121600000D01*
X191357142Y-121552380D01*
X191595238Y-121552380D01*
X191738095Y-121600000D01*
X192071428Y-121552380D02*
X192309523Y-122552380D01*
X192500000Y-121838095D01*
X192690476Y-122552380D01*
X192928571Y-121552380D01*
X193452380Y-121980952D02*
X193357142Y-121933333D01*
X193309523Y-121885714D01*
X193261904Y-121790476D01*
X193261904Y-121742857D01*
X193309523Y-121647619D01*
X193357142Y-121600000D01*
X193452380Y-121552380D01*
X193642857Y-121552380D01*
X193738095Y-121600000D01*
X193785714Y-121647619D01*
X193833333Y-121742857D01*
X193833333Y-121790476D01*
X193785714Y-121885714D01*
X193738095Y-121933333D01*
X193642857Y-121980952D01*
X193452380Y-121980952D01*
X193357142Y-122028571D01*
X193309523Y-122076190D01*
X193261904Y-122171428D01*
X193261904Y-122361904D01*
X193309523Y-122457142D01*
X193357142Y-122504761D01*
X193452380Y-122552380D01*
X193642857Y-122552380D01*
X193738095Y-122504761D01*
X193785714Y-122457142D01*
X193833333Y-122361904D01*
X193833333Y-122171428D01*
X193785714Y-122076190D01*
X193738095Y-122028571D01*
X193642857Y-121980952D01*
%TO.C,D1*%
X193052380Y-53938095D02*
X192052380Y-53938095D01*
X192052380Y-53700000D01*
X192100000Y-53557142D01*
X192195238Y-53461904D01*
X192290476Y-53414285D01*
X192480952Y-53366666D01*
X192623809Y-53366666D01*
X192814285Y-53414285D01*
X192909523Y-53461904D01*
X193004761Y-53557142D01*
X193052380Y-53700000D01*
X193052380Y-53938095D01*
X193052380Y-52414285D02*
X193052380Y-52985714D01*
X193052380Y-52700000D02*
X192052380Y-52700000D01*
X192195238Y-52795238D01*
X192290476Y-52890476D01*
X192338095Y-52985714D01*
X192852380Y-38361904D02*
X191852380Y-38361904D01*
X192852380Y-37790476D02*
X192280952Y-38219047D01*
X191852380Y-37790476D02*
X192423809Y-38361904D01*
%TO.C,SW12*%
X256490476Y-103504761D02*
X256633333Y-103552380D01*
X256871428Y-103552380D01*
X256966666Y-103504761D01*
X257014285Y-103457142D01*
X257061904Y-103361904D01*
X257061904Y-103266666D01*
X257014285Y-103171428D01*
X256966666Y-103123809D01*
X256871428Y-103076190D01*
X256680952Y-103028571D01*
X256585714Y-102980952D01*
X256538095Y-102933333D01*
X256490476Y-102838095D01*
X256490476Y-102742857D01*
X256538095Y-102647619D01*
X256585714Y-102600000D01*
X256680952Y-102552380D01*
X256919047Y-102552380D01*
X257061904Y-102600000D01*
X257395238Y-102552380D02*
X257633333Y-103552380D01*
X257823809Y-102838095D01*
X258014285Y-103552380D01*
X258252380Y-102552380D01*
X259157142Y-103552380D02*
X258585714Y-103552380D01*
X258871428Y-103552380D02*
X258871428Y-102552380D01*
X258776190Y-102695238D01*
X258680952Y-102790476D01*
X258585714Y-102838095D01*
X259538095Y-102647619D02*
X259585714Y-102600000D01*
X259680952Y-102552380D01*
X259919047Y-102552380D01*
X260014285Y-102600000D01*
X260061904Y-102647619D01*
X260109523Y-102742857D01*
X260109523Y-102838095D01*
X260061904Y-102980952D01*
X259490476Y-103552380D01*
X260109523Y-103552380D01*
%TO.C,D6*%
X211861904Y-82269046D02*
X211861904Y-81269046D01*
X212100000Y-81269046D01*
X212242857Y-81316666D01*
X212338095Y-81411904D01*
X212385714Y-81507142D01*
X212433333Y-81697618D01*
X212433333Y-81840475D01*
X212385714Y-82030951D01*
X212338095Y-82126189D01*
X212242857Y-82221427D01*
X212100000Y-82269046D01*
X211861904Y-82269046D01*
X213290476Y-81269046D02*
X213100000Y-81269046D01*
X213004761Y-81316666D01*
X212957142Y-81364285D01*
X212861904Y-81507142D01*
X212814285Y-81697618D01*
X212814285Y-82078570D01*
X212861904Y-82173808D01*
X212909523Y-82221427D01*
X213004761Y-82269046D01*
X213195238Y-82269046D01*
X213290476Y-82221427D01*
X213338095Y-82173808D01*
X213385714Y-82078570D01*
X213385714Y-81840475D01*
X213338095Y-81745237D01*
X213290476Y-81697618D01*
X213195238Y-81649999D01*
X213004761Y-81649999D01*
X212909523Y-81697618D01*
X212861904Y-81745237D01*
X212814285Y-81840475D01*
%TO.C,H4*%
X254138095Y-114152380D02*
X254138095Y-113152380D01*
X254138095Y-113628571D02*
X254709523Y-113628571D01*
X254709523Y-114152380D02*
X254709523Y-113152380D01*
X255614285Y-113485714D02*
X255614285Y-114152380D01*
X255376190Y-113104761D02*
X255138095Y-113819047D01*
X255757142Y-113819047D01*
%TO.C,D3*%
X182161904Y-58218880D02*
X182161904Y-57218880D01*
X182400000Y-57218880D01*
X182542857Y-57266500D01*
X182638095Y-57361738D01*
X182685714Y-57456976D01*
X182733333Y-57647452D01*
X182733333Y-57790309D01*
X182685714Y-57980785D01*
X182638095Y-58076023D01*
X182542857Y-58171261D01*
X182400000Y-58218880D01*
X182161904Y-58218880D01*
X183066666Y-57218880D02*
X183685714Y-57218880D01*
X183352380Y-57599833D01*
X183495238Y-57599833D01*
X183590476Y-57647452D01*
X183638095Y-57695071D01*
X183685714Y-57790309D01*
X183685714Y-58028404D01*
X183638095Y-58123642D01*
X183590476Y-58171261D01*
X183495238Y-58218880D01*
X183209523Y-58218880D01*
X183114285Y-58171261D01*
X183066666Y-58123642D01*
X177558095Y-58588880D02*
X177558095Y-57588880D01*
X178129523Y-58588880D02*
X177700952Y-58017452D01*
X178129523Y-57588880D02*
X177558095Y-58160309D01*
%TO.C,SW9*%
X217004761Y-92633333D02*
X217052380Y-92490476D01*
X217052380Y-92252380D01*
X217004761Y-92157142D01*
X216957142Y-92109523D01*
X216861904Y-92061904D01*
X216766666Y-92061904D01*
X216671428Y-92109523D01*
X216623809Y-92157142D01*
X216576190Y-92252380D01*
X216528571Y-92442857D01*
X216480952Y-92538095D01*
X216433333Y-92585714D01*
X216338095Y-92633333D01*
X216242857Y-92633333D01*
X216147619Y-92585714D01*
X216100000Y-92538095D01*
X216052380Y-92442857D01*
X216052380Y-92204761D01*
X216100000Y-92061904D01*
X216052380Y-91728571D02*
X217052380Y-91490476D01*
X216338095Y-91300000D01*
X217052380Y-91109523D01*
X216052380Y-90871428D01*
X217052380Y-90442857D02*
X217052380Y-90252380D01*
X217004761Y-90157142D01*
X216957142Y-90109523D01*
X216814285Y-90014285D01*
X216623809Y-89966666D01*
X216242857Y-89966666D01*
X216147619Y-90014285D01*
X216100000Y-90061904D01*
X216052380Y-90157142D01*
X216052380Y-90347619D01*
X216100000Y-90442857D01*
X216147619Y-90490476D01*
X216242857Y-90538095D01*
X216480952Y-90538095D01*
X216576190Y-90490476D01*
X216623809Y-90442857D01*
X216671428Y-90347619D01*
X216671428Y-90157142D01*
X216623809Y-90061904D01*
X216576190Y-90014285D01*
X216480952Y-89966666D01*
%TO.C,SW5*%
X191466666Y-88204761D02*
X191609523Y-88252380D01*
X191847619Y-88252380D01*
X191942857Y-88204761D01*
X191990476Y-88157142D01*
X192038095Y-88061904D01*
X192038095Y-87966666D01*
X191990476Y-87871428D01*
X191942857Y-87823809D01*
X191847619Y-87776190D01*
X191657142Y-87728571D01*
X191561904Y-87680952D01*
X191514285Y-87633333D01*
X191466666Y-87538095D01*
X191466666Y-87442857D01*
X191514285Y-87347619D01*
X191561904Y-87300000D01*
X191657142Y-87252380D01*
X191895238Y-87252380D01*
X192038095Y-87300000D01*
X192371428Y-87252380D02*
X192609523Y-88252380D01*
X192800000Y-87538095D01*
X192990476Y-88252380D01*
X193228571Y-87252380D01*
X194085714Y-87252380D02*
X193609523Y-87252380D01*
X193561904Y-87728571D01*
X193609523Y-87680952D01*
X193704761Y-87633333D01*
X193942857Y-87633333D01*
X194038095Y-87680952D01*
X194085714Y-87728571D01*
X194133333Y-87823809D01*
X194133333Y-88061904D01*
X194085714Y-88157142D01*
X194038095Y-88204761D01*
X193942857Y-88252380D01*
X193704761Y-88252380D01*
X193609523Y-88204761D01*
X193561904Y-88157142D01*
%TO.C,SW3*%
X190666666Y-65104761D02*
X190809523Y-65152380D01*
X191047619Y-65152380D01*
X191142857Y-65104761D01*
X191190476Y-65057142D01*
X191238095Y-64961904D01*
X191238095Y-64866666D01*
X191190476Y-64771428D01*
X191142857Y-64723809D01*
X191047619Y-64676190D01*
X190857142Y-64628571D01*
X190761904Y-64580952D01*
X190714285Y-64533333D01*
X190666666Y-64438095D01*
X190666666Y-64342857D01*
X190714285Y-64247619D01*
X190761904Y-64200000D01*
X190857142Y-64152380D01*
X191095238Y-64152380D01*
X191238095Y-64200000D01*
X191571428Y-64152380D02*
X191809523Y-65152380D01*
X192000000Y-64438095D01*
X192190476Y-65152380D01*
X192428571Y-64152380D01*
X192714285Y-64152380D02*
X193333333Y-64152380D01*
X193000000Y-64533333D01*
X193142857Y-64533333D01*
X193238095Y-64580952D01*
X193285714Y-64628571D01*
X193333333Y-64723809D01*
X193333333Y-64961904D01*
X193285714Y-65057142D01*
X193238095Y-65104761D01*
X193142857Y-65152380D01*
X192857142Y-65152380D01*
X192761904Y-65104761D01*
X192714285Y-65057142D01*
%TO.C,D10*%
X236652380Y-85014285D02*
X235652380Y-85014285D01*
X235652380Y-84776190D01*
X235700000Y-84633333D01*
X235795238Y-84538095D01*
X235890476Y-84490476D01*
X236080952Y-84442857D01*
X236223809Y-84442857D01*
X236414285Y-84490476D01*
X236509523Y-84538095D01*
X236604761Y-84633333D01*
X236652380Y-84776190D01*
X236652380Y-85014285D01*
X236652380Y-83490476D02*
X236652380Y-84061904D01*
X236652380Y-83776190D02*
X235652380Y-83776190D01*
X235795238Y-83871428D01*
X235890476Y-83966666D01*
X235938095Y-84061904D01*
X235652380Y-82871428D02*
X235652380Y-82776190D01*
X235700000Y-82680952D01*
X235747619Y-82633333D01*
X235842857Y-82585714D01*
X236033333Y-82538095D01*
X236271428Y-82538095D01*
X236461904Y-82585714D01*
X236557142Y-82633333D01*
X236604761Y-82680952D01*
X236652380Y-82776190D01*
X236652380Y-82871428D01*
X236604761Y-82966666D01*
X236557142Y-83014285D01*
X236461904Y-83061904D01*
X236271428Y-83109523D01*
X236033333Y-83109523D01*
X235842857Y-83061904D01*
X235747619Y-83014285D01*
X235700000Y-82966666D01*
X235652380Y-82871428D01*
X236452380Y-98961904D02*
X235452380Y-98961904D01*
X236452380Y-98390476D02*
X235880952Y-98819047D01*
X235452380Y-98390476D02*
X236023809Y-98961904D01*
%TO.C,SW17*%
X242190476Y-56604761D02*
X242333333Y-56652380D01*
X242571428Y-56652380D01*
X242666666Y-56604761D01*
X242714285Y-56557142D01*
X242761904Y-56461904D01*
X242761904Y-56366666D01*
X242714285Y-56271428D01*
X242666666Y-56223809D01*
X242571428Y-56176190D01*
X242380952Y-56128571D01*
X242285714Y-56080952D01*
X242238095Y-56033333D01*
X242190476Y-55938095D01*
X242190476Y-55842857D01*
X242238095Y-55747619D01*
X242285714Y-55700000D01*
X242380952Y-55652380D01*
X242619047Y-55652380D01*
X242761904Y-55700000D01*
X243095238Y-55652380D02*
X243333333Y-56652380D01*
X243523809Y-55938095D01*
X243714285Y-56652380D01*
X243952380Y-55652380D01*
X244857142Y-56652380D02*
X244285714Y-56652380D01*
X244571428Y-56652380D02*
X244571428Y-55652380D01*
X244476190Y-55795238D01*
X244380952Y-55890476D01*
X244285714Y-55938095D01*
X245190476Y-55652380D02*
X245857142Y-55652380D01*
X245428571Y-56652380D01*
%TO.C,D7*%
X190261904Y-101302379D02*
X190261904Y-100302379D01*
X190500000Y-100302379D01*
X190642857Y-100349999D01*
X190738095Y-100445237D01*
X190785714Y-100540475D01*
X190833333Y-100730951D01*
X190833333Y-100873808D01*
X190785714Y-101064284D01*
X190738095Y-101159522D01*
X190642857Y-101254760D01*
X190500000Y-101302379D01*
X190261904Y-101302379D01*
X191166666Y-100302379D02*
X191833333Y-100302379D01*
X191404761Y-101302379D01*
X175638095Y-101402379D02*
X175638095Y-100402379D01*
X176209523Y-101402379D02*
X175780952Y-100830951D01*
X176209523Y-100402379D02*
X175638095Y-100973808D01*
%TO.C,D17*%
X254133213Y-55314285D02*
X253133213Y-55314285D01*
X253133213Y-55076190D01*
X253180833Y-54933333D01*
X253276071Y-54838095D01*
X253371309Y-54790476D01*
X253561785Y-54742857D01*
X253704642Y-54742857D01*
X253895118Y-54790476D01*
X253990356Y-54838095D01*
X254085594Y-54933333D01*
X254133213Y-55076190D01*
X254133213Y-55314285D01*
X254133213Y-53790476D02*
X254133213Y-54361904D01*
X254133213Y-54076190D02*
X253133213Y-54076190D01*
X253276071Y-54171428D01*
X253371309Y-54266666D01*
X253418928Y-54361904D01*
X253133213Y-53457142D02*
X253133213Y-52790476D01*
X254133213Y-53219047D01*
X254233213Y-38961904D02*
X253233213Y-38961904D01*
X254233213Y-38390476D02*
X253661785Y-38819047D01*
X253233213Y-38390476D02*
X253804642Y-38961904D01*
%TO.C,SW15*%
X244390476Y-64604761D02*
X244533333Y-64652380D01*
X244771428Y-64652380D01*
X244866666Y-64604761D01*
X244914285Y-64557142D01*
X244961904Y-64461904D01*
X244961904Y-64366666D01*
X244914285Y-64271428D01*
X244866666Y-64223809D01*
X244771428Y-64176190D01*
X244580952Y-64128571D01*
X244485714Y-64080952D01*
X244438095Y-64033333D01*
X244390476Y-63938095D01*
X244390476Y-63842857D01*
X244438095Y-63747619D01*
X244485714Y-63700000D01*
X244580952Y-63652380D01*
X244819047Y-63652380D01*
X244961904Y-63700000D01*
X245295238Y-63652380D02*
X245533333Y-64652380D01*
X245723809Y-63938095D01*
X245914285Y-64652380D01*
X246152380Y-63652380D01*
X247057142Y-64652380D02*
X246485714Y-64652380D01*
X246771428Y-64652380D02*
X246771428Y-63652380D01*
X246676190Y-63795238D01*
X246580952Y-63890476D01*
X246485714Y-63938095D01*
X247961904Y-63652380D02*
X247485714Y-63652380D01*
X247438095Y-64128571D01*
X247485714Y-64080952D01*
X247580952Y-64033333D01*
X247819047Y-64033333D01*
X247914285Y-64080952D01*
X247961904Y-64128571D01*
X248009523Y-64223809D01*
X248009523Y-64461904D01*
X247961904Y-64557142D01*
X247914285Y-64604761D01*
X247819047Y-64652380D01*
X247580952Y-64652380D01*
X247485714Y-64604761D01*
X247438095Y-64557142D01*
%TO.C,D4*%
X213661904Y-60652380D02*
X213661904Y-59652380D01*
X213900000Y-59652380D01*
X214042857Y-59700000D01*
X214138095Y-59795238D01*
X214185714Y-59890476D01*
X214233333Y-60080952D01*
X214233333Y-60223809D01*
X214185714Y-60414285D01*
X214138095Y-60509523D01*
X214042857Y-60604761D01*
X213900000Y-60652380D01*
X213661904Y-60652380D01*
X215090476Y-59985714D02*
X215090476Y-60652380D01*
X214852380Y-59604761D02*
X214614285Y-60319047D01*
X215233333Y-60319047D01*
X199038095Y-60752380D02*
X199038095Y-59752380D01*
X199609523Y-60752380D02*
X199180952Y-60180952D01*
X199609523Y-59752380D02*
X199038095Y-60323809D01*
%TO.C,SW13*%
X244590476Y-100204761D02*
X244733333Y-100252380D01*
X244971428Y-100252380D01*
X245066666Y-100204761D01*
X245114285Y-100157142D01*
X245161904Y-100061904D01*
X245161904Y-99966666D01*
X245114285Y-99871428D01*
X245066666Y-99823809D01*
X244971428Y-99776190D01*
X244780952Y-99728571D01*
X244685714Y-99680952D01*
X244638095Y-99633333D01*
X244590476Y-99538095D01*
X244590476Y-99442857D01*
X244638095Y-99347619D01*
X244685714Y-99300000D01*
X244780952Y-99252380D01*
X245019047Y-99252380D01*
X245161904Y-99300000D01*
X245495238Y-99252380D02*
X245733333Y-100252380D01*
X245923809Y-99538095D01*
X246114285Y-100252380D01*
X246352380Y-99252380D01*
X247257142Y-100252380D02*
X246685714Y-100252380D01*
X246971428Y-100252380D02*
X246971428Y-99252380D01*
X246876190Y-99395238D01*
X246780952Y-99490476D01*
X246685714Y-99538095D01*
X247590476Y-99252380D02*
X248209523Y-99252380D01*
X247876190Y-99633333D01*
X248019047Y-99633333D01*
X248114285Y-99680952D01*
X248161904Y-99728571D01*
X248209523Y-99823809D01*
X248209523Y-100061904D01*
X248161904Y-100157142D01*
X248114285Y-100204761D01*
X248019047Y-100252380D01*
X247733333Y-100252380D01*
X247638095Y-100204761D01*
X247590476Y-100157142D01*
%TO.C,D13*%
X237085714Y-82269046D02*
X237085714Y-81269046D01*
X237323809Y-81269046D01*
X237466666Y-81316666D01*
X237561904Y-81411904D01*
X237609523Y-81507142D01*
X237657142Y-81697618D01*
X237657142Y-81840475D01*
X237609523Y-82030951D01*
X237561904Y-82126189D01*
X237466666Y-82221427D01*
X237323809Y-82269046D01*
X237085714Y-82269046D01*
X238609523Y-82269046D02*
X238038095Y-82269046D01*
X238323809Y-82269046D02*
X238323809Y-81269046D01*
X238228571Y-81411904D01*
X238133333Y-81507142D01*
X238038095Y-81554761D01*
X238942857Y-81269046D02*
X239561904Y-81269046D01*
X239228571Y-81649999D01*
X239371428Y-81649999D01*
X239466666Y-81697618D01*
X239514285Y-81745237D01*
X239561904Y-81840475D01*
X239561904Y-82078570D01*
X239514285Y-82173808D01*
X239466666Y-82221427D01*
X239371428Y-82269046D01*
X239085714Y-82269046D01*
X238990476Y-82221427D01*
X238942857Y-82173808D01*
X252938095Y-82252380D02*
X252938095Y-81252380D01*
X253509523Y-82252380D02*
X253080952Y-81680952D01*
X253509523Y-81252380D02*
X252938095Y-81823809D01*
%TO.C,D8*%
X189861904Y-120235713D02*
X189861904Y-119235713D01*
X190100000Y-119235713D01*
X190242857Y-119283333D01*
X190338095Y-119378571D01*
X190385714Y-119473809D01*
X190433333Y-119664285D01*
X190433333Y-119807142D01*
X190385714Y-119997618D01*
X190338095Y-120092856D01*
X190242857Y-120188094D01*
X190100000Y-120235713D01*
X189861904Y-120235713D01*
X191004761Y-119664285D02*
X190909523Y-119616666D01*
X190861904Y-119569047D01*
X190814285Y-119473809D01*
X190814285Y-119426190D01*
X190861904Y-119330952D01*
X190909523Y-119283333D01*
X191004761Y-119235713D01*
X191195238Y-119235713D01*
X191290476Y-119283333D01*
X191338095Y-119330952D01*
X191385714Y-119426190D01*
X191385714Y-119473809D01*
X191338095Y-119569047D01*
X191290476Y-119616666D01*
X191195238Y-119664285D01*
X191004761Y-119664285D01*
X190909523Y-119711904D01*
X190861904Y-119759523D01*
X190814285Y-119854761D01*
X190814285Y-120045237D01*
X190861904Y-120140475D01*
X190909523Y-120188094D01*
X191004761Y-120235713D01*
X191195238Y-120235713D01*
X191290476Y-120188094D01*
X191338095Y-120140475D01*
X191385714Y-120045237D01*
X191385714Y-119854761D01*
X191338095Y-119759523D01*
X191290476Y-119711904D01*
X191195238Y-119664285D01*
X175638095Y-120335713D02*
X175638095Y-119335713D01*
X176209523Y-120335713D02*
X175780952Y-119764285D01*
X176209523Y-119335713D02*
X175638095Y-119907142D01*
%TO.C,SW1*%
X181166666Y-56704761D02*
X181309523Y-56752380D01*
X181547619Y-56752380D01*
X181642857Y-56704761D01*
X181690476Y-56657142D01*
X181738095Y-56561904D01*
X181738095Y-56466666D01*
X181690476Y-56371428D01*
X181642857Y-56323809D01*
X181547619Y-56276190D01*
X181357142Y-56228571D01*
X181261904Y-56180952D01*
X181214285Y-56133333D01*
X181166666Y-56038095D01*
X181166666Y-55942857D01*
X181214285Y-55847619D01*
X181261904Y-55800000D01*
X181357142Y-55752380D01*
X181595238Y-55752380D01*
X181738095Y-55800000D01*
X182071428Y-55752380D02*
X182309523Y-56752380D01*
X182500000Y-56038095D01*
X182690476Y-56752380D01*
X182928571Y-55752380D01*
X183833333Y-56752380D02*
X183261904Y-56752380D01*
X183547619Y-56752380D02*
X183547619Y-55752380D01*
X183452380Y-55895238D01*
X183357142Y-55990476D01*
X183261904Y-56038095D01*
%TO.C,SW11*%
X256390476Y-122404761D02*
X256533333Y-122452380D01*
X256771428Y-122452380D01*
X256866666Y-122404761D01*
X256914285Y-122357142D01*
X256961904Y-122261904D01*
X256961904Y-122166666D01*
X256914285Y-122071428D01*
X256866666Y-122023809D01*
X256771428Y-121976190D01*
X256580952Y-121928571D01*
X256485714Y-121880952D01*
X256438095Y-121833333D01*
X256390476Y-121738095D01*
X256390476Y-121642857D01*
X256438095Y-121547619D01*
X256485714Y-121500000D01*
X256580952Y-121452380D01*
X256819047Y-121452380D01*
X256961904Y-121500000D01*
X257295238Y-121452380D02*
X257533333Y-122452380D01*
X257723809Y-121738095D01*
X257914285Y-122452380D01*
X258152380Y-121452380D01*
X259057142Y-122452380D02*
X258485714Y-122452380D01*
X258771428Y-122452380D02*
X258771428Y-121452380D01*
X258676190Y-121595238D01*
X258580952Y-121690476D01*
X258485714Y-121738095D01*
X260009523Y-122452380D02*
X259438095Y-122452380D01*
X259723809Y-122452380D02*
X259723809Y-121452380D01*
X259628571Y-121595238D01*
X259533333Y-121690476D01*
X259438095Y-121738095D01*
%TO.C,SW6*%
X212066666Y-84504761D02*
X212209523Y-84552380D01*
X212447619Y-84552380D01*
X212542857Y-84504761D01*
X212590476Y-84457142D01*
X212638095Y-84361904D01*
X212638095Y-84266666D01*
X212590476Y-84171428D01*
X212542857Y-84123809D01*
X212447619Y-84076190D01*
X212257142Y-84028571D01*
X212161904Y-83980952D01*
X212114285Y-83933333D01*
X212066666Y-83838095D01*
X212066666Y-83742857D01*
X212114285Y-83647619D01*
X212161904Y-83600000D01*
X212257142Y-83552380D01*
X212495238Y-83552380D01*
X212638095Y-83600000D01*
X212971428Y-83552380D02*
X213209523Y-84552380D01*
X213400000Y-83838095D01*
X213590476Y-84552380D01*
X213828571Y-83552380D01*
X214638095Y-83552380D02*
X214447619Y-83552380D01*
X214352380Y-83600000D01*
X214304761Y-83647619D01*
X214209523Y-83790476D01*
X214161904Y-83980952D01*
X214161904Y-84361904D01*
X214209523Y-84457142D01*
X214257142Y-84504761D01*
X214352380Y-84552380D01*
X214542857Y-84552380D01*
X214638095Y-84504761D01*
X214685714Y-84457142D01*
X214733333Y-84361904D01*
X214733333Y-84123809D01*
X214685714Y-84028571D01*
X214638095Y-83980952D01*
X214542857Y-83933333D01*
X214352380Y-83933333D01*
X214257142Y-83980952D01*
X214209523Y-84028571D01*
X214161904Y-84123809D01*
%TO.C,H3*%
X193338095Y-78152380D02*
X193338095Y-77152380D01*
X193338095Y-77628571D02*
X193909523Y-77628571D01*
X193909523Y-78152380D02*
X193909523Y-77152380D01*
X194290476Y-77152380D02*
X194909523Y-77152380D01*
X194576190Y-77533333D01*
X194719047Y-77533333D01*
X194814285Y-77580952D01*
X194861904Y-77628571D01*
X194909523Y-77723809D01*
X194909523Y-77961904D01*
X194861904Y-78057142D01*
X194814285Y-78104761D01*
X194719047Y-78152380D01*
X194433333Y-78152380D01*
X194338095Y-78104761D01*
X194290476Y-78057142D01*
%TO.C,SW14*%
X255290476Y-87904761D02*
X255433333Y-87952380D01*
X255671428Y-87952380D01*
X255766666Y-87904761D01*
X255814285Y-87857142D01*
X255861904Y-87761904D01*
X255861904Y-87666666D01*
X255814285Y-87571428D01*
X255766666Y-87523809D01*
X255671428Y-87476190D01*
X255480952Y-87428571D01*
X255385714Y-87380952D01*
X255338095Y-87333333D01*
X255290476Y-87238095D01*
X255290476Y-87142857D01*
X255338095Y-87047619D01*
X255385714Y-87000000D01*
X255480952Y-86952380D01*
X255719047Y-86952380D01*
X255861904Y-87000000D01*
X256195238Y-86952380D02*
X256433333Y-87952380D01*
X256623809Y-87238095D01*
X256814285Y-87952380D01*
X257052380Y-86952380D01*
X257957142Y-87952380D02*
X257385714Y-87952380D01*
X257671428Y-87952380D02*
X257671428Y-86952380D01*
X257576190Y-87095238D01*
X257480952Y-87190476D01*
X257385714Y-87238095D01*
X258814285Y-87285714D02*
X258814285Y-87952380D01*
X258576190Y-86904761D02*
X258338095Y-87619047D01*
X258957142Y-87619047D01*
D11*
%TO.C,G\u002A\u002A\u002A*%
X202757428Y-116638000D02*
X202612285Y-116565428D01*
X202394571Y-116565428D01*
X202176857Y-116638000D01*
X202031714Y-116783142D01*
X201959142Y-116928285D01*
X201886571Y-117218571D01*
X201886571Y-117436285D01*
X201959142Y-117726571D01*
X202031714Y-117871714D01*
X202176857Y-118016857D01*
X202394571Y-118089428D01*
X202539714Y-118089428D01*
X202757428Y-118016857D01*
X202830000Y-117944285D01*
X202830000Y-117436285D01*
X202539714Y-117436285D01*
X203700857Y-116565428D02*
X203700857Y-116928285D01*
X203338000Y-116783142D02*
X203700857Y-116928285D01*
X204063714Y-116783142D01*
X203483142Y-117218571D02*
X203700857Y-116928285D01*
X203918571Y-117218571D01*
X204862000Y-116565428D02*
X204862000Y-116928285D01*
X204499142Y-116783142D02*
X204862000Y-116928285D01*
X205224857Y-116783142D01*
X204644285Y-117218571D02*
X204862000Y-116928285D01*
X205079714Y-117218571D01*
X206023142Y-116565428D02*
X206023142Y-116928285D01*
X205660285Y-116783142D02*
X206023142Y-116928285D01*
X206386000Y-116783142D01*
X205805428Y-117218571D02*
X206023142Y-116928285D01*
X206240857Y-117218571D01*
D10*
%TO.C,H1*%
X201938095Y-128052380D02*
X201938095Y-127052380D01*
X201938095Y-127528571D02*
X202509523Y-127528571D01*
X202509523Y-128052380D02*
X202509523Y-127052380D01*
X203509523Y-128052380D02*
X202938095Y-128052380D01*
X203223809Y-128052380D02*
X203223809Y-127052380D01*
X203128571Y-127195238D01*
X203033333Y-127290476D01*
X202938095Y-127338095D01*
%TO.C,SW10*%
X223690476Y-121804761D02*
X223833333Y-121852380D01*
X224071428Y-121852380D01*
X224166666Y-121804761D01*
X224214285Y-121757142D01*
X224261904Y-121661904D01*
X224261904Y-121566666D01*
X224214285Y-121471428D01*
X224166666Y-121423809D01*
X224071428Y-121376190D01*
X223880952Y-121328571D01*
X223785714Y-121280952D01*
X223738095Y-121233333D01*
X223690476Y-121138095D01*
X223690476Y-121042857D01*
X223738095Y-120947619D01*
X223785714Y-120900000D01*
X223880952Y-120852380D01*
X224119047Y-120852380D01*
X224261904Y-120900000D01*
X224595238Y-120852380D02*
X224833333Y-121852380D01*
X225023809Y-121138095D01*
X225214285Y-121852380D01*
X225452380Y-120852380D01*
X226357142Y-121852380D02*
X225785714Y-121852380D01*
X226071428Y-121852380D02*
X226071428Y-120852380D01*
X225976190Y-120995238D01*
X225880952Y-121090476D01*
X225785714Y-121138095D01*
X226976190Y-120852380D02*
X227071428Y-120852380D01*
X227166666Y-120900000D01*
X227214285Y-120947619D01*
X227261904Y-121042857D01*
X227309523Y-121233333D01*
X227309523Y-121471428D01*
X227261904Y-121661904D01*
X227214285Y-121757142D01*
X227166666Y-121804761D01*
X227071428Y-121852380D01*
X226976190Y-121852380D01*
X226880952Y-121804761D01*
X226833333Y-121757142D01*
X226785714Y-121661904D01*
X226738095Y-121471428D01*
X226738095Y-121233333D01*
X226785714Y-121042857D01*
X226833333Y-120947619D01*
X226880952Y-120900000D01*
X226976190Y-120852380D01*
%TO.C,D14*%
X257285714Y-82352380D02*
X257285714Y-81352380D01*
X257523809Y-81352380D01*
X257666666Y-81400000D01*
X257761904Y-81495238D01*
X257809523Y-81590476D01*
X257857142Y-81780952D01*
X257857142Y-81923809D01*
X257809523Y-82114285D01*
X257761904Y-82209523D01*
X257666666Y-82304761D01*
X257523809Y-82352380D01*
X257285714Y-82352380D01*
X258809523Y-82352380D02*
X258238095Y-82352380D01*
X258523809Y-82352380D02*
X258523809Y-81352380D01*
X258428571Y-81495238D01*
X258333333Y-81590476D01*
X258238095Y-81638095D01*
X259666666Y-81685714D02*
X259666666Y-82352380D01*
X259428571Y-81304761D02*
X259190476Y-82019047D01*
X259809523Y-82019047D01*
X273638095Y-82269046D02*
X273638095Y-81269046D01*
X274209523Y-82269046D02*
X273780952Y-81697618D01*
X274209523Y-81269046D02*
X273638095Y-81840475D01*
%TO.C,D15*%
X237185714Y-60688880D02*
X237185714Y-59688880D01*
X237423809Y-59688880D01*
X237566666Y-59736500D01*
X237661904Y-59831738D01*
X237709523Y-59926976D01*
X237757142Y-60117452D01*
X237757142Y-60260309D01*
X237709523Y-60450785D01*
X237661904Y-60546023D01*
X237566666Y-60641261D01*
X237423809Y-60688880D01*
X237185714Y-60688880D01*
X238709523Y-60688880D02*
X238138095Y-60688880D01*
X238423809Y-60688880D02*
X238423809Y-59688880D01*
X238328571Y-59831738D01*
X238233333Y-59926976D01*
X238138095Y-59974595D01*
X239614285Y-59688880D02*
X239138095Y-59688880D01*
X239090476Y-60165071D01*
X239138095Y-60117452D01*
X239233333Y-60069833D01*
X239471428Y-60069833D01*
X239566666Y-60117452D01*
X239614285Y-60165071D01*
X239661904Y-60260309D01*
X239661904Y-60498404D01*
X239614285Y-60593642D01*
X239566666Y-60641261D01*
X239471428Y-60688880D01*
X239233333Y-60688880D01*
X239138095Y-60641261D01*
X239090476Y-60593642D01*
X252738095Y-60788880D02*
X252738095Y-59788880D01*
X253309523Y-60788880D02*
X252880952Y-60217452D01*
X253309523Y-59788880D02*
X252738095Y-60360309D01*
%TO.C,SW16*%
X261890476Y-64704761D02*
X262033333Y-64752380D01*
X262271428Y-64752380D01*
X262366666Y-64704761D01*
X262414285Y-64657142D01*
X262461904Y-64561904D01*
X262461904Y-64466666D01*
X262414285Y-64371428D01*
X262366666Y-64323809D01*
X262271428Y-64276190D01*
X262080952Y-64228571D01*
X261985714Y-64180952D01*
X261938095Y-64133333D01*
X261890476Y-64038095D01*
X261890476Y-63942857D01*
X261938095Y-63847619D01*
X261985714Y-63800000D01*
X262080952Y-63752380D01*
X262319047Y-63752380D01*
X262461904Y-63800000D01*
X262795238Y-63752380D02*
X263033333Y-64752380D01*
X263223809Y-64038095D01*
X263414285Y-64752380D01*
X263652380Y-63752380D01*
X264557142Y-64752380D02*
X263985714Y-64752380D01*
X264271428Y-64752380D02*
X264271428Y-63752380D01*
X264176190Y-63895238D01*
X264080952Y-63990476D01*
X263985714Y-64038095D01*
X265414285Y-63752380D02*
X265223809Y-63752380D01*
X265128571Y-63800000D01*
X265080952Y-63847619D01*
X264985714Y-63990476D01*
X264938095Y-64180952D01*
X264938095Y-64561904D01*
X264985714Y-64657142D01*
X265033333Y-64704761D01*
X265128571Y-64752380D01*
X265319047Y-64752380D01*
X265414285Y-64704761D01*
X265461904Y-64657142D01*
X265509523Y-64561904D01*
X265509523Y-64323809D01*
X265461904Y-64228571D01*
X265414285Y-64180952D01*
X265319047Y-64133333D01*
X265128571Y-64133333D01*
X265033333Y-64180952D01*
X264985714Y-64228571D01*
X264938095Y-64323809D01*
%TO.C,D12*%
X257585714Y-101202379D02*
X257585714Y-100202379D01*
X257823809Y-100202379D01*
X257966666Y-100249999D01*
X258061904Y-100345237D01*
X258109523Y-100440475D01*
X258157142Y-100630951D01*
X258157142Y-100773808D01*
X258109523Y-100964284D01*
X258061904Y-101059522D01*
X257966666Y-101154760D01*
X257823809Y-101202379D01*
X257585714Y-101202379D01*
X259109523Y-101202379D02*
X258538095Y-101202379D01*
X258823809Y-101202379D02*
X258823809Y-100202379D01*
X258728571Y-100345237D01*
X258633333Y-100440475D01*
X258538095Y-100488094D01*
X259490476Y-100297618D02*
X259538095Y-100249999D01*
X259633333Y-100202379D01*
X259871428Y-100202379D01*
X259966666Y-100249999D01*
X260014285Y-100297618D01*
X260061904Y-100392856D01*
X260061904Y-100488094D01*
X260014285Y-100630951D01*
X259442857Y-101202379D01*
X260061904Y-101202379D01*
X273638095Y-101502379D02*
X273638095Y-100502379D01*
X274209523Y-101502379D02*
X273780952Y-100930951D01*
X274209523Y-100502379D02*
X273638095Y-101073808D01*
%TO.C,H2*%
X256138095Y-59352380D02*
X256138095Y-58352380D01*
X256138095Y-58828571D02*
X256709523Y-58828571D01*
X256709523Y-59352380D02*
X256709523Y-58352380D01*
X257138095Y-58447619D02*
X257185714Y-58400000D01*
X257280952Y-58352380D01*
X257519047Y-58352380D01*
X257614285Y-58400000D01*
X257661904Y-58447619D01*
X257709523Y-58542857D01*
X257709523Y-58638095D01*
X257661904Y-58780952D01*
X257090476Y-59352380D01*
X257709523Y-59352380D01*
%TO.C,D16*%
X264185714Y-58452380D02*
X264185714Y-57452380D01*
X264423809Y-57452380D01*
X264566666Y-57500000D01*
X264661904Y-57595238D01*
X264709523Y-57690476D01*
X264757142Y-57880952D01*
X264757142Y-58023809D01*
X264709523Y-58214285D01*
X264661904Y-58309523D01*
X264566666Y-58404761D01*
X264423809Y-58452380D01*
X264185714Y-58452380D01*
X265709523Y-58452380D02*
X265138095Y-58452380D01*
X265423809Y-58452380D02*
X265423809Y-57452380D01*
X265328571Y-57595238D01*
X265233333Y-57690476D01*
X265138095Y-57738095D01*
X266566666Y-57452380D02*
X266376190Y-57452380D01*
X266280952Y-57500000D01*
X266233333Y-57547619D01*
X266138095Y-57690476D01*
X266090476Y-57880952D01*
X266090476Y-58261904D01*
X266138095Y-58357142D01*
X266185714Y-58404761D01*
X266280952Y-58452380D01*
X266471428Y-58452380D01*
X266566666Y-58404761D01*
X266614285Y-58357142D01*
X266661904Y-58261904D01*
X266661904Y-58023809D01*
X266614285Y-57928571D01*
X266566666Y-57880952D01*
X266471428Y-57833333D01*
X266280952Y-57833333D01*
X266185714Y-57880952D01*
X266138095Y-57928571D01*
X266090476Y-58023809D01*
X273338095Y-60688880D02*
X273338095Y-59688880D01*
X273909523Y-60688880D02*
X273480952Y-60117452D01*
X273909523Y-59688880D02*
X273338095Y-60260309D01*
%TO.C,D5*%
X182461904Y-82252380D02*
X182461904Y-81252380D01*
X182700000Y-81252380D01*
X182842857Y-81300000D01*
X182938095Y-81395238D01*
X182985714Y-81490476D01*
X183033333Y-81680952D01*
X183033333Y-81823809D01*
X182985714Y-82014285D01*
X182938095Y-82109523D01*
X182842857Y-82204761D01*
X182700000Y-82252380D01*
X182461904Y-82252380D01*
X183938095Y-81252380D02*
X183461904Y-81252380D01*
X183414285Y-81728571D01*
X183461904Y-81680952D01*
X183557142Y-81633333D01*
X183795238Y-81633333D01*
X183890476Y-81680952D01*
X183938095Y-81728571D01*
X183985714Y-81823809D01*
X183985714Y-82061904D01*
X183938095Y-82157142D01*
X183890476Y-82204761D01*
X183795238Y-82252380D01*
X183557142Y-82252380D01*
X183461904Y-82204761D01*
X183414285Y-82157142D01*
X175438095Y-82169046D02*
X175438095Y-81169046D01*
X176009523Y-82169046D02*
X175580952Y-81597618D01*
X176009523Y-81169046D02*
X175438095Y-81740475D01*
%TO.C,SW4*%
X212366666Y-65204761D02*
X212509523Y-65252380D01*
X212747619Y-65252380D01*
X212842857Y-65204761D01*
X212890476Y-65157142D01*
X212938095Y-65061904D01*
X212938095Y-64966666D01*
X212890476Y-64871428D01*
X212842857Y-64823809D01*
X212747619Y-64776190D01*
X212557142Y-64728571D01*
X212461904Y-64680952D01*
X212414285Y-64633333D01*
X212366666Y-64538095D01*
X212366666Y-64442857D01*
X212414285Y-64347619D01*
X212461904Y-64300000D01*
X212557142Y-64252380D01*
X212795238Y-64252380D01*
X212938095Y-64300000D01*
X213271428Y-64252380D02*
X213509523Y-65252380D01*
X213700000Y-64538095D01*
X213890476Y-65252380D01*
X214128571Y-64252380D01*
X214938095Y-64585714D02*
X214938095Y-65252380D01*
X214700000Y-64204761D02*
X214461904Y-64919047D01*
X215080952Y-64919047D01*
%TO.C,SW2*%
X205766666Y-56604761D02*
X205909523Y-56652380D01*
X206147619Y-56652380D01*
X206242857Y-56604761D01*
X206290476Y-56557142D01*
X206338095Y-56461904D01*
X206338095Y-56366666D01*
X206290476Y-56271428D01*
X206242857Y-56223809D01*
X206147619Y-56176190D01*
X205957142Y-56128571D01*
X205861904Y-56080952D01*
X205814285Y-56033333D01*
X205766666Y-55938095D01*
X205766666Y-55842857D01*
X205814285Y-55747619D01*
X205861904Y-55700000D01*
X205957142Y-55652380D01*
X206195238Y-55652380D01*
X206338095Y-55700000D01*
X206671428Y-55652380D02*
X206909523Y-56652380D01*
X207100000Y-55938095D01*
X207290476Y-56652380D01*
X207528571Y-55652380D01*
X207861904Y-55747619D02*
X207909523Y-55700000D01*
X208004761Y-55652380D01*
X208242857Y-55652380D01*
X208338095Y-55700000D01*
X208385714Y-55747619D01*
X208433333Y-55842857D01*
X208433333Y-55938095D01*
X208385714Y-56080952D01*
X207814285Y-56652380D01*
X208433333Y-56652380D01*
%TO.C,SW7*%
X192166666Y-103304761D02*
X192309523Y-103352380D01*
X192547619Y-103352380D01*
X192642857Y-103304761D01*
X192690476Y-103257142D01*
X192738095Y-103161904D01*
X192738095Y-103066666D01*
X192690476Y-102971428D01*
X192642857Y-102923809D01*
X192547619Y-102876190D01*
X192357142Y-102828571D01*
X192261904Y-102780952D01*
X192214285Y-102733333D01*
X192166666Y-102638095D01*
X192166666Y-102542857D01*
X192214285Y-102447619D01*
X192261904Y-102400000D01*
X192357142Y-102352380D01*
X192595238Y-102352380D01*
X192738095Y-102400000D01*
X193071428Y-102352380D02*
X193309523Y-103352380D01*
X193500000Y-102638095D01*
X193690476Y-103352380D01*
X193928571Y-102352380D01*
X194214285Y-102352380D02*
X194880952Y-102352380D01*
X194452380Y-103352380D01*
%TO.C,D2*%
X195952380Y-65838095D02*
X194952380Y-65838095D01*
X194952380Y-65600000D01*
X195000000Y-65457142D01*
X195095238Y-65361904D01*
X195190476Y-65314285D01*
X195380952Y-65266666D01*
X195523809Y-65266666D01*
X195714285Y-65314285D01*
X195809523Y-65361904D01*
X195904761Y-65457142D01*
X195952380Y-65600000D01*
X195952380Y-65838095D01*
X195047619Y-64885714D02*
X195000000Y-64838095D01*
X194952380Y-64742857D01*
X194952380Y-64504761D01*
X195000000Y-64409523D01*
X195047619Y-64361904D01*
X195142857Y-64314285D01*
X195238095Y-64314285D01*
X195380952Y-64361904D01*
X195952380Y-64933333D01*
X195952380Y-64314285D01*
X196533214Y-50661904D02*
X195533214Y-50661904D01*
X196533214Y-50090476D02*
X195961786Y-50519047D01*
X195533214Y-50090476D02*
X196104643Y-50661904D01*
%TO.C,D11*%
X258085714Y-120235713D02*
X258085714Y-119235713D01*
X258323809Y-119235713D01*
X258466666Y-119283333D01*
X258561904Y-119378571D01*
X258609523Y-119473809D01*
X258657142Y-119664285D01*
X258657142Y-119807142D01*
X258609523Y-119997618D01*
X258561904Y-120092856D01*
X258466666Y-120188094D01*
X258323809Y-120235713D01*
X258085714Y-120235713D01*
X259609523Y-120235713D02*
X259038095Y-120235713D01*
X259323809Y-120235713D02*
X259323809Y-119235713D01*
X259228571Y-119378571D01*
X259133333Y-119473809D01*
X259038095Y-119521428D01*
X260561904Y-120235713D02*
X259990476Y-120235713D01*
X260276190Y-120235713D02*
X260276190Y-119235713D01*
X260180952Y-119378571D01*
X260085714Y-119473809D01*
X259990476Y-119521428D01*
X273338095Y-120335713D02*
X273338095Y-119335713D01*
X273909523Y-120335713D02*
X273480952Y-119764285D01*
X273909523Y-119335713D02*
X273338095Y-119907142D01*
D12*
%TO.C,SW18*%
X262300000Y-40250000D02*
X264700000Y-40250000D01*
X274100000Y-40250000D02*
X274100000Y-44350000D01*
X267700000Y-46350000D02*
X268700000Y-46350000D01*
X262300000Y-52450000D02*
X274100000Y-52450000D01*
X262300000Y-48350000D02*
X262300000Y-52450000D01*
X274100000Y-48350000D02*
X274100000Y-52450000D01*
X266900000Y-40250000D02*
X269500000Y-40250000D01*
X264100000Y-54150000D02*
X264100000Y-53550000D01*
X264400000Y-53850000D02*
X264100000Y-54150000D01*
X264100000Y-53550000D02*
X264400000Y-53850000D01*
X268200000Y-46850000D02*
X268200000Y-45850000D01*
X262300000Y-44350000D02*
X262300000Y-40250000D01*
X271700000Y-40250000D02*
X274100000Y-40250000D01*
X271200000Y-46350000D02*
G75*
G03*
X271200000Y-46350000I-3000000J0D01*
G01*
%TO.C,D9*%
X222480000Y-83286666D02*
X227920000Y-83286666D01*
X222480000Y-80346666D02*
X222480000Y-83286666D01*
X223500000Y-80346666D02*
X223500000Y-83286666D01*
X227920000Y-83286666D02*
X227920000Y-80346666D01*
X223380000Y-80346666D02*
X223380000Y-83286666D01*
X223260000Y-80346666D02*
X223260000Y-83286666D01*
X221460000Y-81816666D02*
X222480000Y-81816666D01*
X228940000Y-81816666D02*
X227920000Y-81816666D01*
X227920000Y-80346666D02*
X222480000Y-80346666D01*
%TO.C,D18*%
X259660416Y-44160000D02*
X256720416Y-44160000D01*
X256720416Y-48820000D02*
X259660416Y-48820000D01*
X259660416Y-44400000D02*
X256720416Y-44400000D01*
X258190416Y-49840000D02*
X258190416Y-48820000D01*
X259660416Y-44280000D02*
X256720416Y-44280000D01*
X256720416Y-43380000D02*
X256720416Y-48820000D01*
X259660416Y-48820000D02*
X259660416Y-43380000D01*
X258190416Y-42360000D02*
X258190416Y-43380000D01*
X259660416Y-43380000D02*
X256720416Y-43380000D01*
D10*
%TO.C,U1*%
X227550000Y-68535000D02*
X227550000Y-71075000D01*
X221490000Y-43135000D02*
X229110000Y-43135000D01*
X227550000Y-71085000D02*
X223050000Y-71075000D01*
X226050000Y-68835000D02*
X224550000Y-68835000D01*
X223050000Y-68535000D02*
X227550000Y-68535000D01*
X221490000Y-36785000D02*
X229110000Y-36785000D01*
X223050000Y-69085000D02*
X223550000Y-68585000D01*
X234190000Y-73615000D02*
X216410000Y-73615000D01*
X225300000Y-67835000D02*
X230300000Y-62835000D01*
X229110000Y-36785000D02*
X229110000Y-38055000D01*
X216410000Y-73615000D02*
X216410000Y-38055000D01*
X221490000Y-43135000D02*
X221490000Y-38055000D01*
X223050000Y-68535000D02*
X223050000Y-69085000D01*
X223050000Y-71075000D02*
X223050000Y-68535000D01*
X220300000Y-62835000D02*
X225300000Y-67835000D01*
X227050000Y-68585000D02*
X227550000Y-69085000D01*
X227550000Y-70585000D02*
X227550000Y-69085000D01*
X223550000Y-71085000D02*
X223050000Y-70585000D01*
X230300000Y-62835000D02*
X225300000Y-57835000D01*
X229110000Y-43135000D02*
X229110000Y-38055000D01*
X216410000Y-38055000D02*
X234190000Y-38055000D01*
X225300000Y-57835000D02*
X220300000Y-62835000D01*
X227050000Y-71085000D02*
X227550000Y-70585000D01*
X234190000Y-38055000D02*
X234190000Y-73615000D01*
X221490000Y-38055000D02*
X221490000Y-36785000D01*
X224550000Y-70835000D02*
X226050000Y-70835000D01*
X224550000Y-68835000D02*
G75*
G03*
X224550000Y-70835000I0J-1000000D01*
G01*
X226050000Y-70835000D02*
G75*
G03*
X226050000Y-68835000I0J1000000D01*
G01*
G36*
X228387000Y-63038000D02*
G01*
X228133000Y-63292000D01*
X227879000Y-62911000D01*
X228133000Y-62657000D01*
X228387000Y-63038000D01*
G37*
D13*
X228387000Y-63038000D02*
X228133000Y-63292000D01*
X227879000Y-62911000D01*
X228133000Y-62657000D01*
X228387000Y-63038000D01*
G36*
X228387000Y-62149000D02*
G01*
X228133000Y-62403000D01*
X227879000Y-62022000D01*
X228133000Y-61768000D01*
X228387000Y-62149000D01*
G37*
X228387000Y-62149000D02*
X228133000Y-62403000D01*
X227879000Y-62022000D01*
X228133000Y-61768000D01*
X228387000Y-62149000D01*
G36*
X227244000Y-62403000D02*
G01*
X226990000Y-62657000D01*
X226736000Y-62276000D01*
X226990000Y-62022000D01*
X227244000Y-62403000D01*
G37*
X227244000Y-62403000D02*
X226990000Y-62657000D01*
X226736000Y-62276000D01*
X226990000Y-62022000D01*
X227244000Y-62403000D01*
G36*
X228006000Y-62530000D02*
G01*
X227752000Y-62784000D01*
X227498000Y-62403000D01*
X227752000Y-62149000D01*
X228006000Y-62530000D01*
G37*
X228006000Y-62530000D02*
X227752000Y-62784000D01*
X227498000Y-62403000D01*
X227752000Y-62149000D01*
X228006000Y-62530000D01*
G36*
X226863000Y-62784000D02*
G01*
X226609000Y-63038000D01*
X226355000Y-62657000D01*
X226609000Y-62403000D01*
X226863000Y-62784000D01*
G37*
X226863000Y-62784000D02*
X226609000Y-63038000D01*
X226355000Y-62657000D01*
X226609000Y-62403000D01*
X226863000Y-62784000D01*
G36*
X228768000Y-62657000D02*
G01*
X228514000Y-62911000D01*
X228260000Y-62530000D01*
X228514000Y-62276000D01*
X228768000Y-62657000D01*
G37*
X228768000Y-62657000D02*
X228514000Y-62911000D01*
X228260000Y-62530000D01*
X228514000Y-62276000D01*
X228768000Y-62657000D01*
G36*
X229149000Y-63165000D02*
G01*
X228895000Y-63419000D01*
X228641000Y-63038000D01*
X228895000Y-62784000D01*
X229149000Y-63165000D01*
G37*
X229149000Y-63165000D02*
X228895000Y-63419000D01*
X228641000Y-63038000D01*
X228895000Y-62784000D01*
X229149000Y-63165000D01*
G36*
X227625000Y-62022000D02*
G01*
X227371000Y-62276000D01*
X227117000Y-61895000D01*
X227371000Y-61641000D01*
X227625000Y-62022000D01*
G37*
X227625000Y-62022000D02*
X227371000Y-62276000D01*
X227117000Y-61895000D01*
X227371000Y-61641000D01*
X227625000Y-62022000D01*
D12*
%TO.C,SW8*%
X176229000Y-122329000D02*
X190371000Y-122329000D01*
X176229000Y-136471000D02*
X176229000Y-135871000D01*
X190371000Y-122929000D02*
X191121000Y-122929000D01*
X175479000Y-122929000D02*
X176229000Y-122929000D01*
X175479000Y-135871000D02*
X175479000Y-122929000D01*
X176229000Y-122929000D02*
X176229000Y-122329000D01*
X191121000Y-122929000D02*
X191121000Y-135871000D01*
X190371000Y-122329000D02*
X190371000Y-122929000D01*
X191121000Y-135871000D02*
X190371000Y-135871000D01*
X190371000Y-136471000D02*
X176229000Y-136471000D01*
X190371000Y-135871000D02*
X190371000Y-136471000D01*
X176229000Y-135871000D02*
X175479000Y-135871000D01*
%TO.C,D1*%
X193979583Y-43280000D02*
X191039583Y-43280000D01*
X192509583Y-48840000D02*
X192509583Y-47820000D01*
X191039583Y-47820000D02*
X193979583Y-47820000D01*
X192509583Y-41360000D02*
X192509583Y-42380000D01*
X193979583Y-42380000D02*
X191039583Y-42380000D01*
X193979583Y-43400000D02*
X191039583Y-43400000D01*
X193979583Y-47820000D02*
X193979583Y-42380000D01*
X193979583Y-43160000D02*
X191039583Y-43160000D01*
X191039583Y-42380000D02*
X191039583Y-47820000D01*
%TO.C,SW12*%
X259579000Y-103895666D02*
X260329000Y-103895666D01*
X275221000Y-103895666D02*
X275221000Y-116837666D01*
X274471000Y-116837666D02*
X274471000Y-117437666D01*
X260329000Y-117437666D02*
X260329000Y-116837666D01*
X274471000Y-117437666D02*
X260329000Y-117437666D01*
X274471000Y-103295666D02*
X274471000Y-103895666D01*
X260329000Y-116837666D02*
X259579000Y-116837666D01*
X275221000Y-116837666D02*
X274471000Y-116837666D01*
X260329000Y-103895666D02*
X260329000Y-103295666D01*
X274471000Y-103895666D02*
X275221000Y-103895666D01*
X260329000Y-103295666D02*
X274471000Y-103295666D01*
X259579000Y-116837666D02*
X259579000Y-103895666D01*
%TO.C,D6*%
X201880000Y-80346666D02*
X201880000Y-83286666D01*
X208340000Y-81816666D02*
X207320000Y-81816666D01*
X202660000Y-80346666D02*
X202660000Y-83286666D01*
X207320000Y-80346666D02*
X201880000Y-80346666D01*
X207320000Y-83286666D02*
X207320000Y-80346666D01*
X202780000Y-80346666D02*
X202780000Y-83286666D01*
X202900000Y-80346666D02*
X202900000Y-83286666D01*
X201880000Y-83286666D02*
X207320000Y-83286666D01*
X200860000Y-81816666D02*
X201880000Y-81816666D01*
%TO.C,D3*%
X180180000Y-58766500D02*
X180180000Y-61706500D01*
X180960000Y-58766500D02*
X180960000Y-61706500D01*
X185620000Y-61706500D02*
X185620000Y-58766500D01*
X179160000Y-60236500D02*
X180180000Y-60236500D01*
X181080000Y-58766500D02*
X181080000Y-61706500D01*
X180180000Y-61706500D02*
X185620000Y-61706500D01*
X181200000Y-58766500D02*
X181200000Y-61706500D01*
X186640000Y-60236500D02*
X185620000Y-60236500D01*
X185620000Y-58766500D02*
X180180000Y-58766500D01*
%TO.C,SW9*%
X217529000Y-84862333D02*
X218279000Y-84862333D01*
X233171000Y-97804333D02*
X232421000Y-97804333D01*
X232421000Y-97804333D02*
X232421000Y-98404333D01*
X233171000Y-84862333D02*
X233171000Y-97804333D01*
X217529000Y-97804333D02*
X217529000Y-84862333D01*
X232421000Y-84862333D02*
X233171000Y-84862333D01*
X218279000Y-97804333D02*
X217529000Y-97804333D01*
X232421000Y-98404333D02*
X218279000Y-98404333D01*
X218279000Y-84862333D02*
X218279000Y-84262333D01*
X218279000Y-84262333D02*
X232421000Y-84262333D01*
X218279000Y-98404333D02*
X218279000Y-97804333D01*
X232421000Y-84262333D02*
X232421000Y-84862333D01*
%TO.C,SW5*%
X176229000Y-84862333D02*
X176229000Y-84262333D01*
X176229000Y-97804333D02*
X175479000Y-97804333D01*
X190371000Y-97804333D02*
X190371000Y-98404333D01*
X176229000Y-84262333D02*
X190371000Y-84262333D01*
X190371000Y-98404333D02*
X176229000Y-98404333D01*
X191121000Y-97804333D02*
X190371000Y-97804333D01*
X175479000Y-84862333D02*
X176229000Y-84862333D01*
X175479000Y-97804333D02*
X175479000Y-84862333D01*
X191121000Y-84862333D02*
X191121000Y-97804333D01*
X190371000Y-84862333D02*
X191121000Y-84862333D01*
X176229000Y-98404333D02*
X176229000Y-97804333D01*
X190371000Y-84262333D02*
X190371000Y-84862333D01*
%TO.C,SW3*%
X175479000Y-78771000D02*
X175479000Y-65829000D01*
X176229000Y-78771000D02*
X175479000Y-78771000D01*
X190371000Y-65229000D02*
X190371000Y-65829000D01*
X176229000Y-65229000D02*
X190371000Y-65229000D01*
X191121000Y-65829000D02*
X191121000Y-78771000D01*
X176229000Y-79371000D02*
X176229000Y-78771000D01*
X191121000Y-78771000D02*
X190371000Y-78771000D01*
X190371000Y-79371000D02*
X176229000Y-79371000D01*
X176229000Y-65829000D02*
X176229000Y-65229000D01*
X190371000Y-65829000D02*
X191121000Y-65829000D01*
X175479000Y-65829000D02*
X176229000Y-65829000D01*
X190371000Y-78771000D02*
X190371000Y-79371000D01*
%TO.C,D10*%
X234430000Y-93440000D02*
X237370000Y-93440000D01*
X234430000Y-93320000D02*
X237370000Y-93320000D01*
X235900000Y-95240000D02*
X235900000Y-94220000D01*
X237370000Y-88780000D02*
X234430000Y-88780000D01*
X235900000Y-87760000D02*
X235900000Y-88780000D01*
X234430000Y-88780000D02*
X234430000Y-94220000D01*
X234430000Y-94220000D02*
X237370000Y-94220000D01*
X237370000Y-94220000D02*
X237370000Y-88780000D01*
X234430000Y-93200000D02*
X237370000Y-93200000D01*
%TO.C,SW17*%
X237771250Y-48350000D02*
X237771250Y-52450000D01*
X242371250Y-40250000D02*
X244971250Y-40250000D01*
X247171250Y-40250000D02*
X249571250Y-40250000D01*
X249571250Y-48350000D02*
X249571250Y-52450000D01*
X237771250Y-52450000D02*
X249571250Y-52450000D01*
X239871250Y-53850000D02*
X239571250Y-54150000D01*
X239571250Y-54150000D02*
X239571250Y-53550000D01*
X243171250Y-46350000D02*
X244171250Y-46350000D01*
X237771250Y-40250000D02*
X240171250Y-40250000D01*
X237771250Y-44350000D02*
X237771250Y-40250000D01*
X239571250Y-53550000D02*
X239871250Y-53850000D01*
X243671250Y-46850000D02*
X243671250Y-45850000D01*
X249571250Y-40250000D02*
X249571250Y-44350000D01*
X246671250Y-46350000D02*
G75*
G03*
X246671250Y-46350000I-3000000J0D01*
G01*
%TO.C,D7*%
X185620000Y-102319999D02*
X185620000Y-99379999D01*
X179160000Y-100849999D02*
X180180000Y-100849999D01*
X185620000Y-99379999D02*
X180180000Y-99379999D01*
X180180000Y-99379999D02*
X180180000Y-102319999D01*
X181200000Y-99379999D02*
X181200000Y-102319999D01*
X180180000Y-102319999D02*
X185620000Y-102319999D01*
X186640000Y-100849999D02*
X185620000Y-100849999D01*
X180960000Y-99379999D02*
X180960000Y-102319999D01*
X181080000Y-99379999D02*
X181080000Y-102319999D01*
%TO.C,D17*%
X253680833Y-42360000D02*
X253680833Y-43380000D01*
X253680833Y-49840000D02*
X253680833Y-48820000D01*
X255150833Y-48820000D02*
X255150833Y-43380000D01*
X255150833Y-44400000D02*
X252210833Y-44400000D01*
X252210833Y-43380000D02*
X252210833Y-48820000D01*
X255150833Y-44280000D02*
X252210833Y-44280000D01*
X252210833Y-48820000D02*
X255150833Y-48820000D01*
X255150833Y-44160000D02*
X252210833Y-44160000D01*
X255150833Y-43380000D02*
X252210833Y-43380000D01*
%TO.C,SW15*%
X239304000Y-65229000D02*
X253446000Y-65229000D01*
X239304000Y-79371000D02*
X239304000Y-78771000D01*
X238554000Y-65829000D02*
X239304000Y-65829000D01*
X253446000Y-65229000D02*
X253446000Y-65829000D01*
X238554000Y-78771000D02*
X238554000Y-65829000D01*
X239304000Y-78771000D02*
X238554000Y-78771000D01*
X254196000Y-78771000D02*
X253446000Y-78771000D01*
X254196000Y-65829000D02*
X254196000Y-78771000D01*
X253446000Y-78771000D02*
X253446000Y-79371000D01*
X253446000Y-79371000D02*
X239304000Y-79371000D01*
X239304000Y-65829000D02*
X239304000Y-65229000D01*
X253446000Y-65829000D02*
X254196000Y-65829000D01*
%TO.C,D4*%
X210040000Y-60100000D02*
X209020000Y-60100000D01*
X209020000Y-61570000D02*
X209020000Y-58630000D01*
X202560000Y-60100000D02*
X203580000Y-60100000D01*
X209020000Y-58630000D02*
X203580000Y-58630000D01*
X204600000Y-58630000D02*
X204600000Y-61570000D01*
X203580000Y-58630000D02*
X203580000Y-61570000D01*
X204360000Y-58630000D02*
X204360000Y-61570000D01*
X204480000Y-58630000D02*
X204480000Y-61570000D01*
X203580000Y-61570000D02*
X209020000Y-61570000D01*
%TO.C,SW13*%
X253446000Y-97804333D02*
X253446000Y-98404333D01*
X253446000Y-98404333D02*
X239304000Y-98404333D01*
X253446000Y-84262333D02*
X253446000Y-84862333D01*
X238554000Y-84862333D02*
X239304000Y-84862333D01*
X239304000Y-84862333D02*
X239304000Y-84262333D01*
X239304000Y-97804333D02*
X238554000Y-97804333D01*
X254196000Y-97804333D02*
X253446000Y-97804333D01*
X254196000Y-84862333D02*
X254196000Y-97804333D01*
X239304000Y-84262333D02*
X253446000Y-84262333D01*
X253446000Y-84862333D02*
X254196000Y-84862333D01*
X238554000Y-97804333D02*
X238554000Y-84862333D01*
X239304000Y-98404333D02*
X239304000Y-97804333D01*
%TO.C,D13*%
X243280000Y-80346666D02*
X243280000Y-83286666D01*
X247700000Y-83286666D02*
X247700000Y-80346666D01*
X247940000Y-83286666D02*
X247940000Y-80346666D01*
X243280000Y-83286666D02*
X248720000Y-83286666D01*
X248720000Y-80346666D02*
X243280000Y-80346666D01*
X249740000Y-81816666D02*
X248720000Y-81816666D01*
X242260000Y-81816666D02*
X243280000Y-81816666D01*
X247820000Y-83286666D02*
X247820000Y-80346666D01*
X248720000Y-83286666D02*
X248720000Y-80346666D01*
%TO.C,D8*%
X181080000Y-118413333D02*
X181080000Y-121353333D01*
X179160000Y-119883333D02*
X180180000Y-119883333D01*
X180180000Y-121353333D02*
X185620000Y-121353333D01*
X185620000Y-118413333D02*
X180180000Y-118413333D01*
X180180000Y-118413333D02*
X180180000Y-121353333D01*
X181200000Y-118413333D02*
X181200000Y-121353333D01*
X186640000Y-119883333D02*
X185620000Y-119883333D01*
X185620000Y-121353333D02*
X185620000Y-118413333D01*
X180960000Y-118413333D02*
X180960000Y-121353333D01*
%TO.C,SW1*%
X188400000Y-40250000D02*
X188400000Y-44350000D01*
X176600000Y-40250000D02*
X179000000Y-40250000D01*
X176600000Y-44350000D02*
X176600000Y-40250000D01*
X182500000Y-46850000D02*
X182500000Y-45850000D01*
X176600000Y-48350000D02*
X176600000Y-52450000D01*
X182000000Y-46350000D02*
X183000000Y-46350000D01*
X178400000Y-53550000D02*
X178700000Y-53850000D01*
X178400000Y-54150000D02*
X178400000Y-53550000D01*
X178700000Y-53850000D02*
X178400000Y-54150000D01*
X188400000Y-48350000D02*
X188400000Y-52450000D01*
X176600000Y-52450000D02*
X188400000Y-52450000D01*
X181200000Y-40250000D02*
X183800000Y-40250000D01*
X186000000Y-40250000D02*
X188400000Y-40250000D01*
X185500000Y-46350000D02*
G75*
G03*
X185500000Y-46350000I-3000000J0D01*
G01*
%TO.C,SW11*%
X274471000Y-135871000D02*
X274471000Y-136471000D01*
X260329000Y-136471000D02*
X260329000Y-135871000D01*
X260329000Y-122329000D02*
X274471000Y-122329000D01*
X275221000Y-122929000D02*
X275221000Y-135871000D01*
X260329000Y-122929000D02*
X260329000Y-122329000D01*
X274471000Y-136471000D02*
X260329000Y-136471000D01*
X275221000Y-135871000D02*
X274471000Y-135871000D01*
X259579000Y-122929000D02*
X260329000Y-122929000D01*
X274471000Y-122329000D02*
X274471000Y-122929000D01*
X260329000Y-135871000D02*
X259579000Y-135871000D01*
X259579000Y-135871000D02*
X259579000Y-122929000D01*
X274471000Y-122929000D02*
X275221000Y-122929000D01*
%TO.C,SW6*%
X211396000Y-98404333D02*
X197254000Y-98404333D01*
X197254000Y-97804333D02*
X196504000Y-97804333D01*
X197254000Y-84262333D02*
X211396000Y-84262333D01*
X211396000Y-84862333D02*
X212146000Y-84862333D01*
X197254000Y-98404333D02*
X197254000Y-97804333D01*
X196504000Y-84862333D02*
X197254000Y-84862333D01*
X197254000Y-84862333D02*
X197254000Y-84262333D01*
X212146000Y-84862333D02*
X212146000Y-97804333D01*
X212146000Y-97804333D02*
X211396000Y-97804333D01*
X196504000Y-97804333D02*
X196504000Y-84862333D01*
X211396000Y-84262333D02*
X211396000Y-84862333D01*
X211396000Y-97804333D02*
X211396000Y-98404333D01*
%TO.C,SW14*%
X260329000Y-84862333D02*
X260329000Y-84262333D01*
X259579000Y-97804333D02*
X259579000Y-84862333D01*
X274471000Y-98404333D02*
X260329000Y-98404333D01*
X260329000Y-98404333D02*
X260329000Y-97804333D01*
X260329000Y-97804333D02*
X259579000Y-97804333D01*
X274471000Y-84862333D02*
X275221000Y-84862333D01*
X259579000Y-84862333D02*
X260329000Y-84862333D01*
X260329000Y-84262333D02*
X274471000Y-84262333D01*
X274471000Y-97804333D02*
X274471000Y-98404333D01*
X275221000Y-97804333D02*
X274471000Y-97804333D01*
X274471000Y-84262333D02*
X274471000Y-84862333D01*
X275221000Y-84862333D02*
X275221000Y-97804333D01*
%TO.C,G\u002A\u002A\u002A*%
G36*
X204492355Y-115189251D02*
G01*
X204806816Y-115511539D01*
X205115747Y-115903280D01*
X205324242Y-116245508D01*
X205349053Y-116411460D01*
X205180473Y-116366175D01*
X205099525Y-116264262D01*
X204831388Y-116106111D01*
X204510442Y-116226415D01*
X204270378Y-116560238D01*
X204235724Y-116683828D01*
X204175557Y-116859957D01*
X204136301Y-116652233D01*
X204126608Y-116478055D01*
X204149439Y-116051369D01*
X204293272Y-115936117D01*
X204393077Y-115961651D01*
X204641262Y-115963921D01*
X204651654Y-115749847D01*
X204426398Y-115411521D01*
X204379121Y-115362418D01*
X204214006Y-115127277D01*
X204267267Y-115055385D01*
X204492355Y-115189251D01*
G37*
G36*
X205467692Y-118129183D02*
G01*
X205611215Y-117385747D01*
X205993246Y-116821269D01*
X206540978Y-116510639D01*
X207055148Y-116496337D01*
X207665583Y-116483080D01*
X208198789Y-116199968D01*
X208828945Y-115906561D01*
X209381870Y-115945540D01*
X209794779Y-116258788D01*
X210004891Y-116788190D01*
X209949421Y-117475630D01*
X209858411Y-117736223D01*
X209632087Y-118218175D01*
X209301878Y-118850646D01*
X208916706Y-119548513D01*
X208525496Y-120226655D01*
X208177172Y-120799949D01*
X207920658Y-121183275D01*
X207812308Y-121296187D01*
X207628843Y-121173903D01*
X207255915Y-120855969D01*
X206901931Y-120530722D01*
X206201028Y-119826520D01*
X205764117Y-119260408D01*
X205537652Y-118742725D01*
X205481065Y-118288085D01*
X205707934Y-118288085D01*
X205800756Y-118607184D01*
X206068671Y-118995237D01*
X206562047Y-119545913D01*
X206652826Y-119642213D01*
X207164847Y-120173098D01*
X207531816Y-120466362D01*
X207823969Y-120501398D01*
X208111537Y-120257600D01*
X208464757Y-119714359D01*
X208875685Y-118990008D01*
X209366878Y-118061688D01*
X209642299Y-117388973D01*
X209718398Y-116913187D01*
X209611625Y-116575653D01*
X209568663Y-116518232D01*
X209136169Y-116252355D01*
X208616934Y-116341211D01*
X208090982Y-116750158D01*
X207723481Y-117080773D01*
X207473324Y-117114122D01*
X207377389Y-117043235D01*
X206945141Y-116839291D01*
X206431777Y-116864623D01*
X206078930Y-117076699D01*
X205884751Y-117451780D01*
X205739839Y-117944267D01*
X205707934Y-118288085D01*
X205481065Y-118288085D01*
X205468087Y-118183812D01*
X205467692Y-118129183D01*
G37*
G36*
X195211290Y-122052832D02*
G01*
X195747560Y-121712752D01*
X196343653Y-121374208D01*
X196824687Y-121097958D01*
X197036277Y-120973803D01*
X197150128Y-120690269D01*
X197130823Y-120103577D01*
X196995336Y-119271348D01*
X196812212Y-118475369D01*
X201564993Y-118475369D01*
X202430092Y-120268933D01*
X202802379Y-121062564D01*
X203107370Y-121753565D01*
X203304663Y-122248139D01*
X203355673Y-122417787D01*
X203476714Y-122774189D01*
X203558349Y-122879616D01*
X203851952Y-122931276D01*
X204436391Y-122917997D01*
X205219274Y-122851247D01*
X206108211Y-122742495D01*
X207010810Y-122603209D01*
X207834682Y-122444858D01*
X208487434Y-122278909D01*
X208545000Y-122260625D01*
X209165547Y-122053761D01*
X209607370Y-121898297D01*
X209772591Y-121829070D01*
X209811801Y-121636835D01*
X209917252Y-121120636D01*
X210076909Y-120339360D01*
X210278740Y-119351892D01*
X210510711Y-118217119D01*
X210537956Y-118083846D01*
X210798269Y-116797950D01*
X210982844Y-115840737D01*
X211097512Y-115158733D01*
X211148106Y-114698458D01*
X211140456Y-114406438D01*
X211080392Y-114229194D01*
X210973747Y-114113250D01*
X210971134Y-114111154D01*
X210589795Y-113980086D01*
X209906806Y-113907819D01*
X209006173Y-113890126D01*
X207971898Y-113922779D01*
X206887985Y-114001551D01*
X205838439Y-114122213D01*
X204907262Y-114280540D01*
X204246538Y-114449570D01*
X203599164Y-114676958D01*
X203130215Y-114876443D01*
X202933634Y-115007645D01*
X202932496Y-115014389D01*
X202992655Y-115261929D01*
X203143210Y-115758096D01*
X203296011Y-116227692D01*
X203585443Y-117198387D01*
X203850167Y-118275029D01*
X204075668Y-119373222D01*
X204247432Y-120408569D01*
X204350943Y-121296671D01*
X204371687Y-121953132D01*
X204328538Y-122231432D01*
X204206362Y-122537002D01*
X204145984Y-122543437D01*
X204121758Y-122213807D01*
X204115425Y-121924538D01*
X204075298Y-121448009D01*
X203978571Y-120747353D01*
X203842531Y-119915263D01*
X203684466Y-119044431D01*
X203521664Y-118227550D01*
X203371413Y-117557314D01*
X203251001Y-117126415D01*
X203201084Y-117022109D01*
X203026284Y-117097466D01*
X202669974Y-117387373D01*
X202337330Y-117703032D01*
X201564993Y-118475369D01*
X196812212Y-118475369D01*
X196760640Y-118251202D01*
X196443711Y-117100761D01*
X196061521Y-115877644D01*
X195631046Y-114639473D01*
X195169259Y-113443869D01*
X194693136Y-112348452D01*
X194219649Y-111410843D01*
X194218637Y-111409022D01*
X193883748Y-110768334D01*
X193643673Y-110235915D01*
X193549284Y-109924837D01*
X193549231Y-109921141D01*
X193734810Y-109379481D01*
X194258736Y-108819358D01*
X195071794Y-108272255D01*
X196124766Y-107769658D01*
X197368436Y-107343050D01*
X197733954Y-107244104D01*
X198968352Y-106992298D01*
X200479827Y-106783972D01*
X202156256Y-106627615D01*
X203885516Y-106531716D01*
X205555486Y-106504766D01*
X206933077Y-106547557D01*
X207990010Y-106609190D01*
X209034061Y-106666238D01*
X209930477Y-106711537D01*
X210450000Y-106734477D01*
X211430515Y-106837214D01*
X212145412Y-107081011D01*
X212606128Y-107498607D01*
X212824099Y-108122740D01*
X212810763Y-108986150D01*
X212577557Y-110121574D01*
X212136154Y-111561057D01*
X211581532Y-113201846D01*
X212381854Y-113820848D01*
X211929037Y-116147732D01*
X211697889Y-117266326D01*
X211432519Y-118443159D01*
X211170814Y-119514750D01*
X211008088Y-120121746D01*
X210814495Y-120872602D01*
X210696196Y-121475076D01*
X210669836Y-121836330D01*
X210690362Y-121893943D01*
X210933776Y-122023859D01*
X211438361Y-122251982D01*
X212102046Y-122532456D01*
X212208462Y-122575983D01*
X213271420Y-123040452D01*
X214000020Y-123441506D01*
X214438727Y-123811598D01*
X214632012Y-124183177D01*
X214650769Y-124358339D01*
X214501220Y-124923375D01*
X214040249Y-125450973D01*
X213249371Y-125952102D01*
X212110102Y-126437731D01*
X210603956Y-126918830D01*
X210102800Y-127057220D01*
X208778022Y-127398039D01*
X207590251Y-127664557D01*
X206454746Y-127867105D01*
X205286768Y-128016011D01*
X204001575Y-128121608D01*
X202514426Y-128194223D01*
X200740581Y-128244189D01*
X200290000Y-128253430D01*
X198792018Y-128280030D01*
X197631843Y-128292581D01*
X196756682Y-128288598D01*
X196113742Y-128265596D01*
X195650232Y-128221087D01*
X195313360Y-128152587D01*
X195050334Y-128057610D01*
X194933493Y-128001209D01*
X194198444Y-127437965D01*
X193755822Y-126644277D01*
X193595692Y-125598064D01*
X193611371Y-125062888D01*
X193843093Y-123841274D01*
X194269574Y-123035856D01*
X198255722Y-123035856D01*
X198276813Y-123559725D01*
X198321398Y-124197498D01*
X198416214Y-124561238D01*
X198631065Y-124767190D01*
X199035755Y-124931600D01*
X199117692Y-124960053D01*
X200230579Y-125273271D01*
X201450739Y-125463384D01*
X202882416Y-125543039D01*
X203919853Y-125542533D01*
X205986630Y-125508462D01*
X207632161Y-124495927D01*
X208555181Y-123906193D01*
X209162130Y-123458939D01*
X209486076Y-123121144D01*
X209560090Y-122859786D01*
X209454432Y-122676278D01*
X209144065Y-122585616D01*
X208597272Y-122741764D01*
X208579593Y-122749062D01*
X207987112Y-122918942D01*
X207107254Y-123077844D01*
X206043410Y-123215779D01*
X204898971Y-123322760D01*
X203777326Y-123388797D01*
X202781868Y-123403902D01*
X202135663Y-123371612D01*
X201005900Y-123213062D01*
X199862658Y-122972828D01*
X198875149Y-122688729D01*
X198569890Y-122574667D01*
X198374132Y-122530738D01*
X198277154Y-122658438D01*
X198255722Y-123035856D01*
X194269574Y-123035856D01*
X194364506Y-122856574D01*
X195211290Y-122052832D01*
G37*
%TO.C,SW10*%
X217850000Y-125500000D02*
X218450000Y-125500000D01*
X223650000Y-123700000D02*
X219550000Y-123700000D01*
X219550000Y-123700000D02*
X219550000Y-135500000D01*
X225650000Y-129100000D02*
X225650000Y-130100000D01*
X231750000Y-133100000D02*
X231750000Y-135500000D01*
X231750000Y-128300000D02*
X231750000Y-130900000D01*
X231750000Y-135500000D02*
X227650000Y-135500000D01*
X227650000Y-123700000D02*
X231750000Y-123700000D01*
X218450000Y-125500000D02*
X218150000Y-125800000D01*
X223650000Y-135500000D02*
X219550000Y-135500000D01*
X218150000Y-125800000D02*
X217850000Y-125500000D01*
X225150000Y-129600000D02*
X226150000Y-129600000D01*
X231750000Y-123700000D02*
X231750000Y-126100000D01*
X228650000Y-129600000D02*
G75*
G03*
X228650000Y-129600000I-3000000J0D01*
G01*
%TO.C,D14*%
X268520000Y-83286666D02*
X268520000Y-80346666D01*
X269420000Y-83286666D02*
X269420000Y-80346666D01*
X263980000Y-80346666D02*
X263980000Y-83286666D01*
X263980000Y-83286666D02*
X269420000Y-83286666D01*
X270440000Y-81816666D02*
X269420000Y-81816666D01*
X262960000Y-81816666D02*
X263980000Y-81816666D01*
X268400000Y-83286666D02*
X268400000Y-80346666D01*
X269420000Y-80346666D02*
X263980000Y-80346666D01*
X268640000Y-83286666D02*
X268640000Y-80346666D01*
%TO.C,D15*%
X248720000Y-61706500D02*
X248720000Y-58766500D01*
X243280000Y-61706500D02*
X248720000Y-61706500D01*
X247820000Y-61706500D02*
X247820000Y-58766500D01*
X242260000Y-60236500D02*
X243280000Y-60236500D01*
X249740000Y-60236500D02*
X248720000Y-60236500D01*
X248720000Y-58766500D02*
X243280000Y-58766500D01*
X247940000Y-61706500D02*
X247940000Y-58766500D01*
X243280000Y-58766500D02*
X243280000Y-61706500D01*
X247700000Y-61706500D02*
X247700000Y-58766500D01*
%TO.C,SW16*%
X274471000Y-79371000D02*
X260329000Y-79371000D01*
X260329000Y-65829000D02*
X260329000Y-65229000D01*
X260329000Y-79371000D02*
X260329000Y-78771000D01*
X259579000Y-65829000D02*
X260329000Y-65829000D01*
X260329000Y-78771000D02*
X259579000Y-78771000D01*
X274471000Y-65229000D02*
X274471000Y-65829000D01*
X274471000Y-65829000D02*
X275221000Y-65829000D01*
X274471000Y-78771000D02*
X274471000Y-79371000D01*
X275221000Y-65829000D02*
X275221000Y-78771000D01*
X259579000Y-78771000D02*
X259579000Y-65829000D01*
X275221000Y-78771000D02*
X274471000Y-78771000D01*
X260329000Y-65229000D02*
X274471000Y-65229000D01*
%TO.C,D12*%
X263980000Y-102319999D02*
X269420000Y-102319999D01*
X269420000Y-102319999D02*
X269420000Y-99379999D01*
X262960000Y-100849999D02*
X263980000Y-100849999D01*
X263980000Y-99379999D02*
X263980000Y-102319999D01*
X268400000Y-102319999D02*
X268400000Y-99379999D01*
X268640000Y-102319999D02*
X268640000Y-99379999D01*
X270440000Y-100849999D02*
X269420000Y-100849999D01*
X269420000Y-99379999D02*
X263980000Y-99379999D01*
X268520000Y-102319999D02*
X268520000Y-99379999D01*
%TO.C,D16*%
X269420000Y-58766500D02*
X263980000Y-58766500D01*
X270440000Y-60236500D02*
X269420000Y-60236500D01*
X268640000Y-61706500D02*
X268640000Y-58766500D01*
X269420000Y-61706500D02*
X269420000Y-58766500D01*
X268520000Y-61706500D02*
X268520000Y-58766500D01*
X263980000Y-58766500D02*
X263980000Y-61706500D01*
X268400000Y-61706500D02*
X268400000Y-58766500D01*
X262960000Y-60236500D02*
X263980000Y-60236500D01*
X263980000Y-61706500D02*
X269420000Y-61706500D01*
%TO.C,D5*%
X186640000Y-81816666D02*
X185620000Y-81816666D01*
X179160000Y-81816666D02*
X180180000Y-81816666D01*
X181200000Y-80346666D02*
X181200000Y-83286666D01*
X180180000Y-80346666D02*
X180180000Y-83286666D01*
X181080000Y-80346666D02*
X181080000Y-83286666D01*
X185620000Y-80346666D02*
X180180000Y-80346666D01*
X185620000Y-83286666D02*
X185620000Y-80346666D01*
X180960000Y-80346666D02*
X180960000Y-83286666D01*
X180180000Y-83286666D02*
X185620000Y-83286666D01*
%TO.C,SW4*%
X211396000Y-65829000D02*
X212146000Y-65829000D01*
X197254000Y-65229000D02*
X211396000Y-65229000D01*
X197254000Y-79371000D02*
X197254000Y-78771000D01*
X196504000Y-65829000D02*
X197254000Y-65829000D01*
X211396000Y-79371000D02*
X197254000Y-79371000D01*
X211396000Y-78771000D02*
X211396000Y-79371000D01*
X211396000Y-65229000D02*
X211396000Y-65829000D01*
X197254000Y-65829000D02*
X197254000Y-65229000D01*
X196504000Y-78771000D02*
X196504000Y-65829000D01*
X197254000Y-78771000D02*
X196504000Y-78771000D01*
X212146000Y-65829000D02*
X212146000Y-78771000D01*
X212146000Y-78771000D02*
X211396000Y-78771000D01*
%TO.C,SW2*%
X203100000Y-53450000D02*
X203400000Y-53750000D01*
X203100000Y-54050000D02*
X203100000Y-53450000D01*
X213100000Y-40150000D02*
X213100000Y-44250000D01*
X206700000Y-46250000D02*
X207700000Y-46250000D01*
X205900000Y-40150000D02*
X208500000Y-40150000D01*
X210700000Y-40150000D02*
X213100000Y-40150000D01*
X213100000Y-48250000D02*
X213100000Y-52350000D01*
X201300000Y-44250000D02*
X201300000Y-40150000D01*
X207200000Y-46750000D02*
X207200000Y-45750000D01*
X201300000Y-40150000D02*
X203700000Y-40150000D01*
X203400000Y-53750000D02*
X203100000Y-54050000D01*
X201300000Y-48250000D02*
X201300000Y-52350000D01*
X201300000Y-52350000D02*
X213100000Y-52350000D01*
X210200000Y-46250000D02*
G75*
G03*
X210200000Y-46250000I-3000000J0D01*
G01*
%TO.C,SW7*%
X175479000Y-103895666D02*
X176229000Y-103895666D01*
X191121000Y-103895666D02*
X191121000Y-116837666D01*
X191121000Y-116837666D02*
X190371000Y-116837666D01*
X176229000Y-103895666D02*
X176229000Y-103295666D01*
X176229000Y-103295666D02*
X190371000Y-103295666D01*
X176229000Y-116837666D02*
X175479000Y-116837666D01*
X190371000Y-103295666D02*
X190371000Y-103895666D01*
X176229000Y-117437666D02*
X176229000Y-116837666D01*
X190371000Y-116837666D02*
X190371000Y-117437666D01*
X190371000Y-103895666D02*
X191121000Y-103895666D01*
X175479000Y-116837666D02*
X175479000Y-103895666D01*
X190371000Y-117437666D02*
X176229000Y-117437666D01*
%TO.C,D2*%
X197670000Y-55460000D02*
X194730000Y-55460000D01*
X194730000Y-60120000D02*
X197670000Y-60120000D01*
X197670000Y-55700000D02*
X194730000Y-55700000D01*
X194730000Y-54680000D02*
X194730000Y-60120000D01*
X197670000Y-55580000D02*
X194730000Y-55580000D01*
X196200000Y-53660000D02*
X196200000Y-54680000D01*
X197670000Y-54680000D02*
X194730000Y-54680000D01*
X196200000Y-61140000D02*
X196200000Y-60120000D01*
X197670000Y-60120000D02*
X197670000Y-54680000D01*
%TO.C,D11*%
X269420000Y-121353333D02*
X269420000Y-118413333D01*
X263980000Y-118413333D02*
X263980000Y-121353333D01*
X268640000Y-121353333D02*
X268640000Y-118413333D01*
X270440000Y-119883333D02*
X269420000Y-119883333D01*
X262960000Y-119883333D02*
X263980000Y-119883333D01*
X269420000Y-118413333D02*
X263980000Y-118413333D01*
X268400000Y-121353333D02*
X268400000Y-118413333D01*
X263980000Y-121353333D02*
X269420000Y-121353333D01*
X268520000Y-121353333D02*
X268520000Y-118413333D01*
%TD*%
M02*
