M48
; DRILL file {KiCad (6.0.5)} date Fri Jun  3 20:06:06 2022
; FORMAT={2:4/ absolute / inch / suppress leading zeros}
; #@! TF.CreationDate,2022-06-03T20:06:06-07:00
; #@! TF.GenerationSoftware,Kicad,Pcbnew,(6.0.5)
; #@! TF.FileFunction,NonPlated,1,2,NPTH
FMAT,2
INCH,TZ
; #@! TA.AperFunction,NonPlated,NPTH,ComponentDrill
T1C0.0689
; #@! TA.AperFunction,NonPlated,NPTH,ComponentDrill
T2C0.1575
%
G90
G05
T1
X70165Y-28465
X70165Y-35958
X70165Y-43451
X70165Y-50945
X74165Y-28465
X74165Y-35958
X74165Y-43451
X74165Y-50945
X78443Y-28465
X78443Y-35958
X82443Y-28465
X82443Y-35958
X86720Y-35958
X90720Y-35958
X94998Y-28465
X94998Y-35958
X98998Y-28465
X98998Y-35958
X103276Y-28465
X103276Y-35958
X103276Y-43451
X103276Y-50945
X107276Y-28465
X107276Y-35958
X107276Y-43451
X107276Y-50945
T2
X72165Y-28465
X72165Y-35958
X72165Y-43451
X72165Y-50945
X80443Y-28465
X80443Y-35958
X88720Y-35958
X96998Y-28465
X96998Y-35958
X105276Y-28465
X105276Y-35958
X105276Y-43451
X105276Y-50945
T0
M30
